STARTFONT 2.1
COMMENT
COMMENT Converted from OpenType font "ArialI.otf" by "otf2bdf 3.0".
COMMENT
FONT -FreeType-Arial-Medium-I-Normal--44-320-100-100-P-231-ISO10646-1
SIZE 32 100 100
FONTBOUNDINGBOX 71 58 -23 -14
STARTPROPERTIES 19
FOUNDRY "FreeType"
FAMILY_NAME "Arial"
WEIGHT_NAME "Medium"
SLANT "I"
SETWIDTH_NAME "Normal"
ADD_STYLE_NAME ""
PIXEL_SIZE 44
POINT_SIZE 320
RESOLUTION_X 100
RESOLUTION_Y 100
SPACING "P"
AVERAGE_WIDTH 231
CHARSET_REGISTRY "ISO10646"
CHARSET_ENCODING "1"
FONT_ASCENT 39
FONT_DESCENT 9
COPYRIGHT "© 2006 The Monotype Corporation. All Rights Reserved."
_OTF_FONTFILE "ArialI.otf"
_OTF_PSNAME "Arial-ItalicMT"
ENDPROPERTIES
CHARS 959
STARTCHAR 0020
ENCODING 32
SWIDTH 270 0
DWIDTH 12 0
BBX 0 0 0 0
BITMAP
ENDCHAR
STARTCHAR 0021
ENCODING 33
SWIDTH 270 0
DWIDTH 12 0
BBX 10 32 3 0
BITMAP
03C0
07C0
07C0
07C0
07C0
0780
0F80
0F80
0F80
0F00
0F00
0F00
0F00
1E00
1E00
1E00
1C00
1C00
1C00
1C00
3800
3800
3800
3800
0000
0000
0000
0000
F800
F000
F000
F000
ENDCHAR
STARTCHAR 0022
ENCODING 34
SWIDTH 360 0
DWIDTH 16 0
BBX 13 11 6 21
BITMAP
7C78
7CF8
78F8
78F0
F8F0
F9F0
F1F0
F1E0
F1E0
E1C0
E1C0
ENDCHAR
STARTCHAR 0023
ENCODING 35
SWIDTH 562 0
DWIDTH 25 0
BBX 24 33 2 -1
BITMAP
00F03C
00E03C
00E038
00E038
00E038
01E078
01C070
01C070
01C070
FFFFFF
FFFFFF
FFFFFF
0380E0
0380E0
0380E0
0781E0
0701C0
0701C0
0701C0
0F01C0
FFFFFF
FFFFFF
FFFFFF
0E0380
1E0380
1E0780
1C0700
1C0700
1C0700
3C0700
3C0F00
380E00
380E00
ENDCHAR
STARTCHAR 0024
ENCODING 36
SWIDTH 562 0
DWIDTH 25 0
BBX 23 38 2 -4
BITMAP
000180
000180
003FC0
00FFF0
01FFF8
03E37C
07833E
07871E
0F061E
0F060E
0F0600
0F0600
0F0E00
078C00
07CC00
03FC00
01FE00
00FF80
003FC0
001FE0
001BF0
0018F8
003078
003078
003078
F03038
F87078
786078
786078
3C60F0
3E63F0
1FFFE0
0FFFC0
03FF00
00E000
00C000
01C000
018000
ENDCHAR
STARTCHAR 0025
ENCODING 37
SWIDTH 900 0
DWIDTH 40 0
BBX 34 33 4 -1
BITMAP
07E0000F00
0FF8001E00
1FFC003C00
3C3C007800
381C007000
781C00E000
701C01E000
701C03C000
701C038000
F03C070000
F03C0F0000
F0381E0000
70783C0000
78F0380000
7FF0700000
3FC0F00000
0601E01000
0003C0FF00
000381FF80
000783C780
000F0783C0
001E0703C0
001C0F03C0
00380F03C0
00780E03C0
00F00E03C0
01E00E0380
01C00E0780
03C00E0780
07800F0F00
0F000FBE00
0E0007FC00
1C0003F800
ENDCHAR
STARTCHAR 0026
ENCODING 38
SWIDTH 675 0
DWIDTH 30 0
BBX 25 33 4 -1
BITMAP
001FC000
007FE000
00FFF000
01F0F800
01E07800
03E07800
03C07800
03C07800
03C0F000
03E1F000
01E3E000
01FFC000
00FF8000
01FE0000
07F80000
0FFC0000
1FBC0000
3E3E0000
7C1E0400
F81F0700
F00F8F80
F0078F00
F007DF00
F003FE00
F001FC00
F001F800
F001F800
F803FC00
7E0FFE00
7FFFBF00
1FFF1F80
0FFC0E00
01E00400
ENDCHAR
STARTCHAR 0027
ENCODING 39
SWIDTH 180 0
DWIDTH 8 0
BBX 5 11 6 21
BITMAP
78
78
78
F8
F8
F0
F0
F0
E0
E0
C0
ENDCHAR
STARTCHAR 0028
ENCODING 40
SWIDTH 337 0
DWIDTH 15 0
BBX 14 41 4 -9
BITMAP
001C
0038
0070
00E0
01E0
01C0
0380
0780
0700
0F00
0E00
1E00
1C00
3C00
3C00
7800
7800
7800
7800
F000
F000
F000
F000
F000
F000
F000
F000
F000
F000
F000
F000
F000
F000
7000
7000
7800
7800
3800
3800
3C00
1C00
ENDCHAR
STARTCHAR 0029
ENCODING 41
SWIDTH 337 0
DWIDTH 15 0
BBX 14 41 -2 -9
BITMAP
00E0
00F0
0070
0070
0078
0078
0038
0038
003C
003C
003C
003C
003C
003C
003C
003C
003C
003C
003C
003C
003C
003C
0038
0078
0078
0078
00F0
00F0
00E0
01E0
01E0
03C0
0380
0780
0700
0E00
1E00
1C00
3800
7000
E000
ENDCHAR
STARTCHAR 002A
ENCODING 42
SWIDTH 382 0
DWIDTH 17 0
BBX 14 13 5 19
BITMAP
0380
0380
0380
638C
7B3C
FFFC
3FF8
0780
0FC0
1EE0
1CF0
3C78
1820
ENDCHAR
STARTCHAR 002B
ENCODING 43
SWIDTH 585 0
DWIDTH 26 0
BBX 21 21 4 5
BITMAP
007000
007000
007000
007000
007000
007000
007000
007000
FFF000
FFFFF8
FFFFF8
FFFFF8
007000
007000
007000
007000
007000
007000
007000
007000
007000
ENDCHAR
STARTCHAR 002C
ENCODING 44
SWIDTH 270 0
DWIDTH 12 0
BBX 7 10 1 -6
BITMAP
3E
3C
3C
3C
0C
18
18
38
70
E0
ENDCHAR
STARTCHAR 002D
ENCODING 45
SWIDTH 337 0
DWIDTH 15 0
BBX 13 3 2 10
BITMAP
7FF8
FFF0
FFF0
ENDCHAR
STARTCHAR 002E
ENCODING 46
SWIDTH 270 0
DWIDTH 12 0
BBX 5 4 3 0
BITMAP
F8
F8
F0
F0
ENDCHAR
STARTCHAR 002F
ENCODING 47
SWIDTH 270 0
DWIDTH 12 0
BBX 20 33 -2 -1
BITMAP
0000F0
0000E0
0001E0
0001C0
0003C0
000380
000780
000700
000F00
000E00
001E00
001C00
003C00
003800
007800
007000
00E000
00E000
01C000
01C000
038000
078000
070000
0F0000
0E0000
1E0000
1C0000
3C0000
380000
780000
700000
F00000
E00000
ENDCHAR
STARTCHAR 0030
ENCODING 48
SWIDTH 562 0
DWIDTH 25 0
BBX 22 33 3 -1
BITMAP
001F00
007FC0
01FFE0
03F1F0
03C078
078038
0F003C
0F003C
1E003C
1E003C
3C003C
3C003C
3C003C
78003C
78003C
78003C
78003C
F80078
F00078
F00078
F00078
F000F0
F000F0
F000F0
F001E0
7003E0
7803C0
780780
3C0F80
3FFF00
1FFE00
07F800
008000
ENDCHAR
STARTCHAR 0031
ENCODING 49
SWIDTH 562 0
DWIDTH 25 0
BBX 14 32 7 0
BITMAP
000C
001C
003C
007C
00F8
03F8
07F8
1FF8
FF78
FCF0
F0F0
C0F0
00F0
00F0
01E0
01E0
01E0
01E0
01C0
03C0
03C0
03C0
03C0
0780
0780
0780
0780
0780
0F00
0F00
0F00
0F00
ENDCHAR
STARTCHAR 0032
ENCODING 50
SWIDTH 562 0
DWIDTH 25 0
BBX 22 32 3 0
BITMAP
003F00
01FFC0
03FFE0
07E3F0
0F80F8
0F0078
1F003C
1E003C
1E003C
04003C
00003C
000078
000078
0000F8
0001F0
0003E0
0007C0
001F80
003F00
007C00
00F800
01F000
07E000
0FC000
1F0000
3E0000
3C0000
7C0000
7FFFE0
FFFFE0
FFFFE0
FFFFE0
ENDCHAR
STARTCHAR 0033
ENCODING 51
SWIDTH 562 0
DWIDTH 25 0
BBX 22 33 3 -1
BITMAP
003F00
00FFC0
03FFE0
07E3F0
0780F8
0F0078
0F003C
1E003C
0E003C
00003C
000078
000078
0000F8
0003F0
003FE0
007F80
007FC0
000FE0
0003E0
0001F0
0000F0
0000F0
0000F0
6000F0
F000F0
F000F0
F001E0
F803E0
7C07C0
3FFF80
1FFF00
0FFC00
004000
ENDCHAR
STARTCHAR 0034
ENCODING 52
SWIDTH 562 0
DWIDTH 25 0
BBX 22 32 2 0
BITMAP
00003C
00007C
000078
0000F8
0001F8
0003F8
0007F8
000FF0
001EF0
003CF0
0078F0
00F8E0
00F1E0
01E1E0
03C1E0
0781E0
0F01C0
1E03C0
3C03C0
7803C0
7FFFFC
7FFFFC
FFFFFC
FFFFF8
000780
000780
000F00
000F00
000F00
000F00
000F00
001E00
ENDCHAR
STARTCHAR 0035
ENCODING 53
SWIDTH 562 0
DWIDTH 25 0
BBX 22 31 3 -1
BITMAP
01FFFC
03FFFC
03FFFC
03C000
078000
078000
078000
070000
0F0000
0F0C00
0E7F80
1FFFE0
1FFFF0
1F83F0
1E00F8
3C0078
000078
000078
000078
000078
000078
000078
F00078
F000F0
F000F0
7801E0
7803E0
7E07C0
3FFF80
1FFF00
07FC00
ENDCHAR
STARTCHAR 0036
ENCODING 54
SWIDTH 562 0
DWIDTH 25 0
BBX 21 33 4 -1
BITMAP
001F00
00FFC0
01FFE0
03FBF0
07C0F0
0F8078
0F0078
1E0078
1E0000
3C0000
3C0000
7CFE00
7BFF80
7FFFC0
7F07C0
FE03E0
FC01E0
F800F0
F800F0
F000F0
F000F0
F000F0
F000F0
F000E0
F001E0
F001E0
F003C0
7807C0
7C0F80
3FFF00
1FFE00
07F800
008000
ENDCHAR
STARTCHAR 0037
ENCODING 55
SWIDTH 562 0
DWIDTH 25 0
BBX 20 31 6 0
BITMAP
FFFFF0
FFFFF0
FFFFF0
0001E0
0003C0
000780
000F00
001F00
001E00
003C00
007800
007800
00F000
01E000
01E000
03C000
03C000
078000
078000
0F0000
0F0000
1F0000
1E0000
1E0000
3C0000
3C0000
3C0000
780000
780000
780000
780000
ENDCHAR
STARTCHAR 0038
ENCODING 56
SWIDTH 562 0
DWIDTH 25 0
BBX 22 33 3 -1
BITMAP
003F00
00FFE0
03FFF0
07E1F8
078078
0F003C
0F003C
0F003C
1E003C
0E003C
0F003C
0F0078
0780F0
03FFE0
01FFC0
07FFC0
1FCFE0
3E01E0
3C00F0
7C00F0
7800F0
780070
F000F0
F000F0
F000F0
F000F0
7801E0
7803E0
3E07C0
3FFF80
1FFF00
07FC00
00C000
ENDCHAR
STARTCHAR 0039
ENCODING 57
SWIDTH 562 0
DWIDTH 25 0
BBX 21 33 3 -1
BITMAP
007E00
01FF80
03FFC0
07E3E0
0F80F0
1F00F8
1E0078
3C0078
3C0038
3C0038
380038
780038
780078
780078
3C00F8
3C00F8
3E01F8
1E03F8
1FCFF8
0FFFF0
07FCF0
00F0F0
0001E0
0001E0
3003E0
F003C0
F00780
780F80
7C1F00
7FFE00
3FFC00
0FF000
010000
ENDCHAR
STARTCHAR 003A
ENCODING 58
SWIDTH 270 0
DWIDTH 12 0
BBX 9 23 3 0
BITMAP
0F80
0F00
0F00
0F00
0000
0000
0000
0000
0000
0000
0000
0000
0000
0000
0000
0000
0000
0000
0000
F800
F000
F000
F000
ENDCHAR
STARTCHAR 003B
ENCODING 59
SWIDTH 270 0
DWIDTH 12 0
BBX 11 29 1 -6
BITMAP
03E0
03C0
03C0
07C0
0000
0000
0000
0000
0000
0000
0000
0000
0000
0000
0000
0000
0000
0000
0000
3E00
3C00
3C00
3C00
0C00
1800
1800
3800
7000
E000
ENDCHAR
STARTCHAR 003C
ENCODING 60
SWIDTH 585 0
DWIDTH 26 0
BBX 21 21 4 5
BITMAP
000018
0000F8
0003F8
000FF8
007FC0
01FF00
07FC00
3FE000
FF8000
FC0000
F80000
FE0000
7FC000
1FF000
03FE00
00FF80
003FE0
0007F8
0001F8
000078
000008
ENDCHAR
STARTCHAR 003D
ENCODING 61
SWIDTH 585 0
DWIDTH 26 0
BBX 21 13 4 9
BITMAP
FFFFF8
FFFFF8
FFFFF8
000000
000000
000000
000000
000000
000000
FFFFF8
FFFFF8
FFFFF8
FFFFF8
ENDCHAR
STARTCHAR 003E
ENCODING 62
SWIDTH 585 0
DWIDTH 26 0
BBX 21 21 4 5
BITMAP
C00000
F80000
FE0000
FF8000
1FF000
07FC00
01FF00
003FE0
000FF8
0001F8
0000F8
0003F8
001FF0
007FC0
01FE00
0FF800
3FE000
FF0000
FC0000
F00000
800000
ENDCHAR
STARTCHAR 003F
ENCODING 63
SWIDTH 562 0
DWIDTH 25 0
BBX 19 32 6 0
BITMAP
03FC00
0FFF00
1FFF80
3E07C0
7C03C0
7801E0
F001E0
F001E0
F001E0
1003E0
0003C0
0007C0
000F80
001F00
003E00
00FC00
01F800
03E000
07C000
078000
0F0000
0F0000
0E0000
1E0000
000000
000000
000000
000000
3E0000
3C0000
3C0000
7C0000
ENDCHAR
STARTCHAR 0040
ENCODING 64
SWIDTH 1012 0
DWIDTH 45 0
BBX 41 41 2 -9
BITMAP
0001FFF00000
000FFFFE0000
001FFFFF8000
007F001FC000
00FC0007E000
01F00001F000
03C000007800
078000003C00
0F0000001C00
0E00FF1E1E00
1E03FF9E0E00
1C07FFDE0F00
3C0F81FC0700
380F00FC0700
381E007C0700
783E007C0700
703C007C0700
703C00780700
707800780700
707800780700
F07800780700
F07800700F00
F07800F00E00
F07800F01E00
707800F01C00
707801F03C00
707C03E07800
783C07E1F000
783F1FFFE000
381FFDFFC000
3C0FF8FF8000
1E03E07E0000
1E0000000780
0F0000000F00
078000001E00
03E000007E00
01F80001F800
00FF000FF000
003FFFFFC000
000FFFFF0000
0001FFFC0000
ENDCHAR
STARTCHAR 0041
ENCODING 65
SWIDTH 675 0
DWIDTH 30 0
BBX 28 32 -1 0
BITMAP
00003E00
00007E00
00007F00
0000FF00
0000FF00
0001EF00
0001EF00
0003CF00
0007C780
00078780
000F8780
000F0780
001F0780
001E0780
003E07C0
007C03C0
007803C0
00F803C0
00F003C0
01F003C0
01FFFFE0
03FFFFE0
07FFFFE0
078001E0
0F8001E0
0F0001E0
1F0001F0
1E0000F0
3E0000F0
3C0000F0
7C0000F0
F80000F0
ENDCHAR
STARTCHAR 0042
ENCODING 66
SWIDTH 675 0
DWIDTH 30 0
BBX 27 32 2 0
BITMAP
01FFF800
03FFFF00
03FFFF80
03FFFFC0
03C007C0
07C003E0
07C001E0
078001E0
078001E0
078001E0
0F8001E0
0F0003C0
0F0007C0
0F003F80
0FFFFE00
1FFFF800
1FFFFF00
1E00FF80
1E0007C0
1E0007C0
3E0003C0
3C0003C0
3C0003C0
3C0003C0
7C0007C0
7C0007C0
78000F80
78001F80
7FFFFF00
FFFFFE00
FFFFF800
FFFFE000
ENDCHAR
STARTCHAR 0043
ENCODING 67
SWIDTH 720 0
DWIDTH 32 0
BBX 28 33 4 -1
BITMAP
001FFC00
007FFF00
00FFFF80
03FC1FC0
07E007E0
07C003E0
0F8001F0
1F0000F0
3E0000F0
3E0000F0
3C000000
7C000000
78000000
78000000
F8000000
F8000000
F0000000
F0000000
F0000000
F0000000
F0000000
F00001E0
F80003E0
780003C0
780007C0
7C000F80
3E001F00
3F003F00
1FC0FE00
0FFFF800
07FFF000
01FFC000
00080000
ENDCHAR
STARTCHAR 0044
ENCODING 68
SWIDTH 720 0
DWIDTH 32 0
BBX 30 32 2 0
BITMAP
01FFF000
03FFFF00
03FFFF80
03FFFFC0
03C007E0
03C001F0
07C000F0
078000F8
07800078
07800078
0F800078
0F80007C
0F00007C
0F00007C
0F00007C
1F00007C
1E000078
1E000078
1E000078
1E0000F8
3E0000F0
3C0001F0
3C0001E0
3C0003E0
3C0007C0
7C000FC0
78001F80
78007F00
7FFFFE00
FFFFFC00
FFFFF000
FFFF8000
ENDCHAR
STARTCHAR 0045
ENCODING 69
SWIDTH 675 0
DWIDTH 30 0
BBX 30 32 2 0
BITMAP
01FFFFFC
03FFFFF8
03FFFFF8
03FFFFF8
03C00000
03C00000
07C00000
07800000
07800000
07800000
0F800000
0F800000
0F000000
0F000000
0FFFFFC0
1FFFFFC0
1FFFFFC0
1E000000
1E000000
1E000000
3E000000
3C000000
3C000000
3C000000
3C000000
7C000000
78000000
78000000
7FFFFF80
7FFFFF80
FFFFFF80
FFFFFF00
ENDCHAR
STARTCHAR 0046
ENCODING 70
SWIDTH 607 0
DWIDTH 27 0
BBX 27 32 2 0
BITMAP
01FFFFE0
03FFFFE0
03FFFFE0
03FFFFE0
03C00000
03C00000
07C00000
07800000
07800000
07800000
07800000
0F800000
0F000000
0F000000
0FFFFF80
1FFFFF00
1FFFFF00
1FFFFF00
1E000000
1E000000
3E000000
3C000000
3C000000
3C000000
3C000000
7C000000
78000000
78000000
78000000
78000000
F8000000
F0000000
ENDCHAR
STARTCHAR 0047
ENCODING 71
SWIDTH 787 0
DWIDTH 35 0
BBX 30 33 4 -1
BITMAP
000FFE00
003FFF80
00FFFFC0
01FE0FF0
03F003F0
07E000F8
0F8000F8
0F00007C
1F00007C
1E00003C
3E000000
3C000000
7C000000
78000000
78000000
78000000
F801FFF8
F801FFF8
F803FFF0
F80000F0
F80000F0
F80001F0
780001E0
780001E0
7C0001E0
7C0001E0
3E0003E0
1F000FC0
1FC07FC0
0FFFFF80
03FFFE00
01FFF000
00040000
ENDCHAR
STARTCHAR 0048
ENCODING 72
SWIDTH 720 0
DWIDTH 32 0
BBX 31 32 2 0
BITMAP
03E0001E
03C0001E
03C0001E
03C0001E
03C0003E
07C0003C
0780003C
0780003C
0780003C
0780007C
0F800078
0F000078
0F000078
0FFFFFF8
0FFFFFF8
1FFFFFF0
1FFFFFF0
1E0000F0
1E0001F0
3E0001E0
3E0001E0
3C0001E0
3C0001E0
3C0003E0
7C0003C0
780003C0
780003C0
780003C0
780007C0
F8000780
F0000780
F0000780
ENDCHAR
STARTCHAR 0049
ENCODING 73
SWIDTH 270 0
DWIDTH 12 0
BBX 10 32 3 0
BITMAP
03C0
03C0
03C0
07C0
07C0
0780
0780
0780
0F80
0F00
0F00
0F00
0F00
1F00
1E00
1E00
1E00
1E00
3E00
3C00
3C00
3C00
3C00
7C00
7800
7800
7800
F800
F800
F000
F000
F000
ENDCHAR
STARTCHAR 004A
ENCODING 74
SWIDTH 495 0
DWIDTH 22 0
BBX 23 33 1 -1
BITMAP
00003E
00003E
00003C
00003C
00003C
00007C
000078
000078
000078
000078
0000F8
0000F0
0000F0
0000F0
0000F0
0001F0
0001E0
0001E0
0001E0
0001E0
0003E0
0003C0
0803C0
7803C0
7007C0
F00780
780780
780F80
7C1F00
7FFE00
3FFC00
0FF800
008000
ENDCHAR
STARTCHAR 004B
ENCODING 75
SWIDTH 675 0
DWIDTH 30 0
BBX 31 32 2 0
BITMAP
01E0007E
03E001F8
03C003F0
03C007E0
03C00FC0
03C01F80
07C03F00
07807E00
0780F800
0783F000
0F87E000
0F8FC000
0F1F8000
0F3F0000
0F7F8000
1FFFC000
1FF7C000
1FE3E000
1FC1E000
1F81F000
3F00F000
3E00F800
3C007C00
3C007C00
3C003E00
7C001E00
78001F00
78000F00
78000F80
F80007C0
F80007C0
F00003E0
ENDCHAR
STARTCHAR 004C
ENCODING 76
SWIDTH 562 0
DWIDTH 25 0
BBX 21 32 2 0
BITMAP
03E000
03C000
03C000
03C000
03C000
07C000
078000
078000
078000
0F8000
0F8000
0F0000
0F0000
0F0000
1F0000
1E0000
1E0000
1E0000
1E0000
3E0000
3C0000
3C0000
3C0000
3C0000
7C0000
780000
780000
780000
FFFFF8
FFFFF8
FFFFF8
FFFFF8
ENDCHAR
STARTCHAR 004D
ENCODING 77
SWIDTH 832 0
DWIDTH 37 0
BBX 37 32 2 0
BITMAP
01F00001F8
03F00001F0
03F00003F0
03F00003F0
03F80007F0
07F8000FF0
07B8000FE0
07B8001EE0
07B8001FE0
07B8003DE0
0FB8003DE0
0F3C007BC0
0F3C00F3C0
0F3C00F3C0
0F3C01E3C0
1F1C01E3C0
1E1C03C780
1E1E03C780
1E1E078780
1E1E070780
3C1E0F0F80
3C0E1E0F00
3C0E1E0F00
3C0E3C0F00
3C0F3C0F00
780F781E00
780F701E00
780FF01E00
7807E01E00
F807E03E00
F007C03C00
F007C03C00
ENDCHAR
STARTCHAR 004E
ENCODING 78
SWIDTH 720 0
DWIDTH 32 0
BBX 32 32 2 0
BITMAP
01E0001F
01F0001E
03F0001E
03F0001E
03F8001E
03F8003E
03BC003C
07BC003C
079E003C
079E003C
078F0078
0F8F0078
0F0F8078
0F078078
0F0780F8
0F03C0F0
1F03C0F0
1E01E0F0
1E01E0F0
1E01F1F0
1E00F1E0
3E00F1E0
3C0079E0
3C0079E0
3C0039E0
3C003FC0
78003FC0
78001FC0
78001FC0
78000FC0
F8000F80
F0000780
ENDCHAR
STARTCHAR 004F
ENCODING 79
SWIDTH 787 0
DWIDTH 35 0
BBX 30 33 4 -1
BITMAP
000FFC00
007FFF00
00FFFFC0
01FC1FE0
07F003E0
0FC001F0
0F8000F8
1F000078
3E00007C
3E00007C
3C00003C
7C00003C
7800003C
7800003C
F800003C
F000003C
F000003C
F000003C
F000007C
F000007C
F0000078
F80000F8
780000F0
780001F0
7C0003E0
3C0003E0
3E000FC0
1F801F80
0FE07F00
07FFFE00
03FFF800
00FFE000
00040000
ENDCHAR
STARTCHAR 0050
ENCODING 80
SWIDTH 675 0
DWIDTH 30 0
BBX 29 32 2 0
BITMAP
03FFFE00
03FFFFC0
03FFFFE0
03FFFFF0
03C001F0
07C000F8
07800078
07800078
07800078
07800078
0F8000F8
0F0000F0
0F0001F0
0F0003F0
0F0007E0
1F01FFC0
1FFFFF80
1FFFFE00
1FFFF000
1E000000
3E000000
3C000000
3C000000
3C000000
7C000000
7C000000
78000000
78000000
78000000
F8000000
F0000000
F0000000
ENDCHAR
STARTCHAR 0051
ENCODING 81
SWIDTH 787 0
DWIDTH 35 0
BBX 30 35 4 -4
BITMAP
000FFC00
007FFF00
00FFFFC0
01FE1FE0
07F003F0
07C001F0
0F8000F8
1F000078
1E00007C
3E00003C
3C00003C
7C00003C
7800003C
7800003C
F800003C
F800003C
F000003C
F000003C
F000007C
F000007C
F0000078
F80000F8
780000F0
780301F0
7C03C3E0
3E03E3E0
3E01F7C0
1F807F80
0FE07F00
07FFFE00
03FFFF00
00FFE780
000607C0
000003E0
000000C0
ENDCHAR
STARTCHAR 0052
ENCODING 82
SWIDTH 720 0
DWIDTH 32 0
BBX 30 32 2 0
BITMAP
01FFFF80
03FFFFF0
03FFFFF8
03FFFFF8
03C0007C
03C0003C
07C0003C
0780003C
0780003C
0780003C
0780003C
0F80007C
0F0000F8
0F0001F8
0FFFFFF0
0FFFFFC0
1FFFFF80
1FFFF800
1E00F800
1E007C00
3E003E00
3E001E00
3C001F00
3C000F00
3C000F80
7C000780
780007C0
780007C0
780003E0
780003E0
F80001E0
F00001F0
ENDCHAR
STARTCHAR 0053
ENCODING 83
SWIDTH 675 0
DWIDTH 30 0
BBX 27 33 3 -1
BITMAP
003FF800
00FFFE00
01FFFF00
03F83F80
07C00FC0
078007C0
0F0003E0
0F0003E0
0F0001E0
0F800000
0F800000
07C00000
07F00000
03FE0000
00FF8000
007FE000
001FF800
0007FC00
0000FE00
00007F00
00001F00
30000F00
F0000F80
F0000F80
F8000F80
78000F00
7C001F00
7E003E00
3F80FE00
1FFFFC00
0FFFF000
03FFC000
00080000
ENDCHAR
STARTCHAR 0054
ENCODING 84
SWIDTH 607 0
DWIDTH 27 0
BBX 25 32 6 0
BITMAP
FFFFFF80
FFFFFF80
FFFFFF80
FFFFFF80
003C0000
003C0000
007C0000
00780000
00780000
00780000
00780000
00F80000
00F00000
00F00000
00F00000
00F00000
01F00000
01E00000
01E00000
01E00000
03E00000
03E00000
03C00000
03C00000
03C00000
07C00000
07800000
07800000
07800000
07800000
0F800000
0F000000
ENDCHAR
STARTCHAR 0055
ENCODING 85
SWIDTH 720 0
DWIDTH 32 0
BBX 29 33 4 -1
BITMAP
07800078
07800078
0F800078
0F000078
0F0000F8
0F0000F0
1F0000F0
1F0000F0
1E0000F0
1E0001F0
1E0001E0
3E0001E0
3C0001E0
3C0003E0
3C0003E0
3C0003C0
7C0003C0
780003C0
780007C0
780007C0
78000780
F8000780
F8000F80
F8000F00
F8001F00
78001F00
7C003E00
7E007C00
3F01F800
1FFFF000
0FFFE000
03FF8000
00100000
ENDCHAR
STARTCHAR 0056
ENCODING 86
SWIDTH 675 0
DWIDTH 30 0
BBX 27 32 6 0
BITMAP
F00001E0
F00001E0
F00003C0
F00007C0
F0000780
78000F80
78000F00
78001F00
78001E00
78003E00
7C003C00
3C007800
3C007800
3C00F000
3C01F000
3E01E000
1E03E000
1E03C000
1E07C000
1E078000
1F0F0000
0F0F0000
0F1E0000
0F1E0000
0F3C0000
0F3C0000
07F80000
07F80000
07F00000
07F00000
07E00000
03C00000
ENDCHAR
STARTCHAR 0057
ENCODING 87
SWIDTH 945 0
DWIDTH 42 0
BBX 41 32 6 0
BITMAP
F0003E000780
F0003E000F00
F0007E000F00
F0007E001E00
F000FE001E00
F000FE003C00
F001FE003C00
F003FE007800
F003DE007800
F007DE00F000
F0079E00F000
F00F9E01E000
F00F1E01E000
F81F1E03C000
F81E1F03C000
F83E0F078000
783C0F078000
787C0F0F0000
78780F0F0000
78F80F1E0000
78F00F1E0000
79E00F3C0000
79E00F3C0000
7BC00F780000
7BC00F780000
7F800FF00000
7F800FF00000
7F000FE00000
7F000FE00000
7E000FC00000
7E000FC00000
7C000F800000
ENDCHAR
STARTCHAR 0058
ENCODING 88
SWIDTH 675 0
DWIDTH 30 0
BBX 35 32 -1 0
BITMAP
03E00007E0
03E0000FC0
01F0001F80
00F0003F00
00F8003E00
0078007C00
007C00F800
003E01F000
001E03E000
001F07C000
000F0FC000
000F9F8000
0007BF0000
0007FE0000
0003FC0000
0001F80000
0003F00000
0007F00000
000FF80000
001FF80000
003F3C0000
007E3E0000
007C1E0000
00F81F0000
01F00F0000
03E00F8000
07C0078000
0F8007C000
1F8003E000
3F0003E000
7E0001F000
FC0000F000
ENDCHAR
STARTCHAR 0059
ENCODING 89
SWIDTH 675 0
DWIDTH 30 0
BBX 29 32 5 0
BITMAP
F80000F8
780001F0
7C0003F0
3C0003E0
3E0007C0
1E000F80
1F001F80
0F003F00
0F803E00
07807C00
07C0F800
03C1F800
03E1F000
01E3E000
01F7C000
00F7C000
00FF8000
007F0000
007E0000
003E0000
003C0000
003C0000
007C0000
00780000
00780000
00780000
00780000
00F80000
00F00000
00F00000
00F00000
00F00000
ENDCHAR
STARTCHAR 005A
ENCODING 90
SWIDTH 607 0
DWIDTH 27 0
BBX 27 32 1 0
BITMAP
07FFFFE0
07FFFFE0
07FFFFE0
07FFFFE0
000007C0
00000F80
00001F00
00003F00
00007E00
00007C00
0000F800
0001F000
0003E000
0007E000
000FC000
000F8000
001F0000
003E0000
007C0000
00F80000
01F80000
01F00000
03E00000
07C00000
0F800000
1F000000
3F000000
3E000000
7FFFFF00
FFFFFF00
FFFFFF00
FFFFFF00
ENDCHAR
STARTCHAR 005B
ENCODING 91
SWIDTH 270 0
DWIDTH 12 0
BBX 17 41 0 -9
BITMAP
007F80
00FF80
00FF80
00F000
00F000
00F000
01E000
01E000
01E000
01E000
01C000
03C000
03C000
03C000
03C000
078000
078000
078000
078000
078000
0F0000
0F0000
0F0000
0F0000
0F0000
1E0000
1E0000
1E0000
1E0000
1C0000
3C0000
3C0000
3C0000
3C0000
380000
780000
780000
780000
7F8000
7F8000
FF8000
ENDCHAR
STARTCHAR 005C
ENCODING 92
SWIDTH 270 0
DWIDTH 12 0
BBX 8 33 4 -1
BITMAP
E0
E0
E0
E0
70
70
70
70
70
70
38
38
38
38
38
38
3C
1C
1C
1C
1C
1C
1E
0E
0E
0E
0E
0E
0F
07
07
07
07
ENDCHAR
STARTCHAR 005D
ENCODING 93
SWIDTH 270 0
DWIDTH 12 0
BBX 18 41 -3 -9
BITMAP
007FC0
007F80
00FF80
000780
000780
000700
000F00
000F00
000F00
000F00
001E00
001E00
001E00
001E00
001E00
003C00
003C00
003C00
003C00
003C00
007800
007800
007800
007800
007000
00F000
00F000
00F000
00F000
00E000
01E000
01E000
01E000
01E000
03C000
03C000
03C000
03C000
7FC000
7F8000
FF8000
ENDCHAR
STARTCHAR 005E
ENCODING 94
SWIDTH 472 0
DWIDTH 21 0
BBX 18 17 3 15
BITMAP
01E000
01F000
01F000
03F800
03B800
07BC00
073C00
0F1C00
0F1E00
1E0E00
1E0F00
1C0F00
3C0780
3C0780
7803C0
7803C0
F003C0
ENDCHAR
STARTCHAR 005F
ENCODING 95
SWIDTH 562 0
DWIDTH 25 0
BBX 26 3 -3 -9
BITMAP
FFFFFFC0
FFFFFFC0
FFFFFFC0
ENDCHAR
STARTCHAR 0060
ENCODING 96
SWIDTH 337 0
DWIDTH 15 0
BBX 6 6 7 26
BITMAP
F0
F8
78
3C
3C
1C
ENDCHAR
STARTCHAR 0061
ENCODING 97
SWIDTH 562 0
DWIDTH 25 0
BBX 21 24 2 -1
BITMAP
000C00
01FFC0
03FFF0
07FFF8
0F80F8
1F0078
1E0078
3C0078
000078
000078
003FF8
0FFFF8
1FFFF0
3F80F0
7C00F0
F800F0
F001F0
F001E0
F003E0
F007E0
F80FE0
7FFFE0
3FF9E0
1FF1E0
ENDCHAR
STARTCHAR 0062
ENCODING 98
SWIDTH 562 0
DWIDTH 25 0
BBX 22 33 2 -1
BITMAP
03C000
03C000
03C000
078000
078000
078000
078000
078000
0F0200
0F3FC0
0F7FE0
0FFFF0
0FC0F8
1F8078
1F0078
1E003C
1E003C
3C003C
3C003C
3C003C
3C003C
380078
780078
780078
7800F8
7C00F0
7C01F0
FC03E0
FF07C0
E7FF80
E3FF00
E1FC00
002000
ENDCHAR
STARTCHAR 0063
ENCODING 99
SWIDTH 495 0
DWIDTH 22 0
BBX 21 25 2 -1
BITMAP
000C00
00FF80
03FFE0
07FFE0
0F81F0
1F00F0
1E0078
3C0078
3C0000
7C0000
780000
780000
780000
780000
780000
F00000
7801E0
7801E0
7803C0
7807C0
3C0F80
3FFF00
1FFE00
07F800
008000
ENDCHAR
STARTCHAR 0064
ENCODING 100
SWIDTH 562 0
DWIDTH 25 0
BBX 25 32 2 -1
BITMAP
00000780
00000F00
00000F00
00000F00
00000F00
00000E00
00001E00
00001E00
00101E00
00FE1E00
03FF9C00
07FFBC00
0F81FC00
1F00FC00
1E00FC00
3C007800
3C007800
78007800
78007800
78007800
70007000
F000F000
F000F000
F000F000
F001F000
F801E000
7803E000
7807E000
7C0FE000
3FFDC000
1FF9C000
0FF3C000
ENDCHAR
STARTCHAR 0065
ENCODING 101
SWIDTH 562 0
DWIDTH 25 0
BBX 22 25 2 -1
BITMAP
000800
00FF80
03FFE0
07FFF0
0F80F0
1F0078
1E0078
3C0038
3C003C
78003C
7FFFFC
7FFFFC
7FFFF8
F00000
F00000
F00000
F000F0
7800F0
7801E0
7C03E0
3E07C0
3FFF80
1FFF00
07FC00
004000
ENDCHAR
STARTCHAR 0066
ENCODING 102
SWIDTH 270 0
DWIDTH 12 0
BBX 16 32 2 0
BITMAP
00FF
01FF
03FF
03E2
03C0
03C0
0780
0780
0780
7FF8
7FF8
7FF8
0F00
0F00
0F00
1E00
1E00
1E00
1E00
1E00
3C00
3C00
3C00
3C00
3C00
7800
7800
7800
7800
7000
F000
F000
ENDCHAR
STARTCHAR 0067
ENCODING 103
SWIDTH 562 0
DWIDTH 25 0
BBX 24 33 1 -9
BITMAP
000800
007F8F
01FFCF
03FFEF
07C0FE
0F807E
1F003E
1E003E
3C003E
3C003C
3C003C
7C003C
78003C
780038
780078
780078
780078
3C00F8
3C01F0
3E03F0
1F8FF0
0FFEF0
07FCF0
01F1E0
0001E0
0001E0
F001E0
F003C0
F807C0
7C0F80
7FFF00
3FFE00
0FF800
ENDCHAR
STARTCHAR 0068
ENCODING 104
SWIDTH 562 0
DWIDTH 25 0
BBX 21 32 2 0
BITMAP
03C000
03C000
03C000
078000
078000
078000
078000
078000
0F0100
0F1FE0
0F3FF0
0F7FF8
0FE078
1F8078
1F0038
1F0078
1E0078
3E0078
3C0078
3C0078
3C00F0
3C00F0
7800F0
7800F0
7800F0
7801E0
7801E0
F001E0
F001E0
F001C0
F003C0
F003C0
ENDCHAR
STARTCHAR 0069
ENCODING 105
SWIDTH 225 0
DWIDTH 10 0
BBX 11 32 1 0
BITMAP
01E0
01E0
03C0
03C0
03C0
0000
0000
0000
0000
0780
0780
0780
0F00
0F00
0F00
0F00
0E00
1E00
1E00
1E00
1E00
1C00
3C00
3C00
3C00
3C00
7800
7800
7800
7800
7800
F000
ENDCHAR
STARTCHAR 006A
ENCODING 106
SWIDTH 225 0
DWIDTH 10 0
BBX 17 41 -5 -9
BITMAP
000780
000780
000F00
000F00
000F00
000000
000000
000000
000000
001E00
001E00
001C00
003C00
003C00
003C00
003C00
003800
007800
007800
007800
007800
00F000
00F000
00F000
00F000
00F000
01E000
01E000
01E000
01E000
01E000
03C000
03C000
03C000
03C000
078000
078000
8F8000
FF0000
FF0000
FC0000
ENDCHAR
STARTCHAR 006B
ENCODING 107
SWIDTH 495 0
DWIDTH 22 0
BBX 22 32 2 0
BITMAP
03C000
03C000
03C000
078000
078000
078000
078000
078000
0F0000
0F007C
0F00F8
0F01F0
0F03E0
1E0780
1E0F00
1E1E00
1E3C00
1CF800
3DF800
3FFC00
3FBC00
3F3C00
3E1E00
7C1E00
781F00
780F00
780F00
F00780
F00780
F007C0
F003C0
F003E0
ENDCHAR
STARTCHAR 006C
ENCODING 108
SWIDTH 225 0
DWIDTH 10 0
BBX 11 32 1 0
BITMAP
01E0
01C0
03C0
03C0
03C0
03C0
0780
0780
0780
0780
0780
0F00
0F00
0F00
0F00
0F00
1E00
1E00
1E00
1E00
1E00
3C00
3C00
3C00
3C00
3800
7800
7800
7800
7800
F000
F000
ENDCHAR
STARTCHAR 006D
ENCODING 109
SWIDTH 832 0
DWIDTH 37 0
BBX 34 24 2 0
BITMAP
0001000800
0F1FE0FF00
0F3FF1FF80
0F7FF3FFC0
0EE0FF03C0
1F80FE03C0
1F007C03C0
1F00F803C0
1E00F803C0
3E00F003C0
3C00F00780
3C00F00780
3C01E00780
3C01E00780
7801E00700
7801E00F00
7801C00F00
7803C00F00
7803C00F00
F003C01E00
F003C01E00
F007801E00
F007801E00
E007801E00
ENDCHAR
STARTCHAR 006E
ENCODING 110
SWIDTH 562 0
DWIDTH 25 0
BBX 21 24 2 0
BITMAP
000100
0F1FE0
0F3FF0
0E7FF8
0EE078
1F8078
1F0038
1F0078
1E0078
1E0078
3C0078
3C0078
3C00F0
3C00F0
7800F0
7800F0
7800F0
7801E0
7801E0
F001E0
F001E0
F001C0
F003C0
F003C0
ENDCHAR
STARTCHAR 006F
ENCODING 111
SWIDTH 562 0
DWIDTH 25 0
BBX 22 25 2 -1
BITMAP
000C00
00FF80
03FFE0
07F7F0
0F80F8
1F0078
3E007C
3C003C
7C003C
78003C
78003C
78003C
F0003C
F0003C
F00078
F00078
F00078
F000F0
7801F0
7803E0
3C07C0
3FFF80
1FFF00
07FC00
004000
ENDCHAR
STARTCHAR 0070
ENCODING 112
SWIDTH 562 0
DWIDTH 25 0
BBX 24 33 0 -9
BITMAP
000080
03CFF0
03DFF8
03BFFC
07F03E
07E01E
07C01E
07800F
07800F
0F000F
0F000F
0F000F
0F000F
0E001E
1E001E
1E001E
1E003C
1F003C
1F007C
3F00F8
3FC1F0
3DFFE0
3CFFC0
787F00
780800
780000
780000
780000
F00000
F00000
F00000
F00000
F00000
ENDCHAR
STARTCHAR 0071
ENCODING 113
SWIDTH 562 0
DWIDTH 25 0
BBX 22 33 2 -9
BITMAP
001000
01FE1C
03FF9C
07FF9C
0F83FC
1F00FC
3E00F8
3C0078
3C0078
780078
780078
780070
F00070
F000F0
F000F0
F000F0
F001E0
F801E0
7803E0
7807E0
7E0FC0
3FFFC0
1FFBC0
0FE3C0
0003C0
000380
000780
000780
000780
000780
000F00
000F00
000F00
ENDCHAR
STARTCHAR 0072
ENCODING 114
SWIDTH 337 0
DWIDTH 15 0
BBX 17 24 2 0
BITMAP
000400
0F1F80
0E7F00
0EFF00
0EE200
1FC000
1F8000
1F0000
1E0000
1E0000
3C0000
3C0000
3C0000
380000
780000
780000
780000
780000
700000
F00000
F00000
F00000
F00000
E00000
ENDCHAR
STARTCHAR 0073
ENCODING 115
SWIDTH 495 0
DWIDTH 22 0
BBX 20 25 2 -1
BITMAP
003000
01FF80
07FFC0
0FFFE0
0F01F0
1E00F0
1E00F0
1E00F0
1F0000
0FC000
0FF000
07FC00
01FF00
007F80
001FC0
0007C0
F003E0
F001E0
F001E0
F803C0
7C07C0
7FFF80
3FFF00
0FFC00
004000
ENDCHAR
STARTCHAR 0074
ENCODING 116
SWIDTH 270 0
DWIDTH 12 0
BBX 11 31 3 0
BITMAP
0080
0380
0780
0F00
0F00
0F00
0F00
0F00
FFE0
FFE0
FFE0
1E00
1C00
3C00
3C00
3C00
3C00
7800
7800
7800
7800
7800
F000
F000
F000
F000
F000
F000
FF00
FE00
7E00
ENDCHAR
STARTCHAR 0075
ENCODING 117
SWIDTH 562 0
DWIDTH 25 0
BBX 22 23 3 -1
BITMAP
1E003C
1E0038
1E0078
1C0078
3C0078
3C0078
3C00F0
3C00F0
7800F0
7800F0
7800F0
7801E0
7801E0
F001E0
F001E0
F003E0
F007C0
F007C0
F00FC0
F03FC0
FFFB80
7FE380
3FC780
ENDCHAR
STARTCHAR 0076
ENCODING 118
SWIDTH 495 0
DWIDTH 22 0
BBX 21 23 4 0
BITMAP
E000F8
F000F0
F001E0
F001E0
F003C0
F003C0
700780
780F80
780F00
781E00
781E00
783C00
383C00
387800
3C7800
3CF000
3CE000
3DE000
1DC000
1FC000
1F8000
1F0000
1F0000
ENDCHAR
STARTCHAR 0077
ENCODING 119
SWIDTH 720 0
DWIDTH 32 0
BBX 31 23 3 0
BITMAP
F003C01E
7007C01E
7007C03C
780FC03C
780FC078
781FE078
781DE070
783DE0F0
783DE0E0
7879E1E0
3879E1C0
3871E3C0
38F1E380
3CE0E780
3DE0E700
3DC0EF00
3DC0EE00
3F80EE00
3F80FC00
3F80FC00
1F00F800
1F00F800
1E00F800
ENDCHAR
STARTCHAR 0078
ENCODING 120
SWIDTH 495 0
DWIDTH 22 0
BBX 23 23 0 0
BITMAP
0F801E
07803E
07C07C
03C0F8
03E0F0
01E1E0
01F3C0
00F7C0
007F80
007F00
003E00
003C00
007E00
00FE00
01FF00
03EF00
03C780
078780
0F87C0
1F03C0
3E03E0
7C01E0
F801F0
ENDCHAR
STARTCHAR 0079
ENCODING 121
SWIDTH 495 0
DWIDTH 22 0
BBX 25 32 0 -9
BITMAP
0F000780
0F000F00
0F001E00
07001E00
07803C00
07803C00
07807800
07807800
0780F000
0380F000
0381E000
03C3C000
03C3C000
03C78000
03C78000
01CF0000
01CF0000
01DE0000
01FC0000
01FC0000
01F80000
00F80000
00F00000
00F00000
01E00000
01E00000
03C00000
07800000
DF800000
FF000000
FE000000
FC000000
ENDCHAR
STARTCHAR 007A
ENCODING 122
SWIDTH 495 0
DWIDTH 22 0
BBX 22 23 1 0
BITMAP
0FFFFC
0FFFF8
1FFFF8
0001F0
0003E0
0007E0
000FC0
000F80
001F00
003E00
007C00
00F800
01F000
03E000
07C000
0FC000
0F8000
1F0000
3E0000
7C0000
FFFFE0
FFFFE0
FFFFE0
ENDCHAR
STARTCHAR 007B
ENCODING 123
SWIDTH 337 0
DWIDTH 15 0
BBX 18 41 2 -9
BITMAP
000FC0
001F80
003F80
007C00
007800
007000
00F000
00F000
00E000
00E000
01E000
01E000
01E000
01C000
03C000
03C000
078000
0F0000
1F0000
7C0000
700000
FC0000
3E0000
1E0000
0E0000
0E0000
0E0000
0E0000
1E0000
1E0000
1E0000
1E0000
1C0000
3C0000
3C0000
3C0000
3C0000
3C0000
3F8000
1F8000
0F8000
ENDCHAR
STARTCHAR 007C
ENCODING 124
SWIDTH 270 0
DWIDTH 12 0
BBX 3 41 4 -9
BITMAP
E0
E0
E0
E0
E0
E0
E0
E0
E0
E0
E0
E0
E0
E0
E0
E0
E0
E0
E0
E0
E0
E0
E0
E0
E0
E0
E0
E0
E0
E0
E0
E0
E0
E0
E0
E0
E0
E0
E0
E0
E0
ENDCHAR
STARTCHAR 007D
ENCODING 125
SWIDTH 337 0
DWIDTH 15 0
BBX 18 41 -4 -9
BITMAP
007E00
007E00
007F00
001F00
000F00
000F00
000F00
000F00
000E00
000E00
001E00
001E00
001E00
001C00
001C00
001C00
001E00
001E00
001F00
000FC0
000380
000F80
001E00
003C00
007800
007000
00F000
00E000
00E000
01E000
01E000
01C000
01C000
03C000
03C000
038000
078000
0F8000
7F0000
7E0000
FC0000
ENDCHAR
STARTCHAR 007E
ENCODING 126
SWIDTH 585 0
DWIDTH 26 0
BBX 22 7 4 12
BITMAP
3F8004
7FF00C
FFFC3C
FFFFFC
E0FFFC
803FF0
0007C0
ENDCHAR
STARTCHAR 00A0
ENCODING 160
SWIDTH 270 0
DWIDTH 12 0
BBX 0 0 0 0
BITMAP
ENDCHAR
STARTCHAR 00A1
ENCODING 161
SWIDTH 337 0
DWIDTH 15 0
BBX 10 32 3 -9
BITMAP
03C0
03C0
03C0
07C0
0000
0000
0000
0000
0700
0700
0700
0700
0E00
0E00
0E00
0E00
1E00
1E00
1E00
3C00
3C00
3C00
3C00
7C00
7C00
7C00
7800
F800
F800
F800
F800
F000
ENDCHAR
STARTCHAR 00A2
ENCODING 162
SWIDTH 562 0
DWIDTH 25 0
BBX 21 41 3 -9
BITMAP
000060
000060
0000E0
0000E0
0001C0
0001C0
000180
000380
000B80
00FF80
03FFC0
07FFE0
0F8FF0
1F0CF0
1E1CF0
3C1C78
3C3800
783800
783000
787000
787000
F0E000
F0E000
F0C000
F1C1E0
79C3E0
7B83C0
7B87C0
7F0F80
3FFF00
1FFE00
0FF800
0E8000
1C0000
1C0000
180000
380000
380000
700000
700000
200000
ENDCHAR
STARTCHAR 00A3
ENCODING 163
SWIDTH 562 0
DWIDTH 25 0
BBX 26 33 1 -1
BITMAP
000FF800
001FFE00
007FFF00
00FC1F80
00F80780
01F00380
01E003C0
03E003C0
03C00000
03C00000
03C00000
03C00000
03C00000
01E00000
01E00000
1FFF8000
3FFF8000
3FFF0000
01E00000
01E00000
01E00000
01E00000
03C00000
03C00000
07800000
0F000000
1E000000
3FE00000
7FFE3C00
FFFFFC00
7E7FFC00
600FF800
00008000
ENDCHAR
STARTCHAR 00A4
ENCODING 164
SWIDTH 562 0
DWIDTH 25 0
BBX 21 21 4 5
BITMAP
600060
F1F8F0
FFFFF8
7FFFF0
3FFFE0
3E07C0
3C03E0
7801E0
7800E0
7800E0
7800E0
7800E0
7801E0
3C01E0
3E03C0
3F0FC0
7FFFE0
FFFFF0
F3FCF8
600070
000020
ENDCHAR
STARTCHAR 00A5
ENCODING 165
SWIDTH 562 0
DWIDTH 25 0
BBX 27 32 2 0
BITMAP
1E0001E0
0F0003E0
0F0007C0
0F000F80
07800F00
07801F00
07803E00
03C07C00
03C07800
01C0F800
01E1F000
01E1E000
00F3C000
00F7C000
00778000
007F0000
7FFFFE00
7FFFFE00
7FFFFE00
003C0000
00780000
00780000
FFFFFC00
FFFFFC00
FFFFF800
00F00000
00F00000
00F00000
00F00000
00E00000
01E00000
01E00000
ENDCHAR
STARTCHAR 00A6
ENCODING 166
SWIDTH 270 0
DWIDTH 12 0
BBX 3 41 4 -9
BITMAP
E0
E0
E0
E0
E0
E0
E0
E0
E0
E0
E0
E0
E0
E0
E0
E0
E0
00
00
00
00
00
00
00
E0
E0
E0
E0
E0
E0
E0
E0
E0
E0
E0
E0
E0
E0
E0
E0
E0
ENDCHAR
STARTCHAR 00A7
ENCODING 167
SWIDTH 562 0
DWIDTH 25 0
BBX 24 41 1 -9
BITMAP
001FF0
007FF8
00FFFC
00F03E
01E01E
01E01E
01C00F
01E000
01E000
01F000
00F800
00FC00
03FE00
07BF00
0F1F80
1E07C0
1C03E0
3C01F8
3C00F8
3C007C
1E003C
1F001C
1F801C
0FC01C
07E03C
03F078
00FCF8
007FE0
003FC0
001F80
000780
0003C0
0003C0
3001E0
F001E0
7801E0
7C03C0
3E07C0
1FFF80
0FFF00
07FC00
ENDCHAR
STARTCHAR 00A8
ENCODING 168
SWIDTH 337 0
DWIDTH 15 0
BBX 13 4 5 27
BITMAP
7878
7878
7878
F0F0
ENDCHAR
STARTCHAR 00A9
ENCODING 169
SWIDTH 742 0
DWIDTH 33 0
BBX 33 32 2 0
BITMAP
001FF80000
007FFF0000
01FE7FC000
03E003E000
078001F000
0E00007800
1C00003C00
3807F01C00
381FFC0E00
703E3E0E00
70780E0700
E070070700
E0E0040700
E0E0000300
E0E0000380
E0E0000380
E0E0000380
E0E0000300
E0E0000300
E0E0070700
E0F0070700
70700E0700
703C3E0E00
381FFC0E00
380FF01C00
1C00003C00
0E00007800
0F8000F000
07E003E000
01FE3FC000
007FFF0000
001FF80000
ENDCHAR
STARTCHAR 00AA
ENCODING 170
SWIDTH 360 0
DWIDTH 16 0
BBX 14 16 4 16
BITMAP
0FF0
1FF8
3E7C
781C
301C
001C
03FC
3FFC
7FF8
F038
E038
E078
E0F0
FFF0
7FB8
3E38
ENDCHAR
STARTCHAR 00AB
ENCODING 171
SWIDTH 562 0
DWIDTH 25 0
BBX 19 19 4 2
BITMAP
01E0E0
01C1C0
0383C0
070780
0F0F00
1E1E00
3C3E00
787C00
F07800
F0F000
F07000
707800
787800
783C00
383C00
3C1C00
1C1E00
1C0E00
0E0E00
ENDCHAR
STARTCHAR 00AC
ENCODING 172
SWIDTH 585 0
DWIDTH 26 0
BBX 21 13 4 9
BITMAP
FFFFF8
FFFFF8
FFFFF8
000078
000078
000078
000078
000078
000078
000078
000078
000078
000078
ENDCHAR
STARTCHAR 00AD
ENCODING 173
SWIDTH 337 0
DWIDTH 15 0
BBX 13 3 2 10
BITMAP
7FF8
FFF0
FFF0
ENDCHAR
STARTCHAR 00AE
ENCODING 174
SWIDTH 742 0
DWIDTH 33 0
BBX 33 32 2 0
BITMAP
001FF80000
007FFF0000
01FE7FC000
03E003E000
078001F000
0E00007800
1C00003C00
387E001C00
387FF80E00
707FFC0E00
70701C0700
E0701E0700
E0700E0700
E0701C0300
E0701C0380
E07FF80380
E07FF00380
E07FC00300
E070E00300
E070700700
E070380700
70703C0700
70701C0E00
38701E0E00
38700E1C00
1C00003C00
0E00007800
0F8000F000
07E003E000
01FE3FC000
007FFF0000
001FF80000
ENDCHAR
STARTCHAR 00AF
ENCODING 175
SWIDTH 562 0
DWIDTH 25 0
BBX 26 3 4 34
BITMAP
FFFFFFC0
FFFFFFC0
FFFFFFC0
ENDCHAR
STARTCHAR 00B0
ENCODING 176
SWIDTH 405 0
DWIDTH 18 0
BBX 12 12 6 20
BITMAP
1F80
3FC0
70E0
E070
C070
C030
C030
E070
70E0
7FE0
3FC0
0600
ENDCHAR
STARTCHAR 00B1
ENCODING 177
SWIDTH 540 0
DWIDTH 24 0
BBX 21 27 3 0
BITMAP
00F000
00F000
00F000
00F000
00F000
00F000
00F000
00F000
00F000
FFFFF8
FFFFF8
FFFFF8
FFFFF8
00F000
00F000
00F000
00F000
00F000
00F000
00F000
00F000
000000
000000
FFFFF8
FFFFF8
FFFFF8
FFFFF8
ENDCHAR
STARTCHAR 00B2
ENCODING 178
SWIDTH 337 0
DWIDTH 15 0
BBX 15 16 3 16
BITMAP
07F0
0FFC
1F7C
3C1E
380E
001E
003C
007C
01F0
03E0
0F80
1F00
3C00
3FFC
7FF8
FFF8
ENDCHAR
STARTCHAR 00B3
ENCODING 179
SWIDTH 337 0
DWIDTH 15 0
BBX 14 16 4 16
BITMAP
0FE0
1FF8
3C78
783C
003C
0038
00F8
03E0
03E0
0070
0078
0038
E078
F8F0
7FF0
3FC0
ENDCHAR
STARTCHAR 00B4
ENCODING 180
SWIDTH 337 0
DWIDTH 15 0
BBX 8 6 8 26
BITMAP
1F
1E
3C
78
70
E0
ENDCHAR
STARTCHAR 00B5
ENCODING 181
SWIDTH 585 0
DWIDTH 26 0
BBX 25 32 0 -9
BITMAP
01E00780
01E00780
03C00780
03C00780
03C00700
03C00F00
03800F00
07800F00
07800F00
07800E00
07801E00
07001E00
0F001E00
0F001E00
0F003C00
0F003C00
0F003C00
1F007C00
1F00F800
1F81F800
1FFFF800
3DFFF800
3CFE7800
3C100000
3C000000
38000000
78000000
78000000
78000000
78000000
70000000
F0000000
ENDCHAR
STARTCHAR 00B6
ENCODING 182
SWIDTH 540 0
DWIDTH 24 0
BBX 24 41 3 -9
BITMAP
01FFFF
0FFFFF
1FFFFF
3FFFFF
7FF078
7FF078
FFF078
FFF078
FFF078
FFF078
FFF078
FFF078
7FF078
7FF078
3FF078
3FF078
0FF078
07F078
007078
007078
007078
007078
007078
007078
007078
007078
007078
007078
007078
007078
007078
007078
007078
007078
007078
007078
007078
007078
007078
007078
007078
ENDCHAR
STARTCHAR 00B7
ENCODING 183
SWIDTH 270 0
DWIDTH 12 0
BBX 4 5 4 13
BITMAP
F0
F0
F0
F0
F0
ENDCHAR
STARTCHAR 00B8
ENCODING 184
SWIDTH 337 0
DWIDTH 15 0
BBX 11 9 2 -9
BITMAP
0E00
0E00
0F80
07C0
01E0
01E0
0FE0
FFC0
FF00
ENDCHAR
STARTCHAR 00B9
ENCODING 185
SWIDTH 337 0
DWIDTH 15 0
BBX 10 16 6 16
BITMAP
01C0
0380
0F80
3F80
7F80
F780
8700
0700
0700
0F00
0F00
0E00
0E00
0E00
1E00
1C00
ENDCHAR
STARTCHAR 00BA
ENCODING 186
SWIDTH 360 0
DWIDTH 16 0
BBX 15 16 3 16
BITMAP
07F0
1FF8
3FFC
3C1E
780E
700E
F00E
E00E
E00E
E01E
E01C
F03C
7878
7FF8
3FF0
0FC0
ENDCHAR
STARTCHAR 00BB
ENCODING 187
SWIDTH 562 0
DWIDTH 25 0
BBX 20 19 2 2
BITMAP
070700
070380
078380
0383C0
03C3C0
03C1C0
01C1E0
01E1E0
01E0F0
00F0F0
01F0F0
03E1E0
07C3C0
078780
0F0F00
1E0E00
3C1C00
783800
F07800
ENDCHAR
STARTCHAR 00BC
ENCODING 188
SWIDTH 832 0
DWIDTH 37 0
BBX 33 33 4 -1
BITMAP
0070000780
00E0000F00
03E0001E00
0FE0001C00
1FE0003800
3DE0007000
21C000F000
01C001E000
01C003C000
03C0078000
03C00F0000
03801E0000
03803C0000
0380380000
0780700000
0700E00000
0001C00700
0003C00F00
0007801F00
000F003E00
001E007E00
003C00FE00
007801EE00
007003CE00
00E0079C00
01C00F1C00
03801C1C00
07803FFF00
0F003FFF00
1E00003800
3C00003800
7800003800
F000003800
ENDCHAR
STARTCHAR 00BD
ENCODING 189
SWIDTH 832 0
DWIDTH 37 0
BBX 34 33 3 -1
BITMAP
0038000780
0070000F00
01F0001E00
07F0003C00
0FF0003800
1EF0007000
10E000F000
00E001E000
00E003C000
01E0078000
01E00F0000
01C01E0000
01C03C0000
01C0780000
03C0700000
0380E00000
0001C01000
0003C1FF00
000783FF80
000F07C780
001E0783C0
003C0103C0
0078000380
00F0000780
00E0001F00
01C0007E00
038000F800
070001F000
0F0003C000
1E00078000
3C000FFF00
78000FFF00
F0001FFF00
ENDCHAR
STARTCHAR 00BE
ENCODING 190
SWIDTH 832 0
DWIDTH 37 0
BBX 34 33 4 -1
BITMAP
0FE00003C0
1FF8000780
3C78000F00
783C001E00
003C003C00
0038007800
00F800F000
03E000E000
03E001C000
007003C000
0078078000
00380F0000
E0781E0000
F8F03C0000
7FF0780000
3FC0F00000
0001E00700
0001C00F00
0003801F00
0007003E00
000F007E00
001E00FE00
003C01EE00
007803CE00
00F0079C00
01E00F1C00
03C01C1C00
03803FFF00
07003FFF00
0E00003800
1C00003800
3C00003800
7800003800
ENDCHAR
STARTCHAR 00BF
ENCODING 191
SWIDTH 607 0
DWIDTH 27 0
BBX 19 32 4 -9
BITMAP
000780
000F80
000F80
000F80
000000
000000
000000
000000
000E00
001E00
001E00
003C00
003C00
00F800
01F000
03E000
07C000
0F8000
1F0000
3E0000
7C0000
F80000
F00100
F001E0
F001E0
F003C0
F003C0
F80780
7C0F80
3FFF00
1FFE00
07F800
ENDCHAR
STARTCHAR 00C0
ENCODING 192
SWIDTH 675 0
DWIDTH 30 0
BBX 28 40 -1 0
BITMAP
00003E00
00001F00
00000F00
00000700
00000780
00000380
00000000
00000000
00003E00
00007E00
00007F00
0000FF00
0000FF00
0001EF00
0001EF00
0003CF00
0007C780
00078780
000F8780
000F0780
001F0780
001E0780
003E07C0
007C03C0
007803C0
00F803C0
00F003C0
01F003C0
01FFFFE0
03FFFFE0
07FFFFE0
078001E0
0F8001E0
0F0001E0
1F0001F0
1E0000F0
3E0000F0
3C0000F0
7C0000F0
F80000F0
ENDCHAR
STARTCHAR 00C1
ENCODING 193
SWIDTH 675 0
DWIDTH 30 0
BBX 28 40 -1 0
BITMAP
000003E0
000007C0
00000780
00000F00
00001E00
00001C00
00000000
00000000
00003E00
00007E00
00007F00
0000FF00
0000FF00
0001EF00
0001EF00
0003CF00
0007C780
00078780
000F8780
000F0780
001F0780
001E0780
003E07C0
007C03C0
007803C0
00F803C0
00F003C0
01F003C0
01FFFFE0
03FFFFE0
07FFFFE0
078001E0
0F8001E0
0F0001E0
1F0001F0
1E0000F0
3E0000F0
3C0000F0
7C0000F0
F80000F0
ENDCHAR
STARTCHAR 00C2
ENCODING 194
SWIDTH 675 0
DWIDTH 30 0
BBX 28 40 -1 0
BITMAP
00001F00
00003F80
00003B80
00007380
0000F3C0
0001E1C0
00020000
00000000
00003E00
00007E00
00007F00
0000FF00
0000FF00
0001EF00
0001EF00
0003CF00
0007C780
00078780
000F8780
000F0780
001F0780
001E0780
003E07C0
007C03C0
007803C0
00F803C0
00F003C0
01F003C0
01FFFFE0
03FFFFE0
07FFFFE0
078001E0
0F8001E0
0F0001E0
1F0001F0
1E0000F0
3E0000F0
3C0000F0
7C0000F0
F80000F0
ENDCHAR
STARTCHAR 00C3
ENCODING 195
SWIDTH 675 0
DWIDTH 30 0
BBX 28 38 -1 1
BITMAP
0001FC70
0001FFF0
0003FFE0
000387C0
00000000
00000000
00003E00
00007E00
00007F00
0000FF00
0000FF00
0001EF00
0001EF00
0003CF00
0007C780
00078780
000F8780
000F0780
001F0780
001E0780
003E07C0
007C03C0
007803C0
00F803C0
00F003C0
01F003C0
01FFFFE0
03FFFFE0
07FFFFE0
078001E0
0F8001E0
0F0001E0
1F0001F0
1E0000F0
3E0000F0
3C0000F0
7C0000F0
F80000F0
ENDCHAR
STARTCHAR 00C4
ENCODING 196
SWIDTH 675 0
DWIDTH 30 0
BBX 28 38 -1 0
BITMAP
0001E1E0
0001E1E0
0001E1E0
0001E1E0
00000000
00000000
00003E00
00007E00
00007F00
0000FF00
0000FF00
0001EF00
0001EF00
0003CF00
0007C780
00078780
000F8780
000F0780
001F0780
001E0780
003E07C0
007C03C0
007803C0
00F803C0
00F003C0
01F003C0
01FFFFE0
03FFFFE0
07FFFFE0
078001E0
0F8001E0
0F0001E0
1F0001F0
1E0000F0
3E0000F0
3C0000F0
7C0000F0
F80000F0
ENDCHAR
STARTCHAR 00C5
ENCODING 197
SWIDTH 675 0
DWIDTH 30 0
BBX 28 38 -1 0
BITMAP
00001F00
00003380
00006180
00006080
00006180
00003180
00003F00
00007E00
00007F00
0000FF00
0000FF00
0001EF00
0001EF00
0003CF00
0007C780
00078780
000F8780
000F0780
001F0780
001E0780
003E07C0
007C03C0
007803C0
00F803C0
00F003C0
01F003C0
01FFFFE0
03FFFFE0
07FFFFE0
078001E0
0F8001E0
0F0001E0
1F0001F0
1E0000F0
3E0000F0
3C0000F0
7C0000F0
F80000F0
ENDCHAR
STARTCHAR 00C6
ENCODING 198
SWIDTH 990 0
DWIDTH 44 0
BBX 48 32 -2 0
BITMAP
00000FFFFFFF
00001FFFFFFF
00003FFFFFFF
00003FFFFFFF
00007C1E0000
0000F83E0000
0000F83E0000
0001F03C0000
0001E03C0000
0003E03C0000
0007C07C0000
0007807C0000
000F80780000
000F00780000
001F00FFFFFC
003E00FFFFF8
003C00FFFFF8
007C00F00000
00F800F00000
00FFFFF00000
01FFFFF00000
01FFFFF00000
03FFFFE00000
07C001E00000
07C003E00000
0F8003E00000
0F0003C00000
1F0003C00000
3E0003FFFFF0
3E0007FFFFF0
7C0007FFFFF0
F80007FFFFF0
ENDCHAR
STARTCHAR 00C7
ENCODING 199
SWIDTH 720 0
DWIDTH 32 0
BBX 28 41 4 -9
BITMAP
001FFC00
007FFF00
00FFFF80
03FC1FC0
07E007E0
07C003E0
0F8001F0
1F0000F0
3E0000F0
3E0000F0
3C000000
7C000000
78000000
78000000
F8000000
F8000000
F0000000
F0000000
F0000000
F0000000
F0000000
F00001E0
F80003E0
780003C0
780007C0
7C000F80
3E001F00
3F003F00
1FC0FE00
0FFFF800
07FFF000
01FFC000
00780000
00E00000
00F80000
007E0000
001E0000
001E0000
007E0000
0FFE0000
0FF80000
ENDCHAR
STARTCHAR 00C8
ENCODING 200
SWIDTH 675 0
DWIDTH 30 0
BBX 30 40 2 0
BITMAP
0000F800
00007800
00003C00
00003C00
00001E00
00000E00
00000000
00000000
01FFFFFC
03FFFFF8
03FFFFF8
03FFFFF8
03C00000
03C00000
07C00000
07800000
07800000
07800000
0F800000
0F800000
0F000000
0F000000
0FFFFFC0
1FFFFFC0
1FFFFFC0
1E000000
1E000000
1E000000
3E000000
3C000000
3C000000
3C000000
3C000000
7C000000
78000000
78000000
7FFFFF80
7FFFFF80
FFFFFF80
FFFFFF00
ENDCHAR
STARTCHAR 00C9
ENCODING 201
SWIDTH 675 0
DWIDTH 30 0
BBX 30 40 2 0
BITMAP
00003E00
00007C00
00007800
0000F000
0001E000
0001C000
00000000
00000000
01FFFFFC
03FFFFF8
03FFFFF8
03FFFFF8
03C00000
03C00000
07C00000
07800000
07800000
07800000
0F800000
0F800000
0F000000
0F000000
0FFFFFC0
1FFFFFC0
1FFFFFC0
1E000000
1E000000
1E000000
3E000000
3C000000
3C000000
3C000000
3C000000
7C000000
78000000
78000000
7FFFFF80
7FFFFF80
FFFFFF80
FFFFFF00
ENDCHAR
STARTCHAR 00CA
ENCODING 202
SWIDTH 675 0
DWIDTH 30 0
BBX 30 40 2 0
BITMAP
00007800
0000FC00
0001FC00
0003DE00
00078E00
000F0F00
00000000
00000000
01FFFFFC
03FFFFF8
03FFFFF8
03FFFFF8
03C00000
03C00000
07C00000
07800000
07800000
07800000
0F800000
0F800000
0F000000
0F000000
0FFFFFC0
1FFFFFC0
1FFFFFC0
1E000000
1E000000
1E000000
3E000000
3C000000
3C000000
3C000000
3C000000
7C000000
78000000
78000000
7FFFFF80
7FFFFF80
FFFFFF80
FFFFFF00
ENDCHAR
STARTCHAR 00CB
ENCODING 203
SWIDTH 675 0
DWIDTH 30 0
BBX 30 38 2 0
BITMAP
00078780
00078780
00078780
000F8F80
00000000
00000000
01FFFFFC
03FFFFF8
03FFFFF8
03FFFFF8
03C00000
03C00000
07C00000
07800000
07800000
07800000
0F800000
0F800000
0F000000
0F000000
0FFFFFC0
1FFFFFC0
1FFFFFC0
1E000000
1E000000
1E000000
3E000000
3C000000
3C000000
3C000000
3C000000
7C000000
78000000
78000000
7FFFFF80
7FFFFF80
FFFFFF80
FFFFFF00
ENDCHAR
STARTCHAR 00CC
ENCODING 204
SWIDTH 270 0
DWIDTH 12 0
BBX 12 40 3 0
BITMAP
07C0
03C0
03E0
01E0
00E0
0070
0000
0000
03C0
03C0
03C0
07C0
07C0
0780
0780
0780
0F80
0F00
0F00
0F00
0F00
1F00
1E00
1E00
1E00
1E00
3E00
3C00
3C00
3C00
3C00
7C00
7800
7800
7800
F800
F800
F000
F000
F000
ENDCHAR
STARTCHAR 00CD
ENCODING 205
SWIDTH 270 0
DWIDTH 12 0
BBX 14 40 3 0
BITMAP
007C
0078
00F0
01E0
03C0
0380
0000
0000
03C0
03C0
03C0
07C0
07C0
0780
0780
0780
0F80
0F00
0F00
0F00
0F00
1F00
1E00
1E00
1E00
1E00
3E00
3C00
3C00
3C00
3C00
7C00
7800
7800
7800
F800
F800
F000
F000
F000
ENDCHAR
STARTCHAR 00CE
ENCODING 206
SWIDTH 270 0
DWIDTH 12 0
BBX 15 40 3 0
BITMAP
00F8
01F8
03F8
07BC
0F1C
1E1E
0000
0000
03C0
03C0
03C0
07C0
07C0
0780
0780
0780
0F80
0F00
0F00
0F00
0F00
1F00
1E00
1E00
1E00
1E00
3E00
3C00
3C00
3C00
3C00
7C00
7800
7800
7800
F800
F800
F000
F000
F000
ENDCHAR
STARTCHAR 00CF
ENCODING 207
SWIDTH 270 0
DWIDTH 12 0
BBX 15 38 3 0
BITMAP
1E1E
1E1E
1E1E
1E1E
0000
0000
03C0
03C0
03C0
07C0
07C0
0780
0780
0780
0F80
0F00
0F00
0F00
0F00
1F00
1E00
1E00
1E00
1E00
3E00
3C00
3C00
3C00
3C00
7C00
7800
7800
7800
F800
F800
F000
F000
F000
ENDCHAR
STARTCHAR 00D0
ENCODING 208
SWIDTH 720 0
DWIDTH 32 0
BBX 30 32 2 0
BITMAP
01FFF800
01FFFF00
01FFFFC0
03FFFFE0
03C007F0
03C001F0
03C000F8
03C00078
07C00078
0780007C
0780007C
0780003C
0F80003C
0F00003C
0F00003C
FFFF803C
FFFF807C
FFFF007C
1E000078
1E000078
1E0000F8
1E0000F0
3E0001F0
3C0001E0
3C0003E0
3C0007C0
7C001F80
7C007F00
7FFFFE00
7FFFFC00
7FFFF000
FFFF8000
ENDCHAR
STARTCHAR 00D1
ENCODING 209
SWIDTH 720 0
DWIDTH 32 0
BBX 32 39 2 0
BITMAP
00008000
0003F0E0
0007FFE0
0007FFC0
00060F80
00000000
00000000
01E0001F
01F0001E
03F0001E
03F0001E
03F8001E
03F8003E
03BC003C
07BC003C
079E003C
079E003C
078F0078
0F8F0078
0F0F8078
0F078078
0F0780F8
0F03C0F0
1F03C0F0
1E01E0F0
1E01E0F0
1E01F1F0
1E00F1E0
3E00F1E0
3C0079E0
3C0079E0
3C0039E0
3C003FC0
78003FC0
78001FC0
78001FC0
78000FC0
F8000F80
F0000780
ENDCHAR
STARTCHAR 00D2
ENCODING 210
SWIDTH 787 0
DWIDTH 35 0
BBX 30 41 4 -1
BITMAP
0001E000
0001F000
0000F000
00007800
00007800
00003800
00000000
00000000
000FFC00
007FFF00
00FFFFC0
01FC1FE0
07F003E0
0FC001F0
0F8000F8
1F000078
3E00007C
3E00007C
3C00003C
7C00003C
7800003C
7800003C
F800003C
F000003C
F000003C
F000003C
F000007C
F000007C
F0000078
F80000F8
780000F0
780001F0
7C0003E0
3C0003E0
3E000FC0
1F801F80
0FE07F00
07FFFE00
03FFF800
00FFE000
00040000
ENDCHAR
STARTCHAR 00D3
ENCODING 211
SWIDTH 787 0
DWIDTH 35 0
BBX 30 41 4 -1
BITMAP
00003E00
00007C00
0000F800
0000F000
0001E000
0003C000
00000000
00000000
000FFC00
007FFF00
00FFFFC0
01FC1FE0
07F003E0
0FC001F0
0F8000F8
1F000078
3E00007C
3E00007C
3C00003C
7C00003C
7800003C
7800003C
F800003C
F000003C
F000003C
F000003C
F000007C
F000007C
F0000078
F80000F8
780000F0
780001F0
7C0003E0
3C0003E0
3E000FC0
1F801F80
0FE07F00
07FFFE00
03FFF800
00FFE000
00040000
ENDCHAR
STARTCHAR 00D4
ENCODING 212
SWIDTH 787 0
DWIDTH 35 0
BBX 30 41 4 -1
BITMAP
0000F800
0001F800
0003FC00
00079C00
000F1C00
001E1E00
00000000
00000000
000FFC00
007FFF00
00FFFFC0
01FC1FE0
07F003E0
0FC001F0
0F8000F8
1F000078
3E00007C
3E00007C
3C00003C
7C00003C
7800003C
7800003C
F800003C
F000003C
F000003C
F000003C
F000007C
F000007C
F0000078
F80000F8
780000F0
780001F0
7C0003E0
3C0003E0
3E000FC0
1F801F80
0FE07F00
07FFFE00
03FFF800
00FFE000
00040000
ENDCHAR
STARTCHAR 00D5
ENCODING 213
SWIDTH 787 0
DWIDTH 35 0
BBX 30 40 4 -1
BITMAP
00020000
000FC300
001FFF00
003FFF00
00387E00
00000000
00000000
000FFC00
007FFF00
00FFFFC0
01FC1FE0
07F003E0
0FC001F0
0F8000F8
1F000078
3E00007C
3E00007C
3C00003C
7C00003C
7800003C
7800003C
F800003C
F000003C
F000003C
F000003C
F000007C
F000007C
F0000078
F80000F8
780000F0
780001F0
7C0003E0
3C0003E0
3E000FC0
1F801F80
0FE07F00
07FFFE00
03FFF800
00FFE000
00040000
ENDCHAR
STARTCHAR 00D6
ENCODING 214
SWIDTH 787 0
DWIDTH 35 0
BBX 30 39 4 -1
BITMAP
000F0F00
001F1F00
001E1E00
001E1E00
00000000
00000000
000FFC00
007FFF00
00FFFFC0
01FC1FE0
07F003E0
0FC001F0
0F8000F8
1F000078
3E00007C
3E00007C
3C00003C
7C00003C
7800003C
7800003C
F800003C
F000003C
F000003C
F000003C
F000007C
F000007C
F0000078
F80000F8
780000F0
780001F0
7C0003E0
3C0003E0
3E000FC0
1F801F80
0FE07F00
07FFFE00
03FFF800
00FFE000
00040000
ENDCHAR
STARTCHAR 00D7
ENCODING 215
SWIDTH 585 0
DWIDTH 26 0
BBX 19 19 6 6
BITMAP
200180
7003C0
F807E0
7C0FC0
3E1F80
1F3F00
0FFE00
07FC00
03F800
03F000
07F800
0FFC00
1FBE00
3F1F00
7E0F80
FC07C0
F803C0
700180
200000
ENDCHAR
STARTCHAR 00D8
ENCODING 216
SWIDTH 787 0
DWIDTH 35 0
BBX 30 36 4 -2
BITMAP
00000008
0000001C
000FFC1C
007FFF38
00FFFFF0
03FE1FE0
07F007E0
07C003F0
0F8007F8
1F000778
1E000E7C
3E001C7C
3C003C3C
7C00783C
7800F03C
7800E03C
F801C03C
F003803C
F007803C
F00F003C
F01E007C
F01C007C
F0380078
F87000F8
78F000F0
79E001F0
7FC003E0
3F8003E0
3F000FC0
1F801F80
1FE07F00
3FFFFE00
7BFFF800
70FFE000
E0040000
40000000
ENDCHAR
STARTCHAR 00D9
ENCODING 217
SWIDTH 720 0
DWIDTH 32 0
BBX 29 41 4 -1
BITMAP
0003E000
0001E000
0001E000
0000F000
00007000
00007800
00000000
00000000
07800078
07800078
0F800078
0F000078
0F0000F8
0F0000F0
1F0000F0
1F0000F0
1E0000F0
1E0001F0
1E0001E0
3E0001E0
3C0001E0
3C0003E0
3C0003E0
3C0003C0
7C0003C0
780003C0
780007C0
780007C0
78000780
F8000780
F8000F80
F8000F00
F8001F00
78001F00
7C003E00
7E007C00
3F01F800
1FFFF000
0FFFE000
03FF8000
00100000
ENDCHAR
STARTCHAR 00DA
ENCODING 218
SWIDTH 720 0
DWIDTH 32 0
BBX 29 41 4 -1
BITMAP
00007C00
00007800
0000F000
0001E000
0001C000
00038000
00000000
00000000
07800078
07800078
0F800078
0F000078
0F0000F8
0F0000F0
1F0000F0
1F0000F0
1E0000F0
1E0001F0
1E0001E0
3E0001E0
3C0001E0
3C0003E0
3C0003E0
3C0003C0
7C0003C0
780003C0
780007C0
780007C0
78000780
F8000780
F8000F80
F8000F00
F8001F00
78001F00
7C003E00
7E007C00
3F01F800
1FFFF000
0FFFE000
03FF8000
00100000
ENDCHAR
STARTCHAR 00DB
ENCODING 219
SWIDTH 720 0
DWIDTH 32 0
BBX 29 41 4 -1
BITMAP
0000F800
0001F800
0003FC00
00079C00
000F1E00
001E0E00
00000000
00000000
07800078
07800078
0F800078
0F000078
0F0000F8
0F0000F0
1F0000F0
1F0000F0
1E0000F0
1E0001F0
1E0001E0
3E0001E0
3C0001E0
3C0003E0
3C0003E0
3C0003C0
7C0003C0
780003C0
780007C0
780007C0
78000780
F8000780
F8000F80
F8000F00
F8001F00
78001F00
7C003E00
7E007C00
3F01F800
1FFFF000
0FFFE000
03FF8000
00100000
ENDCHAR
STARTCHAR 00DC
ENCODING 220
SWIDTH 720 0
DWIDTH 32 0
BBX 29 39 4 -1
BITMAP
000F0F00
000F0F00
000F0F00
001F1F00
00000000
00000000
07800078
07800078
0F800078
0F000078
0F0000F8
0F0000F0
1F0000F0
1F0000F0
1E0000F0
1E0001F0
1E0001E0
3E0001E0
3C0001E0
3C0003E0
3C0003E0
3C0003C0
7C0003C0
780003C0
780007C0
780007C0
78000780
F8000780
F8000F80
F8000F00
F8001F00
78001F00
7C003E00
7E007C00
3F01F800
1FFFF000
0FFFE000
03FF8000
00100000
ENDCHAR
STARTCHAR 00DD
ENCODING 221
SWIDTH 675 0
DWIDTH 30 0
BBX 29 40 5 0
BITMAP
0001F000
0001E000
0003C000
00078000
00070000
000E0000
00000000
00000000
F80000F8
780001F0
7C0003F0
3C0003E0
3E0007C0
1E000F80
1F001F80
0F003F00
0F803E00
07807C00
07C0F800
03C1F800
03E1F000
01E3E000
01F7C000
00F7C000
00FF8000
007F0000
007E0000
003E0000
003C0000
003C0000
007C0000
00780000
00780000
00780000
00780000
00F80000
00F00000
00F00000
00F00000
00F00000
ENDCHAR
STARTCHAR 00DE
ENCODING 222
SWIDTH 675 0
DWIDTH 30 0
BBX 28 32 2 0
BITMAP
01E00000
03E00000
03C00000
03C00000
03C00000
03C00000
07C00000
07FFFF00
07FFFF80
07FFFFC0
0F8007E0
0F8003E0
0F0001E0
0F0001F0
0F0001F0
1F0001F0
1E0001E0
1E0001E0
1E0003E0
1E0007C0
3E000FC0
3C003F80
3FFFFF00
3FFFFE00
3FFFF800
7FFC0000
78000000
78000000
78000000
F8000000
F0000000
F0000000
ENDCHAR
STARTCHAR 00DF
ENCODING 223
SWIDTH 607 0
DWIDTH 27 0
BBX 23 33 2 -1
BITMAP
001FE0
007FF8
00FFFC
01F03C
03E03C
03C03C
07803C
07803C
070078
0F00F0
0F01F0
0F01E0
0F03C0
1E03C0
1E0780
1E0780
1E0780
1E07C0
3C03E0
3C01F0
3C00F8
3C007C
3C003E
78001E
78001E
78001E
78601E
71E03E
F0F07C
F0FFF8
F07FF0
F01FE0
000200
ENDCHAR
STARTCHAR 00E0
ENCODING 224
SWIDTH 562 0
DWIDTH 25 0
BBX 21 32 2 -1
BITMAP
001E00
001F00
000F00
000780
000780
000380
000000
000000
000C00
01FFC0
03FFF0
07FFF8
0F80F8
1F0078
1E0078
3C0078
000078
000078
003FF8
0FFFF8
1FFFF0
3F80F0
7C00F0
F800F0
F001F0
F001E0
F003E0
F007E0
F80FE0
7FFFE0
3FF9E0
1FF1E0
ENDCHAR
STARTCHAR 00E1
ENCODING 225
SWIDTH 562 0
DWIDTH 25 0
BBX 21 32 2 -1
BITMAP
0003E0
0007C0
000780
000F00
001E00
003C00
000000
000000
000C00
01FFC0
03FFF0
07FFF8
0F80F8
1F0078
1E0078
3C0078
000078
000078
003FF8
0FFFF8
1FFFF0
3F80F0
7C00F0
F800F0
F001F0
F001E0
F003E0
F007E0
F80FE0
7FFFE0
3FF9E0
1FF1E0
ENDCHAR
STARTCHAR 00E2
ENCODING 226
SWIDTH 562 0
DWIDTH 25 0
BBX 21 32 2 -1
BITMAP
0007C0
000FC0
001FE0
003CE0
0078E0
00F0F0
000000
000000
000C00
01FFC0
03FFF0
07FFF8
0F80F8
1F0078
1E0078
3C0078
000078
000078
003FF8
0FFFF8
1FFFF0
3F80F0
7C00F0
F800F0
F001F0
F001E0
F003E0
F007E0
F80FE0
7FFFE0
3FF9E0
1FF1E0
ENDCHAR
STARTCHAR 00E3
ENCODING 227
SWIDTH 562 0
DWIDTH 25 0
BBX 22 31 2 -1
BITMAP
007E1C
00FFFC
00FFF8
00C3F0
000000
000000
000000
000C00
01FFC0
03FFF0
07FFF8
0F80F8
1F0078
1E0078
3C0078
000078
000078
003FF8
0FFFF8
1FFFF0
3F80F0
7C00F0
F800F0
F001F0
F001E0
F003E0
F007E0
F80FE0
7FFFE0
3FF9E0
1FF1E0
ENDCHAR
STARTCHAR 00E4
ENCODING 228
SWIDTH 562 0
DWIDTH 25 0
BBX 21 31 2 -1
BITMAP
00F8F8
00F0F0
00F0F0
00F0F0
000000
000000
000000
000C00
01FFC0
03FFF0
07FFF8
0F80F8
1F0078
1E0078
3C0078
000078
000078
003FF8
0FFFF8
1FFFF0
3F80F0
7C00F0
F800F0
F001F0
F001E0
F003E0
F007E0
F80FE0
7FFFE0
3FF9E0
1FF1E0
ENDCHAR
STARTCHAR 00E5
ENCODING 229
SWIDTH 562 0
DWIDTH 25 0
BBX 21 33 2 -1
BITMAP
000400
001F80
003180
0030C0
0020C0
0030C0
003980
001F00
000000
000C00
01FFC0
03FFF0
07FFF8
0F80F8
1F0078
1E0078
3C0078
000078
000078
003FF8
0FFFF8
1FFFF0
3F80F0
7C00F0
F800F0
F001F0
F001E0
F003E0
F007E0
F80FE0
7FFFE0
3FF9E0
1FF1E0
ENDCHAR
STARTCHAR 00E6
ENCODING 230
SWIDTH 900 0
DWIDTH 40 0
BBX 36 25 2 -1
BITMAP
000C001000
01FF81FF00
03FFE7FF80
07F7FFEFC0
0F80FF01E0
1E00FE00F0
1E007C00F0
3C00780070
0000780070
0000F00070
003FFFFFF0
0FFFFFFFF0
3FFFFFFFF0
7FC1E00000
7801E00000
F001E00000
F001E001C0
F003F001E0
F007F003C0
F007F80780
F81E7C1F80
7FFC7FFF00
3FF83FFE00
1FF00FF800
0100008000
ENDCHAR
STARTCHAR 00E7
ENCODING 231
SWIDTH 495 0
DWIDTH 22 0
BBX 21 33 2 -9
BITMAP
000C00
00FF80
03FFE0
07FFE0
0F81F0
1F00F0
1E0078
3C0078
3C0000
7C0000
780000
780000
780000
780000
780000
F00000
7801E0
7801E0
7803C0
7807C0
3C0F80
3FFF00
1FFE00
07F800
038000
03C000
03F000
007800
007800
007800
3FF800
3FF000
3F8000
ENDCHAR
STARTCHAR 00E8
ENCODING 232
SWIDTH 562 0
DWIDTH 25 0
BBX 22 33 2 -1
BITMAP
001E00
001F00
000F00
000780
000780
000380
000000
000000
000800
00FF80
03FFE0
07FFF0
0F80F0
1F0078
1E0078
3C0038
3C003C
78003C
7FFFFC
7FFFFC
7FFFF8
F00000
F00000
F00000
F000F0
7800F0
7801E0
7C03E0
3E07C0
3FFF80
1FFF00
07FC00
004000
ENDCHAR
STARTCHAR 00E9
ENCODING 233
SWIDTH 562 0
DWIDTH 25 0
BBX 22 33 2 -1
BITMAP
0003E0
0003C0
000780
000F00
000E00
001C00
000000
000000
000800
00FF80
03FFE0
07FFF0
0F80F0
1F0078
1E0078
3C0038
3C003C
78003C
7FFFFC
7FFFFC
7FFFF8
F00000
F00000
F00000
F000F0
7800F0
7801E0
7C03E0
3E07C0
3FFF80
1FFF00
07FC00
004000
ENDCHAR
STARTCHAR 00EA
ENCODING 234
SWIDTH 562 0
DWIDTH 25 0
BBX 22 33 2 -1
BITMAP
0007C0
000FC0
001FE0
003CE0
0078F0
00F070
000000
000000
000800
00FF80
03FFE0
07FFF0
0F80F0
1F0078
1E0078
3C0038
3C003C
78003C
7FFFFC
7FFFFC
7FFFF8
F00000
F00000
F00000
F000F0
7800F0
7801E0
7C03E0
3E07C0
3FFF80
1FFF00
07FC00
004000
ENDCHAR
STARTCHAR 00EB
ENCODING 235
SWIDTH 562 0
DWIDTH 25 0
BBX 22 32 2 -1
BITMAP
00F878
00F0F0
00F0F0
00F0F0
000000
000000
000000
000800
00FF80
03FFE0
07FFF0
0F80F0
1F0078
1E0078
3C0038
3C003C
78003C
7FFFFC
7FFFFC
7FFFF8
F00000
F00000
F00000
F000F0
7800F0
7801E0
7C03E0
3E07C0
3FFF80
1FFF00
07FC00
004000
ENDCHAR
STARTCHAR 00EC
ENCODING 236
SWIDTH 270 0
DWIDTH 12 0
BBX 10 32 3 0
BITMAP
0F00
0F80
0780
03C0
01C0
01C0
0000
0000
0000
0F00
0F00
0F00
0F00
0F00
1E00
1E00
1E00
1E00
1C00
3C00
3C00
3C00
3C00
7800
7800
7800
7800
7800
F000
F000
F000
F000
ENDCHAR
STARTCHAR 00ED
ENCODING 237
SWIDTH 270 0
DWIDTH 12 0
BBX 12 32 3 0
BITMAP
01F0
01E0
03C0
0780
0700
0E00
0000
0000
0000
0F00
0F00
0F00
0F00
0F00
1E00
1E00
1E00
1E00
1C00
3C00
3C00
3C00
3C00
7800
7800
7800
7800
7800
F000
F000
F000
F000
ENDCHAR
STARTCHAR 00EE
ENCODING 238
SWIDTH 270 0
DWIDTH 12 0
BBX 13 32 3 0
BITMAP
03E0
07E0
0FE0
1EF0
3C70
7878
0000
0000
0000
0F00
0F00
0F00
0F00
0F00
1E00
1E00
1E00
1E00
1C00
3C00
3C00
3C00
3C00
7800
7800
7800
7800
7800
F000
F000
F000
F000
ENDCHAR
STARTCHAR 00EF
ENCODING 239
SWIDTH 270 0
DWIDTH 12 0
BBX 14 31 3 0
BITMAP
3C3C
7878
7878
7878
0000
0000
0000
0000
0F00
0F00
0F00
0F00
0F00
1E00
1E00
1E00
1E00
1C00
3C00
3C00
3C00
3C00
7800
7800
7800
7800
7800
F000
F000
F000
F000
ENDCHAR
STARTCHAR 00F0
ENCODING 240
SWIDTH 562 0
DWIDTH 25 0
BBX 22 33 2 -1
BITMAP
000F08
0007BC
0003FC
0003E0
001FE0
003EF0
0038F0
000078
000078
007E78
01FFBC
07FFFC
0FC1FC
1F00FC
1E007C
3C003C
3C003C
78003C
78003C
78003C
F0003C
F0003C
F00078
F00078
F00078
F800F0
7801F0
7803E0
3E07C0
3FFFC0
1FFF00
07FE00
004000
ENDCHAR
STARTCHAR 00F1
ENCODING 241
SWIDTH 562 0
DWIDTH 25 0
BBX 22 31 2 0
BITMAP
007E1C
00FFF8
00FFF8
01C3F0
01C000
000000
000000
000100
0F1FE0
0F3FF0
0E7FF8
0EE078
1F8078
1F0038
1F0078
1E0078
1E0078
3C0078
3C0078
3C00F0
3C00F0
7800F0
7800F0
7800F0
7801E0
7801E0
F001E0
F001E0
F001C0
F003C0
F003C0
ENDCHAR
STARTCHAR 00F2
ENCODING 242
SWIDTH 562 0
DWIDTH 25 0
BBX 22 33 2 -1
BITMAP
001E00
001F00
000F00
000780
000380
0003C0
000000
000000
000C00
00FF80
03FFE0
07F7F0
0F80F8
1F0078
3E007C
3C003C
7C003C
78003C
78003C
78003C
F0003C
F0003C
F00078
F00078
F00078
F000F0
7801F0
7803E0
3C07C0
3FFF80
1FFF00
07FC00
004000
ENDCHAR
STARTCHAR 00F3
ENCODING 243
SWIDTH 562 0
DWIDTH 25 0
BBX 22 33 2 -1
BITMAP
0007C0
000780
000F00
001E00
001C00
003C00
000000
000000
000C00
00FF80
03FFE0
07F7F0
0F80F8
1F0078
3E007C
3C003C
7C003C
78003C
78003C
78003C
F0003C
F0003C
F00078
F00078
F00078
F000F0
7801F0
7803E0
3C07C0
3FFF80
1FFF00
07FC00
004000
ENDCHAR
STARTCHAR 00F4
ENCODING 244
SWIDTH 562 0
DWIDTH 25 0
BBX 22 33 2 -1
BITMAP
000F80
001FC0
003DC0
0039E0
0078E0
00F0E0
010000
000000
000C00
00FF80
03FFE0
07F7F0
0F80F8
1F0078
3E007C
3C003C
7C003C
78003C
78003C
78003C
F0003C
F0003C
F00078
F00078
F00078
F000F0
7801F0
7803E0
3C07C0
3FFF80
1FFF00
07FC00
004000
ENDCHAR
STARTCHAR 00F5
ENCODING 245
SWIDTH 562 0
DWIDTH 25 0
BBX 22 32 2 -1
BITMAP
00FC38
00FFF8
01FFF0
0183E0
038000
000000
000000
000C00
00FF80
03FFE0
07F7F0
0F80F8
1F0078
3E007C
3C003C
7C003C
78003C
78003C
78003C
F0003C
F0003C
F00078
F00078
F00078
F000F0
7801F0
7803E0
3C07C0
3FFF80
1FFF00
07FC00
004000
ENDCHAR
STARTCHAR 00F6
ENCODING 246
SWIDTH 562 0
DWIDTH 25 0
BBX 22 32 2 -1
BITMAP
00F0F0
00F0F0
00F0F0
01F1F0
000000
000000
000000
000C00
00FF80
03FFE0
07F7F0
0F80F8
1F0078
3E007C
3C003C
7C003C
78003C
78003C
78003C
F0003C
F0003C
F00078
F00078
F00078
F000F0
7801F0
7803E0
3C07C0
3FFF80
1FFF00
07FC00
004000
ENDCHAR
STARTCHAR 00F7
ENCODING 247
SWIDTH 540 0
DWIDTH 24 0
BBX 21 17 3 7
BITMAP
00F000
00F000
00F000
00F000
000000
000000
FFFFF8
FFFFF8
FFFFF8
FFFFF8
000000
000000
000000
00F000
00F000
00F000
00F000
ENDCHAR
STARTCHAR 00F8
ENCODING 248
SWIDTH 607 0
DWIDTH 27 0
BBX 23 27 3 -2
BITMAP
00000C
00040E
00FFDC
03FFF8
07FFF8
0F80F8
1F00FC
1E01FC
3E03BC
3C073C
3C0F1C
780E1C
781C1C
78383C
78703C
78F03C
78E07C
79C078
7B80F8
7F00F0
7F01F0
3E07E0
1FFFC0
3FFF80
77FE00
F00000
600000
ENDCHAR
STARTCHAR 00F9
ENCODING 249
SWIDTH 562 0
DWIDTH 25 0
BBX 22 32 3 -1
BITMAP
003C00
003E00
001E00
000F00
000700
000780
000000
000000
000000
1E003C
1E0038
1E0078
1C0078
3C0078
3C0078
3C00F0
3C00F0
7800F0
7800F0
7800F0
7801E0
7801E0
F001E0
F001E0
F003E0
F007C0
F007C0
F00FC0
F03FC0
FFFB80
7FE380
3FC780
ENDCHAR
STARTCHAR 00FA
ENCODING 250
SWIDTH 562 0
DWIDTH 25 0
BBX 22 32 3 -1
BITMAP
0003C0
000780
000F00
000F00
001E00
003C00
000000
000000
000000
1E003C
1E0038
1E0078
1C0078
3C0078
3C0078
3C00F0
3C00F0
7800F0
7800F0
7800F0
7801E0
7801E0
F001E0
F001E0
F003E0
F007C0
F007C0
F00FC0
F03FC0
FFFB80
7FE380
3FC780
ENDCHAR
STARTCHAR 00FB
ENCODING 251
SWIDTH 562 0
DWIDTH 25 0
BBX 22 32 3 -1
BITMAP
000F00
001F80
003F80
007BC0
00F1C0
01E1E0
000000
000000
000000
1E003C
1E0038
1E0078
1C0078
3C0078
3C0078
3C00F0
3C00F0
7800F0
7800F0
7800F0
7801E0
7801E0
F001E0
F001E0
F003E0
F007C0
F007C0
F00FC0
F03FC0
FFFB80
7FE380
3FC780
ENDCHAR
STARTCHAR 00FC
ENCODING 252
SWIDTH 562 0
DWIDTH 25 0
BBX 22 31 3 -1
BITMAP
00F0F0
01F1F0
01E1E0
01E1E0
000000
000000
000000
000000
1E003C
1E0038
1E0078
1C0078
3C0078
3C0078
3C00F0
3C00F0
7800F0
7800F0
7800F0
7801E0
7801E0
F001E0
F001E0
F003E0
F007C0
F007C0
F00FC0
F03FC0
FFFB80
7FE380
3FC780
ENDCHAR
STARTCHAR 00FD
ENCODING 253
SWIDTH 495 0
DWIDTH 22 0
BBX 25 41 0 -9
BITMAP
0001F000
0001E000
0003C000
00078000
000F0000
000E0000
00000000
00000000
00000000
0F000780
0F000F00
0F001E00
07001E00
07803C00
07803C00
07807800
07807800
0780F000
0380F000
0381E000
03C3C000
03C3C000
03C78000
03C78000
01CF0000
01CF0000
01DE0000
01FC0000
01FC0000
01F80000
00F80000
00F00000
00F00000
01E00000
01E00000
03C00000
07800000
DF800000
FF000000
FE000000
FC000000
ENDCHAR
STARTCHAR 00FE
ENCODING 254
SWIDTH 562 0
DWIDTH 25 0
BBX 24 41 0 -9
BITMAP
00F000
00F000
00F000
01E000
01E000
01E000
01E000
01C000
03C080
03CFF0
03DFF8
03FFFC
07F03E
07E01E
07C01E
07800F
07800F
0F000F
0F000F
0F000F
0F000F
0E001E
1E001E
1E001E
1E003C
1F003C
1F007C
3F00F8
3FC1F0
3DFFE0
3CFFC0
787F00
780800
780000
780000
780000
F00000
F00000
F00000
F00000
F00000
ENDCHAR
STARTCHAR 00FF
ENCODING 255
SWIDTH 495 0
DWIDTH 22 0
BBX 25 40 0 -9
BITMAP
003C3C00
007C7C00
00787800
00787800
00000000
00000000
00000000
00000000
0F000780
0F000F00
0F001E00
07001E00
07803C00
07803C00
07807800
07807800
0780F000
0380F000
0381E000
03C3C000
03C3C000
03C78000
03C78000
01CF0000
01CF0000
01DE0000
01FC0000
01FC0000
01F80000
00F80000
00F00000
00F00000
01E00000
01E00000
03C00000
07800000
DF800000
FF000000
FE000000
FC000000
ENDCHAR
STARTCHAR 0100
ENCODING 256
SWIDTH 675 0
DWIDTH 30 0
BBX 28 38 -1 0
BITMAP
0001FFF0
0001FFF0
0001FFF0
00000000
00000000
00000000
00003E00
00007E00
00007F00
0000FF00
0000FF00
0001EF00
0001EF00
0003CF00
0007C780
00078780
000F8780
000F0780
001F0780
001E0780
003E07C0
007C03C0
007803C0
00F803C0
00F003C0
01F003C0
01FFFFE0
03FFFFE0
07FFFFE0
078001E0
0F8001E0
0F0001E0
1F0001F0
1E0000F0
3E0000F0
3C0000F0
7C0000F0
F80000F0
ENDCHAR
STARTCHAR 0101
ENCODING 257
SWIDTH 562 0
DWIDTH 25 0
BBX 21 30 2 -1
BITMAP
00FFF8
00FFF8
00FFF8
000000
000000
000000
000C00
01FFC0
03FFF0
07FFF8
0F80F8
1F0078
1E0078
3C0078
000078
000078
003FF8
0FFFF8
1FFFF0
3F80F0
7C00F0
F800F0
F001F0
F001E0
F003E0
F007E0
F80FE0
7FFFE0
3FF9E0
1FF1E0
ENDCHAR
STARTCHAR 0102
ENCODING 258
SWIDTH 675 0
DWIDTH 30 0
BBX 28 39 -1 0
BITMAP
0001C070
0001C0E0
0000F3E0
0000FFC0
00003F00
00000000
00000000
00003E00
00007E00
00007F00
0000FF00
0000FF00
0001EF00
0001EF00
0003CF00
0007C780
00078780
000F8780
000F0780
001F0780
001E0780
003E07C0
007C03C0
007803C0
00F803C0
00F003C0
01F003C0
01FFFFE0
03FFFFE0
07FFFFE0
078001E0
0F8001E0
0F0001E0
1F0001F0
1E0000F0
3E0000F0
3C0000F0
7C0000F0
F80000F0
ENDCHAR
STARTCHAR 0103
ENCODING 259
SWIDTH 562 0
DWIDTH 25 0
BBX 21 31 2 -1
BITMAP
00E038
00E038
0070F0
007FE0
003FC0
000F00
000000
000C00
01FFC0
03FFF0
07FFF8
0F80F8
1F0078
1E0078
3C0078
000078
000078
003FF8
0FFFF8
1FFFF0
3F80F0
7C00F0
F800F0
F001F0
F001E0
F003E0
F007E0
F80FE0
7FFFE0
3FF9E0
1FF1E0
ENDCHAR
STARTCHAR 0104
ENCODING 260
SWIDTH 675 0
DWIDTH 30 0
BBX 32 41 -1 -9
BITMAP
00003E00
00007E00
00007F00
0000FF00
0000FF00
0001EF00
0001EF00
0003CF00
0007C780
00078780
000F8780
000F0780
001F0780
001E0780
003E07C0
007C03C0
007803C0
00F803C0
00F003C0
01F003C0
01FFFFE0
03FFFFE0
07FFFFE0
078001E0
0F8001E0
0F0001E0
1F0001F0
1E0000F0
3E0000F0
3C0000F0
7C0000F0
F80000F0
000000E0
000000C0
000001C0
000001C0
000001C0
000001C0
000001FF
000001FF
000000FC
ENDCHAR
STARTCHAR 0105
ENCODING 261
SWIDTH 562 0
DWIDTH 25 0
BBX 23 33 2 -9
BITMAP
000C00
01FFC0
03FFF0
07FFF8
0F80F8
1F0078
1E0078
3C0078
000078
000078
003FF8
0FFFF8
1FFFF0
3F80F0
7C00F0
F800F0
F001F0
F001E0
F003E0
F007E0
F80FE0
7FFFE0
3FF9E0
1FF1E0
0001C0
000180
000180
000380
000380
0003C0
0003FE
0001FE
0000FC
ENDCHAR
STARTCHAR 0106
ENCODING 262
SWIDTH 720 0
DWIDTH 32 0
BBX 28 41 4 -1
BITMAP
00003E00
00007C00
00007800
0000F000
0001E000
0001C000
00000000
00000000
001FFC00
007FFF00
00FFFF80
03FC1FC0
07E007E0
07C003E0
0F8001F0
1F0000F0
3E0000F0
3E0000F0
3C000000
7C000000
78000000
78000000
F8000000
F8000000
F0000000
F0000000
F0000000
F0000000
F0000000
F00001E0
F80003E0
780003C0
780007C0
7C000F80
3E001F00
3F003F00
1FC0FE00
0FFFF800
07FFF000
01FFC000
00080000
ENDCHAR
STARTCHAR 0107
ENCODING 263
SWIDTH 495 0
DWIDTH 22 0
BBX 21 33 2 -1
BITMAP
0001E0
0003C0
000780
000780
000F00
001E00
000000
000000
000C00
00FF80
03FFE0
07FFE0
0F81F0
1F00F0
1E0078
3C0078
3C0000
7C0000
780000
780000
780000
780000
780000
F00000
7801E0
7801E0
7803C0
7807C0
3C0F80
3FFF00
1FFE00
07F800
008000
ENDCHAR
STARTCHAR 0108
ENCODING 264
SWIDTH 720 0
DWIDTH 32 0
BBX 28 41 4 -1
BITMAP
00007800
0000FC00
0001FC00
0003DE00
00078E00
000F0F00
00000000
00000000
001FFC00
007FFF00
00FFFF80
03FC1FC0
07E007E0
07C003E0
0F8001F0
1F0000F0
3E0000F0
3E0000F0
3C000000
7C000000
78000000
78000000
F8000000
F8000000
F0000000
F0000000
F0000000
F0000000
F0000000
F00001E0
F80003E0
780003C0
780007C0
7C000F80
3E001F00
3F003F00
1FC0FE00
0FFFF800
07FFF000
01FFC000
00080000
ENDCHAR
STARTCHAR 0109
ENCODING 265
SWIDTH 495 0
DWIDTH 22 0
BBX 21 33 2 -1
BITMAP
000F80
001F80
003FC0
0079C0
00F1E0
01E0E0
000000
000000
000C00
00FF80
03FFE0
07FFE0
0F81F0
1F00F0
1E0078
3C0078
3C0000
7C0000
780000
780000
780000
780000
780000
F00000
7801E0
7801E0
7803C0
7807C0
3C0F80
3FFF00
1FFE00
07F800
008000
ENDCHAR
STARTCHAR 010A
ENCODING 266
SWIDTH 720 0
DWIDTH 32 0
BBX 28 40 4 -1
BITMAP
0000F800
0000F800
0000F800
0000F800
0001F000
00000000
00000000
001FFC00
007FFF00
00FFFF80
03FC1FC0
07E007E0
07C003E0
0F8001F0
1F0000F0
3E0000F0
3E0000F0
3C000000
7C000000
78000000
78000000
F8000000
F8000000
F0000000
F0000000
F0000000
F0000000
F0000000
F00001E0
F80003E0
780003C0
780007C0
7C000F80
3E001F00
3F003F00
1FC0FE00
0FFFF800
07FFF000
01FFC000
00080000
ENDCHAR
STARTCHAR 010B
ENCODING 267
SWIDTH 495 0
DWIDTH 22 0
BBX 21 32 2 -1
BITMAP
001F00
001F00
001F00
001E00
003E00
000000
000000
000C00
00FF80
03FFE0
07FFE0
0F81F0
1F00F0
1E0078
3C0078
3C0000
7C0000
780000
780000
780000
780000
780000
F00000
7801E0
7801E0
7803C0
7807C0
3C0F80
3FFF00
1FFE00
07F800
008000
ENDCHAR
STARTCHAR 010C
ENCODING 268
SWIDTH 720 0
DWIDTH 32 0
BBX 28 41 4 -1
BITMAP
000E0F00
000F1E00
00071E00
0007BC00
0003F800
0003F000
00000000
00000000
001FFC00
007FFF00
00FFFF80
03FC1FC0
07E007E0
07C003E0
0F8001F0
1F0000F0
3E0000F0
3E0000F0
3C000000
7C000000
78000000
78000000
F8000000
F8000000
F0000000
F0000000
F0000000
F0000000
F0000000
F00001E0
F80003E0
780003C0
780007C0
7C000F80
3E001F00
3F003F00
1FC0FE00
0FFFF800
07FFF000
01FFC000
00080000
ENDCHAR
STARTCHAR 010D
ENCODING 269
SWIDTH 495 0
DWIDTH 22 0
BBX 21 33 2 -1
BITMAP
00F078
0070F0
0079E0
003BC0
003F80
003F00
000000
000000
000C00
00FF80
03FFE0
07FFE0
0F81F0
1F00F0
1E0078
3C0078
3C0000
7C0000
780000
780000
780000
780000
780000
F00000
7801E0
7801E0
7803C0
7807C0
3C0F80
3FFF00
1FFE00
07F800
008000
ENDCHAR
STARTCHAR 010E
ENCODING 270
SWIDTH 720 0
DWIDTH 32 0
BBX 30 40 2 0
BITMAP
001C1E00
001E3C00
000E7800
000F7800
0007F000
0007E000
00000000
00000000
01FFF000
03FFFF00
03FFFF80
03FFFFC0
03C007E0
03C001F0
07C000F0
078000F8
07800078
07800078
0F800078
0F80007C
0F00007C
0F00007C
0F00007C
1F00007C
1E000078
1E000078
1E000078
1E0000F8
3E0000F0
3C0001F0
3C0001E0
3C0003E0
3C0007C0
7C000FC0
78001F80
78007F00
7FFFFE00
FFFFFC00
FFFFF000
FFFF8000
ENDCHAR
STARTCHAR 010F
ENCODING 271
SWIDTH 630 0
DWIDTH 28 0
BBX 31 32 2 -1
BITMAP
0000079E
00000F1E
00000F1E
00000F3C
00000F0C
00000F0C
00001E08
00001E18
00101E70
00FF1E60
03FF9E00
07FFFC00
0F81FC00
1F00FC00
1E00FC00
3C007800
3C007800
78007800
78007800
78007800
78007000
70007000
F000F000
F000F000
F001F000
7801E000
7803E000
7C07E000
3E0FE000
3FFDE000
1FF9C000
0FF3C000
ENDCHAR
STARTCHAR 0110
ENCODING 272
SWIDTH 720 0
DWIDTH 32 0
BBX 30 32 2 0
BITMAP
01FFF800
01FFFF00
01FFFFC0
03FFFFE0
03C007F0
03C001F0
03C000F8
03C00078
07C00078
0780007C
0780007C
0780003C
0F80003C
0F00003C
0F00003C
FFFF803C
FFFF807C
FFFF007C
1E000078
1E000078
1E0000F8
1E0000F0
3E0001F0
3C0001E0
3C0003E0
3C0007C0
7C001F80
7C007F00
7FFFFE00
7FFFFC00
7FFFF000
FFFF8000
ENDCHAR
STARTCHAR 0111
ENCODING 273
SWIDTH 562 0
DWIDTH 25 0
BBX 27 32 2 -1
BITMAP
00000780
00000F00
00000F00
0007FFE0
0007FFE0
000FFFC0
00001E00
00001E00
00101E00
00FE1E00
03FFBC00
07FFBC00
0F81FC00
1F00FC00
1E00FC00
3C007800
3C007800
78007800
78007800
78007800
70007000
F000F000
F000F000
F000F000
F001F000
F801E000
7803E000
7807E000
7C0FE000
3FFDC000
1FF9C000
0FF3C000
ENDCHAR
STARTCHAR 0112
ENCODING 274
SWIDTH 675 0
DWIDTH 30 0
BBX 30 38 2 0
BITMAP
000FFFC0
000FFFC0
000FFF80
00000000
00000000
00000000
01FFFFFC
03FFFFF8
03FFFFF8
03FFFFF8
03C00000
03C00000
07C00000
07800000
07800000
07800000
0F800000
0F800000
0F000000
0F000000
0FFFFFC0
1FFFFFC0
1FFFFFC0
1E000000
1E000000
1E000000
3E000000
3C000000
3C000000
3C000000
3C000000
7C000000
78000000
78000000
7FFFFF80
7FFFFF80
FFFFFF80
FFFFFF00
ENDCHAR
STARTCHAR 0113
ENCODING 275
SWIDTH 562 0
DWIDTH 25 0
BBX 22 31 2 -1
BITMAP
00FFF8
01FFF8
01FFF8
000000
000000
000000
000800
00FF80
03FFE0
07FFF0
0F80F0
1F0078
1E0078
3C0038
3C003C
78003C
7FFFFC
7FFFFC
7FFFF8
F00000
F00000
F00000
F000F0
7800F0
7801E0
7C03E0
3E07C0
3FFF80
1FFF00
07FC00
004000
ENDCHAR
STARTCHAR 0114
ENCODING 276
SWIDTH 675 0
DWIDTH 30 0
BBX 30 39 2 0
BITMAP
000E0380
00060700
00079F00
0003FE00
0001F800
00000000
00000000
01FFFFFC
03FFFFF8
03FFFFF8
03FFFFF8
03C00000
03C00000
07C00000
07800000
07800000
07800000
0F800000
0F800000
0F000000
0F000000
0FFFFFC0
1FFFFFC0
1FFFFFC0
1E000000
1E000000
1E000000
3E000000
3C000000
3C000000
3C000000
3C000000
7C000000
78000000
78000000
7FFFFF80
7FFFFF80
FFFFFF80
FFFFFF00
ENDCHAR
STARTCHAR 0115
ENCODING 277
SWIDTH 562 0
DWIDTH 25 0
BBX 22 32 2 -1
BITMAP
00C038
00E070
00E0F0
007FE0
003FC0
000E00
000000
000800
00FF80
03FFE0
07FFF0
0F80F0
1F0078
1E0078
3C0038
3C003C
78003C
7FFFFC
7FFFFC
7FFFF8
F00000
F00000
F00000
F000F0
7800F0
7801E0
7C03E0
3E07C0
3FFF80
1FFF00
07FC00
004000
ENDCHAR
STARTCHAR 0116
ENCODING 278
SWIDTH 675 0
DWIDTH 30 0
BBX 30 39 2 0
BITMAP
00007C00
00007C00
00007C00
0000F800
0000F800
00000000
00000000
01FFFFFC
03FFFFF8
03FFFFF8
03FFFFF8
03C00000
03C00000
07C00000
07800000
07800000
07800000
0F800000
0F800000
0F000000
0F000000
0FFFFFC0
1FFFFFC0
1FFFFFC0
1E000000
1E000000
1E000000
3E000000
3C000000
3C000000
3C000000
3C000000
7C000000
78000000
78000000
7FFFFF80
7FFFFF80
FFFFFF80
FFFFFF00
ENDCHAR
STARTCHAR 0117
ENCODING 279
SWIDTH 562 0
DWIDTH 25 0
BBX 22 32 2 -1
BITMAP
000F80
000F80
000F80
000F80
000F00
000000
000000
000800
00FF80
03FFE0
07FFF0
0F80F0
1F0078
1E0078
3C0038
3C003C
78003C
7FFFFC
7FFFFC
7FFFF8
F00000
F00000
F00000
F000F0
7800F0
7801E0
7C03E0
3E07C0
3FFF80
1FFF00
07FC00
004000
ENDCHAR
STARTCHAR 0118
ENCODING 280
SWIDTH 675 0
DWIDTH 30 0
BBX 30 41 2 -9
BITMAP
01FFFFFC
03FFFFF8
03FFFFF8
03FFFFF8
03C00000
03C00000
07C00000
07800000
07800000
07800000
0F800000
0F800000
0F000000
0F000000
0FFFFFC0
1FFFFFC0
1FFFFFC0
1E000000
1E000000
1E000000
3E000000
3C000000
3C000000
3C000000
3C000000
7C000000
78000000
78000000
7FFFFF80
7FFFFF80
FFFFFF80
FFFFFF00
0000C000
0000C000
0001C000
0001C000
0001C000
0001C000
0001FF00
0001FE00
0000FC00
ENDCHAR
STARTCHAR 0119
ENCODING 281
SWIDTH 562 0
DWIDTH 25 0
BBX 22 33 2 -9
BITMAP
000800
00FF80
03FFE0
07FFF0
0F80F0
1F0078
1E0078
3C0038
3C003C
78003C
7FFFFC
7FFFFC
7FFFF8
F00000
F00000
F00000
F000F0
7800F0
7801E0
7C03E0
3E07C0
3FFF80
1FFF00
07FC00
00C000
00C000
01C000
01C000
01C000
01C000
01FF00
01FE00
00FC00
ENDCHAR
STARTCHAR 011A
ENCODING 282
SWIDTH 675 0
DWIDTH 30 0
BBX 30 40 2 0
BITMAP
00070780
00070F00
00079E00
0003BC00
0003F800
0001F000
00000000
00000000
01FFFFFC
03FFFFF8
03FFFFF8
03FFFFF8
03C00000
03C00000
07C00000
07800000
07800000
07800000
0F800000
0F800000
0F000000
0F000000
0FFFFFC0
1FFFFFC0
1FFFFFC0
1E000000
1E000000
1E000000
3E000000
3C000000
3C000000
3C000000
3C000000
7C000000
78000000
78000000
7FFFFF80
7FFFFF80
FFFFFF80
FFFFFF00
ENDCHAR
STARTCHAR 011B
ENCODING 283
SWIDTH 562 0
DWIDTH 25 0
BBX 22 33 2 -1
BITMAP
00F078
0070F0
0079E0
003BC0
003F80
003F00
000000
000000
000800
00FF80
03FFE0
07FFF0
0F80F0
1F0078
1E0078
3C0038
3C003C
78003C
7FFFFC
7FFFFC
7FFFF8
F00000
F00000
F00000
F000F0
7800F0
7801E0
7C03E0
3E07C0
3FFF80
1FFF00
07FC00
004000
ENDCHAR
STARTCHAR 011C
ENCODING 284
SWIDTH 787 0
DWIDTH 35 0
BBX 30 41 4 -1
BITMAP
00003E00
00007E00
0000FE00
0001EF00
0003C700
00078780
00000000
00000000
000FFE00
003FFF80
00FFFFC0
01FE0FF0
03F003F0
07E000F8
0F8000F8
0F00007C
1F00007C
1E00003C
3E000000
3C000000
7C000000
78000000
78000000
78000000
F801FFF8
F801FFF8
F803FFF0
F80000F0
F80000F0
F80001F0
780001E0
780001E0
7C0001E0
7C0001E0
3E0003E0
1F000FC0
1FC07FC0
0FFFFF80
03FFFE00
01FFF000
00040000
ENDCHAR
STARTCHAR 011D
ENCODING 285
SWIDTH 562 0
DWIDTH 25 0
BBX 24 41 1 -9
BITMAP
0003E0
0007E0
000FF0
001E70
003C70
007878
000000
000000
000800
007F8F
01FFCF
03FFEF
07C0FE
0F807E
1F003E
1E003E
3C003E
3C003C
3C003C
7C003C
78003C
780038
780078
780078
780078
3C00F8
3C01F0
3E03F0
1F8FF0
0FFEF0
07FCF0
01F1E0
0001E0
0001E0
F001E0
F003C0
F807C0
7C0F80
7FFF00
3FFE00
0FF800
ENDCHAR
STARTCHAR 011E
ENCODING 286
SWIDTH 787 0
DWIDTH 35 0
BBX 30 40 4 -1
BITMAP
000701C0
000383C0
0003CF80
0001FF00
0000FC00
00000000
00000000
000FFE00
003FFF80
00FFFFC0
01FE0FF0
03F003F0
07E000F8
0F8000F8
0F00007C
1F00007C
1E00003C
3E000000
3C000000
7C000000
78000000
78000000
78000000
F801FFF8
F801FFF8
F803FFF0
F80000F0
F80000F0
F80001F0
780001E0
780001E0
7C0001E0
7C0001E0
3E0003E0
1F000FC0
1FC07FC0
0FFFFF80
03FFFE00
01FFF000
00040000
ENDCHAR
STARTCHAR 011F
ENCODING 287
SWIDTH 562 0
DWIDTH 25 0
BBX 24 40 1 -9
BITMAP
00300C
00301C
003838
001FF8
001FE0
000780
000000
000800
007F8F
01FFCF
03FFEF
07C0FE
0F807E
1F003E
1E003E
3C003E
3C003C
3C003C
7C003C
78003C
780038
780078
780078
780078
3C00F8
3C01F0
3E03F0
1F8FF0
0FFEF0
07FCF0
01F1E0
0001E0
0001E0
F001E0
F003C0
F807C0
7C0F80
7FFF00
3FFE00
0FF800
ENDCHAR
STARTCHAR 0120
ENCODING 288
SWIDTH 787 0
DWIDTH 35 0
BBX 30 40 4 -1
BITMAP
00007C00
00007C00
00007C00
00007800
0000F800
00000000
00000000
000FFE00
003FFF80
00FFFFC0
01FE0FF0
03F003F0
07E000F8
0F8000F8
0F00007C
1F00007C
1E00003C
3E000000
3C000000
7C000000
78000000
78000000
78000000
F801FFF8
F801FFF8
F803FFF0
F80000F0
F80000F0
F80001F0
780001E0
780001E0
7C0001E0
7C0001E0
3E0003E0
1F000FC0
1FC07FC0
0FFFFF80
03FFFE00
01FFF000
00040000
ENDCHAR
STARTCHAR 0121
ENCODING 289
SWIDTH 562 0
DWIDTH 25 0
BBX 24 40 1 -9
BITMAP
0007C0
0007C0
0007C0
0007C0
000780
000000
000000
000800
007F8F
01FFCF
03FFEF
07C0FE
0F807E
1F003E
1E003E
3C003E
3C003C
3C003C
7C003C
78003C
780038
780078
780078
780078
3C00F8
3C01F0
3E03F0
1F8FF0
0FFEF0
07FCF0
01F1E0
0001E0
0001E0
F001E0
F003C0
F807C0
7C0F80
7FFF00
3FFE00
0FF800
ENDCHAR
STARTCHAR 0122
ENCODING 290
SWIDTH 787 0
DWIDTH 35 0
BBX 30 41 4 -9
BITMAP
000FFE00
003FFF80
00FFFFC0
01FE0FF0
03F003F0
07E000F8
0F800078
0F00007C
1F00007C
1E00003C
3E000000
3C000000
7C000000
78000000
78000000
78000000
7801FFF8
F801FFF8
F803FFF0
F80000F0
F80000F0
F80001F0
780001E0
780001E0
7C0001E0
3C0001E0
3E0003E0
1F000FC0
1FC07FC0
0FFFFF80
03FFFE00
01FFF000
007C0000
00700000
007E0000
001F0000
000F0000
000F0000
007F0000
07FE0000
07FC0000
ENDCHAR
STARTCHAR 0123
ENCODING 291
SWIDTH 562 0
DWIDTH 25 0
BBX 24 43 1 -9
BITMAP
000080
0003C0
000300
000700
000600
000F80
000F80
000F00
000F00
000000
000800
00FF8F
01FFCF
03FFEF
07C0FE
0F807E
1F003E
1E003E
3C003E
3C003C
3C003C
78003C
78003C
780038
780078
780078
7800F8
3C00F8
3C01F0
3E03F0
1F8FF0
0FFEF0
07FCF0
03F1E0
0001E0
0001E0
F001E0
F003C0
F807C0
7C0F80
7FFF00
3FFE00
0FF800
ENDCHAR
STARTCHAR 0124
ENCODING 292
SWIDTH 720 0
DWIDTH 32 0
BBX 31 40 2 0
BITMAP
00001E00
00003F00
00007700
0000F780
0001E380
0003C380
00040000
00000000
03E0001E
03C0001E
03C0001E
03C0001E
03C0003E
07C0003C
0780003C
0780003C
0780003C
0780007C
0F800078
0F000078
0F000078
0FFFFFF8
0FFFFFF8
1FFFFFF0
1FFFFFF0
1E0000F0
1E0001F0
3E0001E0
3E0001E0
3C0001E0
3C0001E0
3C0003E0
7C0003C0
780003C0
780003C0
780003C0
780007C0
F8000780
F0000780
F0000780
ENDCHAR
STARTCHAR 0125
ENCODING 293
SWIDTH 562 0
DWIDTH 25 0
BBX 21 40 2 0
BITMAP
0003E0
0007E0
000FF0
001E70
003C70
007878
000000
000000
03C000
03C000
03C000
078000
078000
078000
078000
078000
0F0100
0F1FE0
0F3FF0
0F7FF8
0FE078
1F8078
1F0038
1F0078
1E0078
3E0078
3C0078
3C0078
3C00F0
3C00F0
7800F0
7800F0
7800F0
7801E0
7801E0
F001E0
F001E0
F001C0
F003C0
F003C0
ENDCHAR
STARTCHAR 0126
ENCODING 294
SWIDTH 720 0
DWIDTH 32 0
BBX 33 32 2 0
BITMAP
03E0001E00
03C0001E00
03C0001E00
03C0001E00
03C0003E00
3FFFFFFF80
3FFFFFFF80
3FFFFFFF80
0780003C00
0780007C00
0F80007800
0F00007800
0F00007800
0FFFFFF800
0FFFFFF800
1FFFFFF000
1FFFFFF000
1E0000F000
1E0001F000
3E0001E000
3E0001E000
3C0001E000
3C0001E000
3C0003E000
7C0003C000
780003C000
780003C000
780003C000
780007C000
F800078000
F000078000
F000078000
ENDCHAR
STARTCHAR 0127
ENCODING 295
SWIDTH 562 0
DWIDTH 25 0
BBX 21 32 2 0
BITMAP
03C000
03C000
03C000
1FFF80
3FFF00
3FFF00
078000
078000
0F0100
0F1FE0
0F3FF0
0F7FF8
0FE078
1F8078
1F0038
1F0078
1E0078
1E0078
3C0078
3C0078
3C00F0
3C00F0
7800F0
7800F0
7800F0
7801E0
7801E0
F001E0
F001E0
F001C0
F003C0
F003C0
ENDCHAR
STARTCHAR 0128
ENCODING 296
SWIDTH 270 0
DWIDTH 12 0
BBX 16 39 3 0
BITMAP
0200
1FC7
1FFF
3DFE
387C
0000
0000
03C0
03C0
03C0
07C0
07C0
0780
0780
0780
0F80
0F00
0F00
0F00
0F00
1F00
1E00
1E00
1E00
1E00
3E00
3C00
3C00
3C00
3C00
7C00
7800
7800
7800
F800
F800
F000
F000
F000
ENDCHAR
STARTCHAR 0129
ENCODING 297
SWIDTH 270 0
DWIDTH 12 0
BBX 16 31 1 0
BITMAP
1F87
3FFE
3FFE
70FC
7010
0000
0000
0000
0780
0780
0780
0F00
0F00
0F00
0F00
0E00
1E00
1E00
1E00
1E00
1C00
3C00
3C00
3C00
3C00
7800
7800
7800
7800
7800
F000
ENDCHAR
STARTCHAR 012A
ENCODING 298
SWIDTH 270 0
DWIDTH 12 0
BBX 16 38 3 0
BITMAP
1FFF
3FFF
3FFF
0000
0000
0000
03C0
03C0
03C0
07C0
07C0
0780
0780
0780
0F80
0F00
0F00
0F00
0F00
1F00
1E00
1E00
1E00
1E00
3E00
3C00
3C00
3C00
3C00
7C00
7800
7800
7800
F800
F800
F000
F000
F000
ENDCHAR
STARTCHAR 012B
ENCODING 299
SWIDTH 270 0
DWIDTH 12 0
BBX 15 30 1 0
BITMAP
3FFE
3FFE
7FFE
0000
0000
0000
0000
0780
0780
0780
0F00
0F00
0F00
0F00
0E00
1E00
1E00
1E00
1E00
1C00
3C00
3C00
3C00
3C00
7800
7800
7800
7800
7800
F000
ENDCHAR
STARTCHAR 012C
ENCODING 300
SWIDTH 270 0
DWIDTH 12 0
BBX 16 39 3 0
BITMAP
1C07
1C0E
0F3E
07FC
03F0
0000
0000
03C0
03C0
03C0
07C0
07C0
0780
0780
0780
0F80
0F00
0F00
0F00
0F00
1F00
1E00
1E00
1E00
1E00
3E00
3C00
3C00
3C00
3C00
7C00
7800
7800
7800
F800
F800
F000
F000
F000
ENDCHAR
STARTCHAR 012D
ENCODING 301
SWIDTH 270 0
DWIDTH 12 0
BBX 15 31 1 0
BITMAP
380E
380E
1C1C
1FF8
0FF0
03C0
0000
0000
0780
0780
0780
0F00
0F00
0F00
0F00
0E00
1E00
1E00
1E00
1E00
1C00
3C00
3C00
3C00
3C00
7800
7800
7800
7800
7800
F000
ENDCHAR
STARTCHAR 012E
ENCODING 302
SWIDTH 270 0
DWIDTH 12 0
BBX 12 41 1 -9
BITMAP
00F0
00F0
00F0
01F0
01F0
01E0
01E0
01E0
03E0
03C0
03C0
03C0
03C0
07C0
0780
0780
0780
0780
0F80
0F00
0F00
0F00
0F00
1F00
1E00
1E00
1E00
3E00
3E00
3C00
3C00
3C00
7000
6000
6000
E000
E000
F000
FF80
7F80
3F00
ENDCHAR
STARTCHAR 012F
ENCODING 303
SWIDTH 225 0
DWIDTH 10 0
BBX 12 41 0 -9
BITMAP
00F0
00F0
00E0
01E0
01E0
0000
0000
0000
0000
03C0
03C0
03C0
0780
0780
0780
0780
0780
0F00
0F00
0F00
0F00
0E00
1E00
1E00
1E00
1E00
3C00
3C00
3C00
3C00
3C00
7800
7000
6000
E000
E000
E000
E000
FF80
FF80
7E00
ENDCHAR
STARTCHAR 0130
ENCODING 304
SWIDTH 270 0
DWIDTH 12 0
BBX 12 38 3 0
BITMAP
01F0
01E0
03E0
03E0
0000
0000
03C0
03C0
03C0
07C0
07C0
0780
0780
0780
0F80
0F00
0F00
0F00
0F00
1F00
1E00
1E00
1E00
1E00
3E00
3C00
3C00
3C00
3C00
7C00
7800
7800
7800
F800
F800
F000
F000
F000
ENDCHAR
STARTCHAR 0131
ENCODING 305
SWIDTH 270 0
DWIDTH 12 0
BBX 8 23 3 0
BITMAP
0F
0F
0F
0F
0F
1E
1E
1E
1E
1C
3C
3C
3C
3C
78
78
78
78
78
F0
F0
F0
F0
ENDCHAR
STARTCHAR 0132
ENCODING 306
SWIDTH 742 0
DWIDTH 33 0
BBX 31 33 3 -1
BITMAP
03C0001E
03C0001E
03C0003E
07C0003C
07C0003C
0780003C
0780003C
0780007C
0F800078
0F000078
0F000078
0F000078
0F0000F8
1F0000F0
1E0000F0
1E0000F0
1E0000F0
1E0001F0
3E0001E0
3C0001E0
3C0001E0
3C0003E0
3C0803E0
7C7803C0
787803C0
787803C0
78780780
F8780F80
F87E1F80
F03FFF00
F01FFE00
F00FF800
00008000
ENDCHAR
STARTCHAR 0133
ENCODING 307
SWIDTH 450 0
DWIDTH 20 0
BBX 21 41 1 -9
BITMAP
01E078
01E078
03C070
03C0F0
03C0F0
000000
000000
000000
000000
0781E0
0781E0
0701E0
0F03C0
0F03C0
0F03C0
0F03C0
0E03C0
1E0780
1E0780
1E0780
1E0780
3C0700
3C0F00
3C0F00
3C0F00
3C0F00
780E00
781E00
781E00
781E00
781E00
F03C00
003C00
003C00
003C00
007800
007800
0CF800
0FF000
0FF000
0FC000
ENDCHAR
STARTCHAR 0134
ENCODING 308
SWIDTH 495 0
DWIDTH 22 0
BBX 26 41 1 -1
BITMAP
00000F00
00001F80
00003F80
00007BC0
0000F1C0
0001E1C0
00020000
00000000
00003E00
00003E00
00003C00
00003C00
00003C00
00007C00
00007800
00007800
00007800
00007800
0000F800
0000F000
0000F000
0000F000
0000F000
0001F000
0001E000
0001E000
0001E000
0001E000
0003E000
0003C000
0803C000
7803C000
7007C000
F0078000
78078000
780F8000
7C1F0000
7FFE0000
3FFC0000
0FF80000
00800000
ENDCHAR
STARTCHAR 0135
ENCODING 309
SWIDTH 225 0
DWIDTH 10 0
BBX 19 41 -5 -9
BITMAP
000F80
001FC0
003DC0
0079E0
0071E0
00F0E0
010000
000000
000000
001E00
001E00
001C00
003C00
003C00
003C00
003C00
003800
007800
007800
007800
007800
00F000
00F000
00F000
00F000
00F000
01E000
01E000
01E000
01E000
01E000
03C000
03C000
03C000
03C000
078000
078000
8F8000
FF0000
FF0000
FC0000
ENDCHAR
STARTCHAR 0136
ENCODING 310
SWIDTH 675 0
DWIDTH 30 0
BBX 31 41 2 -9
BITMAP
01E0007E
03E001F8
03C003F0
03C007E0
03C00FC0
03C01F80
07C03F00
07807E00
0780F800
0783F000
0F87E000
0F8FC000
0F1F8000
0F3F0000
0F7F8000
1FFFC000
1FF7C000
1FE3E000
1FC1E000
1F81F000
3F00F000
3E00F800
3C007C00
3C007C00
3C003E00
7C001E00
78001F00
78000F00
78000F80
F80007C0
F80007C0
F00003E0
00000000
00780000
00FE0000
007E0000
000F0000
000F0000
00FF0000
07FE0000
07F80000
ENDCHAR
STARTCHAR 0137
ENCODING 311
SWIDTH 495 0
DWIDTH 22 0
BBX 22 41 2 -9
BITMAP
03C000
03C000
03C000
078000
078000
078000
078000
078000
0F0000
0F007C
0F00F8
0F01F0
0F03E0
1E0780
1E0F00
1E1E00
1E3C00
1CF800
3DF800
3FFC00
3FBC00
3F3C00
3E1E00
7C1E00
781F00
780F00
780F00
F00780
F00780
F007C0
F003C0
F003E0
000000
078000
07E000
03F000
00F000
00F000
07F000
7FE000
7FC000
ENDCHAR
STARTCHAR 0138
ENCODING 312
SWIDTH 495 0
DWIDTH 22 0
BBX 22 23 2 0
BITMAP
0F007C
0F00F8
0F01F0
0F03E0
1E0780
1E0F00
1E1E00
1E3C00
1C7800
3DF800
3FFC00
3FBC00
3F3C00
3E1E00
7C1E00
781F00
780F00
780F00
F00780
F00780
F007C0
F003C0
F003E0
ENDCHAR
STARTCHAR 0139
ENCODING 313
SWIDTH 562 0
DWIDTH 25 0
BBX 21 40 2 0
BITMAP
0007C0
000F80
000F00
001E00
003C00
003800
000000
000000
03E000
03C000
03C000
03C000
03C000
07C000
078000
078000
078000
0F8000
0F8000
0F0000
0F0000
0F0000
1F0000
1E0000
1E0000
1E0000
1E0000
3E0000
3C0000
3C0000
3C0000
3C0000
7C0000
780000
780000
780000
FFFFF8
FFFFF8
FFFFF8
FFFFF8
ENDCHAR
STARTCHAR 013A
ENCODING 314
SWIDTH 225 0
DWIDTH 10 0
BBX 14 39 1 0
BITMAP
007C
00F8
00F0
01E0
03C0
0380
0000
01E0
01C0
03C0
03C0
03C0
03C0
0780
0780
0780
0780
0780
0F00
0F00
0F00
0F00
0F00
1E00
1E00
1E00
1E00
1E00
3C00
3C00
3C00
3C00
3800
7800
7800
7800
7800
F000
F000
ENDCHAR
STARTCHAR 013B
ENCODING 315
SWIDTH 562 0
DWIDTH 25 0
BBX 21 41 2 -9
BITMAP
03E000
03C000
03C000
03C000
03C000
07C000
078000
078000
078000
0F8000
0F8000
0F0000
0F0000
0F0000
1F0000
1E0000
1E0000
1E0000
1E0000
3E0000
3C0000
3C0000
3C0000
3C0000
7C0000
780000
780000
780000
FFFFF8
FFFFF8
FFFFF8
FFFFF8
000000
03C000
03F000
01F800
007800
007800
03F800
1FF000
3FE000
ENDCHAR
STARTCHAR 013C
ENCODING 316
SWIDTH 225 0
DWIDTH 10 0
BBX 15 41 -3 -9
BITMAP
001E
001C
003C
003C
003C
003C
0078
0078
0078
0078
0078
00F0
00F0
00F0
00F0
00F0
01E0
01E0
01E0
01E0
01E0
03C0
03C0
03C0
03C0
0380
0780
0780
0780
0780
0F00
0F00
0000
0F00
1FC0
0FE0
01E0
01E0
0FE0
FFC0
FF00
ENDCHAR
STARTCHAR 013D
ENCODING 317
SWIDTH 562 0
DWIDTH 25 0
BBX 23 32 2 0
BITMAP
03E03E
03C03E
03C03C
03C03C
03C07C
07C00C
078018
078018
078030
0F80E0
0F80C0
0F0000
0F0000
0F0000
1F0000
1E0000
1E0000
1E0000
1E0000
3E0000
3C0000
3C0000
3C0000
3C0000
7C0000
780000
780000
780000
FFFFF8
FFFFF8
FFFFF8
FFFFF8
ENDCHAR
STARTCHAR 013E
ENCODING 318
SWIDTH 292 0
DWIDTH 13 0
BBX 17 32 1 0
BITMAP
01E780
01EF00
03CF00
03CF00
03C300
03C300
038600
078600
079C00
079000
078000
0F0000
0F0000
0F0000
0F0000
0F0000
1E0000
1E0000
1E0000
1E0000
1E0000
3C0000
3C0000
3C0000
3C0000
3C0000
780000
780000
780000
780000
700000
F00000
ENDCHAR
STARTCHAR 013F
ENCODING 319
SWIDTH 562 0
DWIDTH 25 0
BBX 21 32 2 0
BITMAP
03E000
03C000
03C000
03C000
03C000
07C000
078000
078000
078000
0F8000
0F8000
0F0000
0F0000
0F0000
1F01F0
1E01F0
1E01E0
1E01E0
1E0000
3E0000
3C0000
3C0000
3C0000
3C0000
7C0000
780000
780000
780000
FFFFF8
FFFFF8
FFFFF8
FFFFF8
ENDCHAR
STARTCHAR 0140
ENCODING 320
SWIDTH 405 0
DWIDTH 18 0
BBX 15 32 1 0
BITMAP
01E0
01C0
03C0
03C0
03C0
03C0
0780
0780
0780
0780
0780
0F00
0F00
0F00
0F1E
0F1E
1E3E
1E3E
1E00
1E00
1E00
3C00
3C00
3C00
3C00
3800
7800
7800
7800
7800
F000
F000
ENDCHAR
STARTCHAR 0141
ENCODING 321
SWIDTH 562 0
DWIDTH 25 0
BBX 22 32 1 0
BITMAP
01F000
01E000
01E000
01E000
01E000
03E000
03C000
03C000
03C080
03C180
07C780
079F80
07FE00
07F800
0FF000
0FC000
3F0000
FF0000
FF0000
FF0000
9E0000
1E0000
1E0000
1E0000
3E0000
3C0000
3C0000
3C0000
3FFFFC
7FFFFC
7FFFFC
7FFFFC
ENDCHAR
STARTCHAR 0142
ENCODING 322
SWIDTH 225 0
DWIDTH 10 0
BBX 12 32 1 0
BITMAP
01E0
01E0
03C0
03C0
03C0
03C0
03C0
0780
0780
0780
0780
0790
0F60
0FE0
0FE0
1F80
7E00
FE00
FE00
9E00
1E00
3C00
3C00
3C00
3C00
3C00
7800
7800
7800
7800
7800
F000
ENDCHAR
STARTCHAR 0143
ENCODING 323
SWIDTH 720 0
DWIDTH 32 0
BBX 32 40 2 0
BITMAP
00001F00
00003E00
00003C00
00007800
0000F000
0000E000
00000000
00000000
01E0001F
01F0001E
03F0001E
03F0001E
03F8001E
03F8003E
03BC003C
07BC003C
079E003C
079E003C
078F0078
0F8F0078
0F0F8078
0F078078
0F0780F8
0F03C0F0
1F03C0F0
1E01E0F0
1E01E0F0
1E01F1F0
1E00F1E0
3E00F1E0
3C0079E0
3C0079E0
3C0039E0
3C003FC0
78003FC0
78001FC0
78001FC0
78000FC0
F8000F80
F0000780
ENDCHAR
STARTCHAR 0144
ENCODING 324
SWIDTH 562 0
DWIDTH 25 0
BBX 21 32 2 0
BITMAP
0003E0
0003C0
000780
000F00
000E00
001C00
000000
000000
000100
0F1FE0
0F3FF0
0E7FF8
0EE078
1F8078
1F0038
1F0078
1E0078
1E0078
3C0078
3C0078
3C00F0
3C00F0
7800F0
7800F0
7800F0
7801E0
7801E0
F001E0
F001E0
F001C0
F003C0
F003C0
ENDCHAR
STARTCHAR 0145
ENCODING 325
SWIDTH 720 0
DWIDTH 32 0
BBX 32 41 2 -9
BITMAP
01E0001F
01F0001E
03F0001E
03F0001E
03F8001E
03F8003E
03BC003C
07BC003C
079E003C
079E003C
078F0078
0F8F0078
0F0F8078
0F078078
0F0780F8
0F03C0F0
1F03C0F0
1E01E0F0
1E01E0F0
1E01F1F0
1E00F1E0
3E00F1E0
3C0079E0
3C0079E0
3C0039E0
3C003FC0
78003FC0
78001FC0
78001FC0
78000FC0
F8000F80
F0000780
00000000
003C0000
003F0000
003F8000
00078000
00078000
003F8000
03FF0000
03FC0000
ENDCHAR
STARTCHAR 0146
ENCODING 326
SWIDTH 562 0
DWIDTH 25 0
BBX 21 33 2 -9
BITMAP
000100
0F1FE0
0F3FF0
0E7FF8
0EE078
1F8078
1F0038
1F0078
1E0078
1E0078
3C0078
3C0078
3C00F0
3C00F0
7800F0
7800F0
7800F0
7801E0
7801E0
F001E0
F001E0
F001C0
F003C0
F003C0
000000
03E000
03F000
01F800
007800
003800
03F800
1FF000
3FE000
ENDCHAR
STARTCHAR 0147
ENCODING 327
SWIDTH 720 0
DWIDTH 32 0
BBX 32 40 2 0
BITMAP
000383C0
00038780
0001CF00
0001DE00
0001FC00
0000F800
00000000
00000000
01E0001F
01F0001E
03F0001E
03F0001E
03F8001E
03F8003E
03BC003C
07BC003C
079E003C
079E003C
078F0078
0F8F0078
0F0F8078
0F078078
0F0780F8
0F03C0F0
1F03C0F0
1E01E0F0
1E01E0F0
1E01F1F0
1E00F1E0
3E00F1E0
3C0079E0
3C0079E0
3C0039E0
3C003FC0
78003FC0
78001FC0
78001FC0
78000FC0
F8000F80
F0000780
ENDCHAR
STARTCHAR 0148
ENCODING 328
SWIDTH 562 0
DWIDTH 25 0
BBX 21 32 2 0
BITMAP
007078
0078F0
0039E0
003FC0
001F80
001F00
000000
000000
000100
0F1FE0
0F3FF0
0E7FF8
0EE078
1F8078
1F0038
1F0078
1E0078
1E0078
3C0078
3C0078
3C00F0
3C00F0
7800F0
7800F0
7800F0
7801E0
7801E0
F001E0
F001E0
F001C0
F003C0
F003C0
ENDCHAR
STARTCHAR 0149
ENCODING 329
SWIDTH 607 0
DWIDTH 27 0
BBX 24 32 2 0
BITMAP
3E0000
3E0000
3C0000
3C0000
3C0000
0C0000
1C0000
180000
380020
71C3FC
C1C7FE
01DFFF
03FC0F
03F00F
03E00F
03E00F
07C00F
07C00F
07800F
07801E
07801E
0F001E
0F001E
0F001C
0F003C
0F003C
1E003C
1E003C
1E0038
1E0078
1C0078
3C0078
ENDCHAR
STARTCHAR 014A
ENCODING 330
SWIDTH 720 0
DWIDTH 32 0
BBX 30 33 2 -1
BITMAP
01E1FF00
03E7FFC0
03CFFFE0
03DF8FE0
03FC03F0
03F800F8
07E000F8
07E00078
07C0007C
0780007C
0780007C
0F80007C
0F00007C
0F00007C
0F00007C
0F00007C
1F000078
1E000078
1E000078
1E0000F8
3E0000F8
3E0000F0
3C0000F0
3C0001F0
3C0001E0
7C0003E0
7C0007C0
780007C0
78041F80
780FFF00
F81FFE00
F00FFC00
00004000
ENDCHAR
STARTCHAR 014B
ENCODING 331
SWIDTH 562 0
DWIDTH 25 0
BBX 22 33 2 -9
BITMAP
000100
0F0FE0
0F3FF0
0E7FF8
0EE078
1FC03C
1F803C
1F0038
1E0078
1E0078
3E0078
3C0078
3C0070
3C00F0
3800F0
7800F0
7800F0
7800E0
7801E0
7001E0
F001E0
F001E0
F003C0
F003C0
0003C0
0003C0
0003C0
000780
000780
00CF80
00FF00
00FE00
01FC00
ENDCHAR
STARTCHAR 014C
ENCODING 332
SWIDTH 787 0
DWIDTH 35 0
BBX 30 39 4 -1
BITMAP
000FFF80
000FFF80
000FFF80
00000000
00000000
00000000
000FFC00
007FFF00
00FFFFC0
01FC1FE0
07F003E0
0FC001F0
0F8000F8
1F000078
3E00007C
3E00007C
3C00003C
7C00003C
7800003C
7800003C
F800003C
F000003C
F000003C
F000003C
F000007C
F000007C
F0000078
F80000F8
780000F0
780001F0
7C0003E0
3C0003E0
3E000FC0
1F801F80
0FE07F00
07FFFE00
03FFF800
00FFE000
00040000
ENDCHAR
STARTCHAR 014D
ENCODING 333
SWIDTH 562 0
DWIDTH 25 0
BBX 22 31 2 -1
BITMAP
00FFF8
00FFF8
01FFF8
000000
000000
000000
000C00
00FF80
03FFE0
07F7F0
0F80F8
1F0078
3E007C
3C003C
7C003C
78003C
78003C
78003C
F0003C
F0003C
F00078
F00078
F00078
F000F0
7801F0
7803E0
3C07C0
3FFF80
1FFF00
07FC00
004000
ENDCHAR
STARTCHAR 014E
ENCODING 334
SWIDTH 787 0
DWIDTH 35 0
BBX 30 40 4 -1
BITMAP
000E0380
00060700
00079F00
0003FE00
0001F800
00000000
00000000
000FFC00
007FFF00
00FFFFC0
01FC1FE0
07F003E0
0FC001F0
0F8000F8
1F000078
3E00007C
3E00007C
3C00003C
7C00003C
7800003C
7800003C
F800003C
F000003C
F000003C
F000003C
F000007C
F000007C
F0000078
F80000F8
780000F0
780001F0
7C0003E0
3C0003E0
3E000FC0
1F801F80
0FE07F00
07FFFE00
03FFF800
00FFE000
00040000
ENDCHAR
STARTCHAR 014F
ENCODING 335
SWIDTH 562 0
DWIDTH 25 0
BBX 22 32 2 -1
BITMAP
00E038
00E038
007070
007FE0
003FC0
000F00
000000
000C00
00FF80
03FFE0
07F7F0
0F80F8
1F0078
3E007C
3C003C
7C003C
78003C
78003C
78003C
F0003C
F0003C
F00078
F00078
F00078
F000F0
7801F0
7803E0
3C07C0
3FFF80
1FFF00
07FC00
004000
ENDCHAR
STARTCHAR 0150
ENCODING 336
SWIDTH 787 0
DWIDTH 35 0
BBX 30 41 4 -1
BITMAP
0001F1F0
0001E3E0
0003C7C0
00078780
00070F00
000E1E00
00000000
00000000
000FFC00
007FFF00
00FFFFC0
01FC1FE0
07F003E0
0FC001F0
0F8000F8
1F000078
3E00007C
3E00007C
3C00003C
7C00003C
7800003C
7800003C
F800003C
F000003C
F000003C
F000003C
F000007C
F000007C
F0000078
F80000F8
780000F0
780001F0
7C0003E0
3C0003E0
3E000FC0
1F801F80
0FE07F00
07FFFE00
03FFF800
00FFE000
00040000
ENDCHAR
STARTCHAR 0151
ENCODING 337
SWIDTH 562 0
DWIDTH 25 0
BBX 24 33 2 -1
BITMAP
001F1F
001E3E
003C7C
007878
0070F0
00E1E0
000000
000000
000C00
00FF80
03FFE0
07F7F0
0F80F8
1F0078
3E007C
3C003C
7C003C
78003C
78003C
78003C
F0003C
F0003C
F00078
F00078
F00078
F000F0
7801F0
7803E0
3C07C0
3FFF80
1FFF00
07FC00
004000
ENDCHAR
STARTCHAR 0152
ENCODING 338
SWIDTH 990 0
DWIDTH 44 0
BBX 42 33 4 -1
BITMAP
001FE0FFFFC0
007FF8FFFFC0
01FFFCFFFFC0
03F87EFFFFC0
07E01FF00000
0F800FE00000
1F0007E00000
1E0007E00000
3E0003E00000
3C0003E00000
7C0003C00000
780003C00000
F80003C00000
F80003C00000
F00007FFFF00
F00007FFFE00
F00007FFFE00
F00007800000
F00007800000
F0000F800000
F0000F000000
F0000F000000
F0000F000000
F0001F000000
F8001F000000
78003E000000
7C007E000000
7E00FE000000
3F83FFFFFC00
1FFFFFFFFC00
0FFFBFFFFC00
03FF3FFFF800
003000000000
ENDCHAR
STARTCHAR 0153
ENCODING 339
SWIDTH 945 0
DWIDTH 42 0
BBX 38 25 3 -1
BITMAP
0008000C00
01FF80FF80
07FFC1FFE0
0FFFE7FFF0
1F01FFC0F0
1E00FF0078
3C007E0038
7C007E003C
78007C003C
78007C003C
F0007FFFFC
F0007FFFFC
F0007FFFFC
F0007FFFF8
F000780000
F000F80000
F000F800F0
F001F800F0
F001FC01E0
7803FC03E0
7C0FFE07C0
3FFF9FFF80
1FFE0FFF00
0FFC07FC00
0080004000
ENDCHAR
STARTCHAR 0154
ENCODING 340
SWIDTH 720 0
DWIDTH 32 0
BBX 30 40 2 0
BITMAP
00007C00
0000F800
0000F000
0001E000
0003C000
00038000
00000000
00000000
01FFFF80
03FFFFF0
03FFFFF8
03FFFFF8
03C0007C
03C0003C
07C0003C
0780003C
0780003C
0780003C
0780003C
0F80007C
0F0000F8
0F0001F8
0FFFFFF0
0FFFFFC0
1FFFFF80
1FFFF800
1E00F800
1E007C00
3E003E00
3E001E00
3C001F00
3C000F00
3C000F80
7C000780
780007C0
780007C0
780003E0
780003E0
F80001E0
F00001F0
ENDCHAR
STARTCHAR 0155
ENCODING 341
SWIDTH 337 0
DWIDTH 15 0
BBX 17 32 2 0
BITMAP
001F00
003E00
003C00
007800
00F000
00E000
000000
000000
000400
0F1F80
0E7F00
0EFF00
0EE200
1FC000
1F8000
1F0000
1E0000
1E0000
3C0000
3C0000
3C0000
380000
780000
780000
780000
780000
700000
F00000
F00000
F00000
F00000
E00000
ENDCHAR
STARTCHAR 0156
ENCODING 342
SWIDTH 720 0
DWIDTH 32 0
BBX 30 41 2 -9
BITMAP
01FFFF80
03FFFFF0
03FFFFF8
03FFFFF8
03C0007C
03C0003C
07C0003C
0780003C
0780003C
0780003C
0780003C
0F80007C
0F0000F8
0F0001F8
0FFFFFF0
0FFFFFC0
1FFFFF80
1FFFF800
1E00F800
1E007C00
3E003E00
3E001E00
3C001F00
3C000F00
3C000F80
7C000780
780007C0
780007C0
780003E0
780003E0
F80001E0
F00001F0
00000000
003C0000
003F0000
003F8000
00078000
00078000
003F8000
03FF0000
03FE0000
ENDCHAR
STARTCHAR 0157
ENCODING 343
SWIDTH 337 0
DWIDTH 15 0
BBX 20 33 -1 -9
BITMAP
000080
01E3F0
01CFE0
01DFE0
01DC40
03F800
03F000
03E000
03C000
03C000
078000
078000
078000
070000
0F0000
0F0000
0F0000
0F0000
0E0000
1E0000
1E0000
1E0000
1E0000
1C0000
000000
0F0000
1FC000
0FE000
01E000
01E000
1FE000
FFC000
FF0000
ENDCHAR
STARTCHAR 0158
ENCODING 344
SWIDTH 720 0
DWIDTH 32 0
BBX 30 40 2 0
BITMAP
000F0780
00070F00
00079E00
0003BC00
0003F800
0003F000
00000000
00000000
01FFFF80
03FFFFF0
03FFFFF8
03FFFFF8
03C0007C
03C0003C
07C0003C
0780003C
0780003C
0780003C
0780003C
0F80007C
0F0000F8
0F0001F8
0FFFFFF0
0FFFFFC0
1FFFFF80
1FFFF800
1E00F800
1E007C00
3E003E00
3E001E00
3C001F00
3C000F00
3C000F80
7C000780
780007C0
780007C0
780003E0
780003E0
F80001E0
F00001F0
ENDCHAR
STARTCHAR 0159
ENCODING 345
SWIDTH 337 0
DWIDTH 15 0
BBX 18 32 2 0
BITMAP
0783C0
038780
03CF00
01DE00
01FC00
00F800
000000
000000
000400
0F1F80
0E7F00
0EFF00
0EE200
1FC000
1F8000
1F0000
1E0000
1E0000
3C0000
3C0000
3C0000
380000
780000
780000
780000
780000
700000
F00000
F00000
F00000
F00000
E00000
ENDCHAR
STARTCHAR 015A
ENCODING 346
SWIDTH 675 0
DWIDTH 30 0
BBX 27 41 3 -1
BITMAP
0000F800
0000F000
0001E000
0003C000
0003C000
00078000
00000000
00000000
003FF800
00FFFE00
01FFFF00
03F83F80
07C00FC0
078007C0
0F0003E0
0F0003E0
0F0001E0
0F800000
0F800000
07C00000
07F00000
03FE0000
00FF8000
007FE000
001FF800
0007FC00
0000FE00
00007F00
00001F00
30000F00
F0000F80
F0000F80
F8000F80
78000F00
7C001F00
7E003E00
3F80FE00
1FFFFC00
0FFFF000
03FFC000
00080000
ENDCHAR
STARTCHAR 015B
ENCODING 347
SWIDTH 495 0
DWIDTH 22 0
BBX 20 33 2 -1
BITMAP
0007C0
000F80
001F00
001E00
003C00
007800
000000
000000
003000
01FF80
07FFC0
0FFFE0
0F01F0
1E00F0
1E00F0
1E00F0
1F0000
0FC000
0FF000
07FC00
01FF00
007F80
001FC0
0007C0
F003E0
F001E0
F001E0
F803C0
7C07C0
7FFF80
3FFF00
0FFC00
004000
ENDCHAR
STARTCHAR 015C
ENCODING 348
SWIDTH 675 0
DWIDTH 30 0
BBX 27 41 3 -1
BITMAP
0000F800
0001F800
0003FC00
00079C00
000F1E00
001E0E00
00000000
00000000
003FF800
00FFFE00
01FFFF00
03F83F80
07C00FC0
078007C0
0F0003E0
0F0003E0
0F0001E0
0F800000
0F800000
07C00000
07F00000
03FE0000
00FF8000
007FE000
001FF800
0007FC00
0000FE00
00007F00
00001F00
30000F00
F0000F80
F0000F80
F8000F80
78000F00
7C001F00
7E003E00
3F80FE00
1FFFFC00
0FFFF000
03FFC000
00080000
ENDCHAR
STARTCHAR 015D
ENCODING 349
SWIDTH 495 0
DWIDTH 22 0
BBX 20 33 2 -1
BITMAP
000F80
001F80
003FC0
0079C0
00F1E0
01E0E0
000000
000000
003000
01FF80
07FFC0
0FFFE0
0F01F0
1E00F0
1E00F0
1E00F0
1F0000
0FC000
0FF000
07FC00
01FF00
007F80
001FC0
0007C0
F003E0
F001E0
F001E0
F803C0
7C07C0
7FFF80
3FFF00
0FFC00
004000
ENDCHAR
STARTCHAR 015E
ENCODING 350
SWIDTH 675 0
DWIDTH 30 0
BBX 27 41 3 -9
BITMAP
003FF800
00FFFE00
01FFFF00
03F83F80
07C00FC0
078007C0
0F0003E0
0F0003E0
0F0001E0
0F800000
0F800000
07C00000
07F00000
03FE0000
00FF8000
007FE000
001FF800
0007FC00
0000FE00
00007F00
00001F00
30000F00
F0000F80
F0000F80
F8000F80
78000F00
7C001F00
7E003E00
3F80FE00
1FFFFC00
0FFFF000
03FFC000
00780000
00E00000
00F80000
007C0000
001E0000
001E0000
007E0000
0FFC0000
0FF80000
ENDCHAR
STARTCHAR 015F
ENCODING 351
SWIDTH 495 0
DWIDTH 22 0
BBX 20 33 2 -9
BITMAP
003000
01FF80
07FFC0
0FFFE0
0F01F0
1E00F0
1E00F0
1E00F0
1F0000
0FC000
0FF000
07FC00
01FF00
007F80
001FC0
0007C0
F003E0
F001E0
F001E0
F803C0
7C07C0
7FFF80
3FFF00
0FFC00
03C000
03C000
03F000
007800
007800
007800
3FF800
3FF000
3F8000
ENDCHAR
STARTCHAR 0160
ENCODING 352
SWIDTH 675 0
DWIDTH 30 0
BBX 27 41 3 -1
BITMAP
001C1E00
001E3C00
000E7800
000FF000
0007F000
0007E000
00000000
00000000
003FF800
00FFFE00
01FFFF00
03F83F80
07C00FC0
078007C0
0F0003E0
0F0003E0
0F0001E0
0F800000
0F800000
07C00000
07F00000
03FE0000
00FF8000
007FE000
001FF800
0007FC00
0000FE00
00007F00
00001F00
30000F00
F0000F80
F0000F80
F8000F80
78000F00
7C001F00
7E003E00
3F80FE00
1FFFFC00
0FFFF000
03FFC000
00080000
ENDCHAR
STARTCHAR 0161
ENCODING 353
SWIDTH 495 0
DWIDTH 22 0
BBX 20 33 2 -1
BITMAP
00E0F0
00F1E0
0073C0
007780
003F00
003E00
000000
000000
003000
01FF80
07FFC0
0FFFE0
0F01F0
1E00F0
1E00F0
1E00F0
1F0000
0FC000
0FF000
07FC00
01FF00
007F80
001FC0
0007C0
F003E0
F001E0
F001E0
F803C0
7C07C0
7FFF80
3FFF00
0FFC00
004000
ENDCHAR
STARTCHAR 0162
ENCODING 354
SWIDTH 607 0
DWIDTH 27 0
BBX 25 44 6 -12
BITMAP
FFFFFF80
FFFFFF80
FFFFFF80
FFFFFF80
003C0000
003C0000
007C0000
00780000
00780000
00780000
00780000
00F80000
00F00000
00F00000
00F00000
00F00000
01F00000
01E00000
01E00000
01E00000
03E00000
03E00000
03C00000
03C00000
03C00000
07C00000
07800000
07800000
07800000
07800000
0F800000
0F000000
00000000
00000000
00000000
1F000000
1F000000
1E000000
1E000000
06000000
06000000
0C000000
38000000
30000000
ENDCHAR
STARTCHAR 0163
ENCODING 355
SWIDTH 270 0
DWIDTH 12 0
BBX 12 42 2 -11
BITMAP
0040
01C0
03C0
0780
0780
0780
0780
0780
7FF0
7FF0
7FF0
0F00
0E00
1E00
1E00
1E00
1E00
3C00
3C00
3C00
3C00
3C00
7800
7800
7800
7800
7800
7800
7F00
7F00
3F00
0000
0000
0000
3C00
7800
7800
7800
1800
3000
6000
C000
ENDCHAR
STARTCHAR 0164
ENCODING 356
SWIDTH 607 0
DWIDTH 27 0
BBX 25 40 6 0
BITMAP
00E0F000
00E1E000
00F3C000
00778000
007F0000
003E0000
00000000
00000000
FFFFFF80
FFFFFF80
FFFFFF80
FFFFFF80
003C0000
003C0000
007C0000
00780000
00780000
00780000
00780000
00F80000
00F00000
00F00000
00F00000
00F00000
01F00000
01E00000
01E00000
01E00000
03E00000
03E00000
03C00000
03C00000
03C00000
07C00000
07800000
07800000
07800000
07800000
0F800000
0F000000
ENDCHAR
STARTCHAR 0165
ENCODING 357
SWIDTH 360 0
DWIDTH 16 0
BBX 19 32 2 0
BITMAP
0001E0
0041E0
01C1E0
0783C0
0780C0
0780C0
078080
078180
0F0700
7FF600
7FF000
7FF000
0F0000
1E0000
1E0000
1E0000
1E0000
1C0000
3C0000
3C0000
3C0000
3C0000
380000
780000
780000
780000
780000
780000
F80000
FF0000
7F0000
3F0000
ENDCHAR
STARTCHAR 0166
ENCODING 358
SWIDTH 607 0
DWIDTH 27 0
BBX 26 32 5 0
BITMAP
7FFFFFC0
7FFFFFC0
7FFFFFC0
7FFFFFC0
001E0000
001E0000
003E0000
003C0000
003C0000
003C0000
003C0000
007C0000
00780000
00780000
00780000
7FFFF800
FFFFF000
FFFFF000
00F00000
00F00000
01F00000
01F00000
01E00000
01E00000
01E00000
03E00000
03C00000
03C00000
03C00000
03C00000
07C00000
07800000
ENDCHAR
STARTCHAR 0167
ENCODING 359
SWIDTH 270 0
DWIDTH 12 0
BBX 13 31 1 0
BITMAP
0020
00E0
01E0
03C0
03C0
03C0
03C0
03C0
3FF8
3FF8
3FF8
0780
0700
0F00
0F00
0F00
0F00
0E00
FFF0
FFE0
FFE0
1E00
3C00
3C00
3C00
3C00
3C00
3C00
3FC0
3F80
1F80
ENDCHAR
STARTCHAR 0168
ENCODING 360
SWIDTH 720 0
DWIDTH 32 0
BBX 29 40 4 -1
BITMAP
00010000
000FE380
000FFF80
001EFF00
001C3E00
00000000
00000000
07800078
07800078
0F800078
0F000078
0F0000F8
0F0000F0
1F0000F0
1F0000F0
1E0000F0
1E0001F0
1E0001E0
3E0001E0
3C0001E0
3C0003E0
3C0003E0
3C0003C0
7C0003C0
780003C0
780007C0
780007C0
78000780
F8000780
F8000F80
F8000F00
F8001F00
78001F00
7C003E00
7E007C00
3F01F800
1FFFF000
0FFFE000
03FF8000
00100000
ENDCHAR
STARTCHAR 0169
ENCODING 361
SWIDTH 562 0
DWIDTH 25 0
BBX 22 31 3 -1
BITMAP
00FC38
01FFF0
01FFF0
0387E0
038080
000000
000000
000000
1E003C
1E0038
1E0078
1C0078
3C0078
3C0078
3C00F0
3C00F0
7800F0
7800F0
7800F0
7801E0
7801E0
F001E0
F001E0
F003E0
F007C0
F007C0
F00FC0
F03FC0
FFFB80
7FE380
3FC780
ENDCHAR
STARTCHAR 016A
ENCODING 362
SWIDTH 720 0
DWIDTH 32 0
BBX 29 39 4 -1
BITMAP
001FFF80
001FFF80
001FFF00
00000000
00000000
00000000
07800078
07800078
0F800078
0F000078
0F0000F8
0F0000F0
1F0000F0
1F0000F0
1E0000F0
1E0001F0
1E0001E0
3E0001E0
3C0001E0
3C0003E0
3C0003E0
3C0003C0
7C0003C0
780003C0
780007C0
780007C0
78000780
F8000780
F8000F80
F8000F00
F8001F00
78001F00
7C003E00
7E007C00
3F01F800
1FFFF000
0FFFE000
03FF8000
00100000
ENDCHAR
STARTCHAR 016B
ENCODING 363
SWIDTH 562 0
DWIDTH 25 0
BBX 22 30 3 -1
BITMAP
01FFF0
01FFF0
03FFF0
000000
000000
000000
000000
1E003C
1E0038
1E0078
1C0078
3C0078
3C0078
3C00F0
3C00F0
7800F0
7800F0
7800F0
7801E0
7801E0
F001E0
F001E0
F003E0
F007C0
F007C0
F00FC0
F03FC0
FFFB80
7FE380
3FC780
ENDCHAR
STARTCHAR 016C
ENCODING 364
SWIDTH 720 0
DWIDTH 32 0
BBX 29 40 4 -1
BITMAP
000C0300
000E0700
000F9E00
0007FC00
0003F800
00000000
00000000
07800078
07800078
0F800078
0F000078
0F0000F8
0F0000F0
1F0000F0
1F0000F0
1E0000F0
1E0001F0
1E0001E0
3E0001E0
3C0001E0
3C0003E0
3C0003E0
3C0003C0
7C0003C0
780003C0
780007C0
780007C0
78000780
F8000780
F8000F80
F8000F00
F8001F00
78001F00
7C003E00
7E007C00
3F01F800
1FFFF000
0FFFE000
03FF8000
00100000
ENDCHAR
STARTCHAR 016D
ENCODING 365
SWIDTH 562 0
DWIDTH 25 0
BBX 22 31 3 -1
BITMAP
01C070
01C060
01E1E0
00FFC0
007F80
001E00
000000
000000
1E003C
1E0038
1E0078
1C0078
3C0078
3C0078
3C00F0
3C00F0
7800F0
7800F0
7800F0
7801E0
7801E0
F001E0
F001E0
F003E0
F007C0
F007C0
F00FC0
F03FC0
FFFB80
7FE380
3FC780
ENDCHAR
STARTCHAR 016E
ENCODING 366
SWIDTH 720 0
DWIDTH 32 0
BBX 29 41 4 -1
BITMAP
0000C000
0003F000
00031800
00061800
00060800
00061800
0003B000
0001E000
07800078
07800078
0F800078
0F000078
0F0000F8
0F0000F0
1F0000F0
1F0000F0
1E0000F0
1E0001F0
1E0001E0
3E0001E0
3C0001E0
3C0003E0
3C0003E0
3C0003C0
7C0003C0
780003C0
780007C0
780007C0
78000780
F8000780
F8000F80
F8000F00
F8001F00
78001F00
7C003E00
7E007C00
3F01F800
1FFFF000
0FFFE000
03FF8000
00100000
ENDCHAR
STARTCHAR 016F
ENCODING 367
SWIDTH 562 0
DWIDTH 25 0
BBX 22 33 3 -1
BITMAP
000800
003E00
006300
006180
004180
006180
007300
003E00
000000
000000
1E003C
1E0038
1E0078
1C0078
3C0078
3C0078
3C00F0
3C00F0
7800F0
7800F0
7800F0
7801E0
7801E0
F001E0
F001E0
F003E0
F007C0
F007C0
F00FC0
F03FC0
FFFB80
7FE380
3FC780
ENDCHAR
STARTCHAR 0170
ENCODING 368
SWIDTH 720 0
DWIDTH 32 0
BBX 29 41 4 -1
BITMAP
0001F3E0
0003E3C0
0003C780
00078F00
000F0E00
000E1C00
00000000
00000000
07800078
07800078
0F800078
0F000078
0F0000F8
0F0000F0
1F0000F0
1F0000F0
1E0000F0
1E0001F0
1E0001E0
3E0001E0
3C0001E0
3C0003E0
3C0003E0
3C0003C0
7C0003C0
780003C0
780007C0
780007C0
78000780
F8000780
F8000F80
F8000F00
F8001F00
78001F00
7C003E00
7E007C00
3F01F800
1FFFF000
0FFFE000
03FF8000
00100000
ENDCHAR
STARTCHAR 0171
ENCODING 369
SWIDTH 562 0
DWIDTH 25 0
BBX 22 32 3 -1
BITMAP
003E7C
007CF8
00F8F0
00F1E0
01E3C0
03C380
000000
000000
000000
1E003C
1E0038
1E0078
1C0078
3C0078
3C0078
3C00F0
3C00F0
7800F0
7800F0
7800F0
7801E0
7801E0
F001E0
F001E0
F003E0
F007C0
F007C0
F00FC0
F03FC0
FFFB80
7FE380
3FC780
ENDCHAR
STARTCHAR 0172
ENCODING 370
SWIDTH 720 0
DWIDTH 32 0
BBX 29 41 4 -9
BITMAP
07800078
07800078
0F800078
0F000078
0F0000F8
0F0000F0
1F0000F0
1F0000F0
1E0000F0
1E0001F0
1E0001E0
3E0001E0
3C0001E0
3C0003E0
3C0003E0
3C0003C0
7C0003C0
780003C0
780007C0
78000780
78000780
F8000780
F8000F80
F0000F00
F8001F00
78001E00
7C003E00
7E007C00
3F81F800
1FFFF000
0FFFE000
03FF8000
00700000
00700000
00600000
00600000
00E00000
00F00000
00FF8000
007F8000
003F0000
ENDCHAR
STARTCHAR 0173
ENCODING 371
SWIDTH 562 0
DWIDTH 25 0
BBX 22 32 3 -9
BITMAP
1E003C
1E0038
1E0078
1C0078
3C0078
3C0078
3C00F0
3C00F0
7800F0
7800F0
7800F0
7801E0
7801E0
F001E0
F001E0
F003E0
F003C0
F007C0
F00FC0
F03FC0
FFFB80
7FE380
3FC780
000700
000600
000E00
000E00
000E00
000E00
000FF8
0007F8
0007E0
ENDCHAR
STARTCHAR 0174
ENCODING 372
SWIDTH 945 0
DWIDTH 42 0
BBX 41 40 6 0
BITMAP
00000F000000
00001F800000
00003F800000
00007BC00000
0000F1C00000
0001E1E00000
000000000000
000000000000
F0003E000780
F0003E000F00
F0007E000F00
F0007E001E00
F000FE001E00
F000FE003C00
F001FE003C00
F003FE007800
F003DE007800
F007DE00F000
F0079E00F000
F00F9E01E000
F00F1E01E000
F81F1E03C000
F81E1F03C000
F83E0F078000
783C0F078000
787C0F0F0000
78780F0F0000
78F80F1E0000
78F00F1E0000
79E00F3C0000
79E00F3C0000
7BC00F780000
7BC00F780000
7F800FF00000
7F800FF00000
7F000FE00000
7F000FE00000
7E000FC00000
7E000FC00000
7C000F800000
ENDCHAR
STARTCHAR 0175
ENCODING 373
SWIDTH 720 0
DWIDTH 32 0
BBX 31 32 3 0
BITMAP
0000F000
0001F800
0003F800
0007BC00
000F1C00
001E1E00
00000000
00000000
00000000
F003C01E
7007C01E
7007C03C
780FC03C
780FC078
781FE078
781DE070
783DE0F0
783DE0E0
7879E1E0
3879E1C0
3871E3C0
38F1E380
3CE0E780
3DE0E700
3DC0EF00
3DC0EE00
3F80EE00
3F80FC00
3F80FC00
1F00F800
1F00F800
1E00F800
ENDCHAR
STARTCHAR 0176
ENCODING 374
SWIDTH 675 0
DWIDTH 30 0
BBX 29 40 5 0
BITMAP
0003E000
0007E000
000FF000
001E7000
003C7800
00783800
00000000
00000000
F80000F8
780001F0
7C0003F0
3C0003E0
3E0007C0
1E000F80
1F001F80
0F003F00
0F803E00
07807C00
07C0F800
03C1F800
03E1F000
01E3E000
01F7C000
00F7C000
00FF8000
007F0000
007E0000
003E0000
003C0000
003C0000
007C0000
00780000
00780000
00780000
00780000
00F80000
00F00000
00F00000
00F00000
00F00000
ENDCHAR
STARTCHAR 0177
ENCODING 375
SWIDTH 495 0
DWIDTH 22 0
BBX 25 41 0 -9
BITMAP
0003C000
0007E000
000FE000
001EF000
003C7000
00787800
00000000
00000000
00000000
0F000780
0F000F00
0F001E00
07001E00
07803C00
07803C00
07807800
07807800
0780F000
0380F000
0381E000
03C3C000
03C3C000
03C78000
03C78000
01CF0000
01CF0000
01DE0000
01FC0000
01FC0000
01F80000
00F80000
00F00000
00F00000
01E00000
01E00000
03C00000
07800000
DF800000
FF000000
FE000000
FC000000
ENDCHAR
STARTCHAR 0178
ENCODING 376
SWIDTH 675 0
DWIDTH 30 0
BBX 29 38 5 0
BITMAP
003C3C00
007C7C00
00787800
00787800
00000000
00000000
F80000F8
780001F0
7C0003F0
3C0003E0
3E0007C0
1E000F80
1F001F80
0F003F00
0F803E00
07807C00
07C0F800
03C1F800
03E1F000
01E3E000
01F7C000
00F7C000
00FF8000
007F0000
007E0000
003E0000
003C0000
003C0000
007C0000
00780000
00780000
00780000
00780000
00F80000
00F00000
00F00000
00F00000
00F00000
ENDCHAR
STARTCHAR 0179
ENCODING 377
SWIDTH 607 0
DWIDTH 27 0
BBX 27 40 1 0
BITMAP
0000F800
0000F000
0001E000
0003C000
00038000
00070000
00000000
00000000
07FFFFE0
07FFFFE0
07FFFFE0
07FFFFE0
000007C0
00000F80
00001F00
00003F00
00007E00
00007C00
0000F800
0001F000
0003E000
0007E000
000FC000
000F8000
001F0000
003E0000
007C0000
00F80000
01F80000
01F00000
03E00000
07C00000
0F800000
1F000000
3F000000
3E000000
7FFFFF00
FFFFFF00
FFFFFF00
FFFFFF00
ENDCHAR
STARTCHAR 017A
ENCODING 378
SWIDTH 495 0
DWIDTH 22 0
BBX 22 32 1 0
BITMAP
0007C0
000780
000F00
001E00
001C00
003C00
000000
000000
000000
0FFFFC
0FFFF8
1FFFF8
0001F0
0003E0
0007E0
000FC0
000F80
001F00
003E00
007C00
00F800
01F000
03E000
07C000
0FC000
0F8000
1F0000
3E0000
7C0000
FFFFE0
FFFFE0
FFFFE0
ENDCHAR
STARTCHAR 017B
ENCODING 379
SWIDTH 607 0
DWIDTH 27 0
BBX 27 38 1 0
BITMAP
0003E000
0003E000
0003E000
0003C000
00000000
00000000
07FFFFE0
07FFFFE0
07FFFFE0
07FFFFE0
000007C0
00000F80
00001F00
00003F00
00007E00
00007C00
0000F800
0001F000
0003E000
0007E000
000FC000
000F8000
001F0000
003E0000
007C0000
00F80000
01F80000
01F00000
03E00000
07C00000
0F800000
1F000000
3F000000
3E000000
7FFFFF00
FFFFFF00
FFFFFF00
FFFFFF00
ENDCHAR
STARTCHAR 017C
ENCODING 380
SWIDTH 495 0
DWIDTH 22 0
BBX 22 31 1 0
BITMAP
001F00
001F00
001F00
003E00
003E00
000000
000000
000000
0FFFFC
0FFFF8
1FFFF8
0001F0
0003E0
0007E0
000FC0
000F80
001F00
003E00
007C00
00F800
01F000
03E000
07C000
0FC000
0F8000
1F0000
3E0000
7C0000
FFFFE0
FFFFE0
FFFFE0
ENDCHAR
STARTCHAR 017D
ENCODING 381
SWIDTH 607 0
DWIDTH 27 0
BBX 27 40 1 0
BITMAP
001C1E00
001E3C00
000E7800
000EF000
000FE000
0007C000
00000000
00000000
07FFFFE0
07FFFFE0
07FFFFE0
07FFFFE0
000007C0
00000F80
00001F00
00003F00
00007E00
00007C00
0000F800
0001F000
0003E000
0007E000
000FC000
000F8000
001F0000
003E0000
007C0000
00F80000
01F80000
01F00000
03E00000
07C00000
0F800000
1F000000
3F000000
3E000000
7FFFFF00
FFFFFF00
FFFFFF00
FFFFFF00
ENDCHAR
STARTCHAR 017E
ENCODING 382
SWIDTH 495 0
DWIDTH 22 0
BBX 22 32 1 0
BITMAP
00E0F0
00F1E0
0073C0
007F80
003F00
003F00
000000
000000
000000
0FFFFC
0FFFF8
1FFFF8
0001F0
0003E0
0007E0
000FC0
000F80
001F00
003E00
007C00
00F800
01F000
03E000
07C000
0FC000
0F8000
1F0000
3E0000
7C0000
FFFFE0
FFFFE0
FFFFE0
ENDCHAR
STARTCHAR 017F
ENCODING 383
SWIDTH 225 0
DWIDTH 10 0
BBX 16 32 1 0
BITMAP
00FF
01FF
01FF
03E1
03C0
03C0
0780
0780
0780
0780
0780
0F00
0F00
0F00
0F00
0F00
1E00
1E00
1E00
1E00
1E00
3C00
3C00
3C00
3C00
3800
7800
7800
7800
7800
F000
F000
ENDCHAR
STARTCHAR 018F
ENCODING 399
SWIDTH 787 0
DWIDTH 35 0
BBX 29 33 4 -1
BITMAP
000FFC00
003FFF00
00FFFF80
01FC1FC0
03E007E0
07C003E0
0F8001F0
0F0000F0
1F0000F8
060000F8
00000078
00000078
00000078
00000078
7FFFFFF8
FFFFFFF8
FFFFFFF8
F00000F8
F00000F0
F00000F0
F00000F0
F80001F0
F80001E0
780003E0
780007C0
7C000F80
3C000F80
3E003F00
1F80FE00
0FFFFC00
07FFF000
01FFC000
00180000
ENDCHAR
STARTCHAR 0192
ENCODING 402
SWIDTH 562 0
DWIDTH 25 0
BBX 23 41 1 -9
BITMAP
0003FE
0007FC
0007FC
000F8C
000F00
000F00
000F00
001E00
001E00
01FFF0
01FFE0
03FFE0
001E00
003C00
003C00
003C00
003C00
003C00
003800
007800
007800
007800
007800
007800
007000
00F000
00F000
00F000
00F000
00F000
00E000
01E000
01E000
01E000
01E000
01E000
03C000
03C000
7FC000
FF8000
FF0000
ENDCHAR
STARTCHAR 01A0
ENCODING 416
SWIDTH 810 0
DWIDTH 36 0
BBX 36 33 4 -1
BITMAP
000FFC01F0
007FFF01F0
00FFFFC1E0
03FC1FE1E0
07F003E1E0
0FC001F060
0F8000F8C0
1F000078C0
3E00007D80
3E00007F80
3C00003E00
7C00003C00
7800003C00
7800003C00
F800003C00
F800003C00
F000003C00
F000003C00
F000007C00
F000007C00
F000007800
F80000F800
780000F000
780001F000
7C0003E000
3C0003E000
3E0007C000
1F801F8000
0FE07F0000
07FFFE0000
03FFF80000
00FFE00000
0004000000
ENDCHAR
STARTCHAR 01A1
ENCODING 417
SWIDTH 607 0
DWIDTH 27 0
BBX 28 25 2 -1
BITMAP
000C0000
00FF80F0
03FFE1F0
07F7F1F0
0F80F9E0
1F007860
3E007C60
3C003C60
7C003CC0
78003D80
78003F80
70003E00
F0003C00
F0003C00
F0007800
F0007800
F0007800
F000F000
7801F000
7803E000
3C07C000
3FFF8000
1FFF0000
07FC0000
00400000
ENDCHAR
STARTCHAR 01AF
ENCODING 431
SWIDTH 787 0
DWIDTH 35 0
BBX 37 33 4 -1
BITMAP
07800078F8
07800078F8
0F800078F0
0F000078F0
0F0000F8F0
0F0000F030
1F0000F070
1F0000F060
1E0000F0E0
1E0001F3C0
1E0001FF00
3E0001F000
3C0001E000
3C0003E000
3C0003E000
3C0003C000
7C0003C000
780003C000
780007C000
780007C000
7800078000
F800078000
F8000F8000
F8000F0000
F8001F0000
78001F0000
7C003E0000
7E007C0000
3F01F80000
1FFFF00000
0FFFE00000
03FF800000
0010000000
ENDCHAR
STARTCHAR 01B0
ENCODING 432
SWIDTH 630 0
DWIDTH 28 0
BBX 29 23 3 -1
BITMAP
1E003CF8
1E0038F8
1E0078F8
1C0078F0
3C007830
3C007830
3C00F070
3C00F060
7800F0E0
7800FFC0
7800FF00
7801E000
7801E000
F001E000
F001E000
F003E000
F007C000
F007C000
F00FC000
F03FC000
FFFB8000
7FE38000
3FC78000
ENDCHAR
STARTCHAR 01CD
ENCODING 461
SWIDTH 675 0
DWIDTH 30 0
BBX 29 40 -1 0
BITMAP
0000F078
000070F0
000079E0
00003BC0
00003F80
00003F00
00000000
00000000
00003E00
00007E00
00007F00
0000FF00
0000FF00
0001EF00
0001EF00
0003CF00
0007C780
00078780
000F8780
000F0780
001F0780
001E0780
003E07C0
007C03C0
007803C0
00F803C0
00F003C0
01F003C0
01FFFFE0
03FFFFE0
07FFFFE0
078001E0
0F8001E0
0F0001E0
1F0001F0
1E0000F0
3E0000F0
3C0000F0
7C0000F0
F80000F0
ENDCHAR
STARTCHAR 01CE
ENCODING 462
SWIDTH 562 0
DWIDTH 25 0
BBX 21 32 2 -1
BITMAP
007078
0078F0
0039E0
003FC0
001F80
001F00
000000
000000
000C00
01FFC0
03FFF0
07FFF8
0F80F8
1F0078
1E0078
3C0078
000078
000078
003FF8
0FFFF8
1FFFF0
3F80F0
7C00F0
F800F0
F001F0
F001E0
F003E0
F007E0
F80FE0
7FFFE0
3FF9E0
1FF1E0
ENDCHAR
STARTCHAR 01CF
ENCODING 463
SWIDTH 270 0
DWIDTH 12 0
BBX 17 40 3 0
BITMAP
0E0F80
0F0F00
071E00
07BC00
03F800
03F000
000000
000000
03C000
03C000
03C000
07C000
07C000
078000
078000
078000
0F8000
0F0000
0F0000
0F0000
0F0000
1F0000
1E0000
1E0000
1E0000
1E0000
3E0000
3C0000
3C0000
3C0000
3C0000
7C0000
780000
780000
780000
F80000
F80000
F00000
F00000
F00000
ENDCHAR
STARTCHAR 01D0
ENCODING 464
SWIDTH 225 0
DWIDTH 10 0
BBX 15 32 1 0
BITMAP
1C1E
1E3C
0E78
0FF0
07E0
07E0
0000
0000
0000
0780
0780
0780
0F00
0F00
0F00
0F00
0E00
1E00
1E00
1E00
1E00
1C00
3C00
3C00
3C00
3C00
7800
7800
7800
7800
7800
F000
ENDCHAR
STARTCHAR 01D1
ENCODING 465
SWIDTH 787 0
DWIDTH 35 0
BBX 30 41 4 -1
BITMAP
00070780
00078F00
00039E00
0003BC00
0003F800
0001F000
00000000
00000000
000FFC00
007FFF00
00FFFFC0
01FC1FE0
07F003E0
0FC001F0
0F8000F8
1F000078
3E00007C
3E00007C
3C00003C
7C00003C
7800003C
7800003C
F800003C
F000003C
F000003C
F000003C
F000007C
F000007C
F0000078
F80000F8
780000F0
780001F0
7C0003E0
3C0003E0
3E000FC0
1F801F80
0FE07F00
07FFFE00
03FFF800
00FFE000
00040000
ENDCHAR
STARTCHAR 01D2
ENCODING 466
SWIDTH 562 0
DWIDTH 25 0
BBX 22 33 2 -1
BITMAP
007078
0078F0
0039E0
003FC0
001F80
001F00
000000
000000
000C00
00FF80
03FFE0
07F7F0
0F80F8
1F0078
3E007C
3C003C
7C003C
78003C
78003C
78003C
F0003C
F0003C
F00078
F00078
F00078
F000F0
7801F0
7803E0
3C07C0
3FFF80
1FFF00
07FC00
004000
ENDCHAR
STARTCHAR 01D3
ENCODING 467
SWIDTH 720 0
DWIDTH 32 0
BBX 29 41 4 -1
BITMAP
000F0780
00070F00
00079E00
0003BC00
0003F800
0003F000
00000000
00000000
07800078
07800078
0F800078
0F000078
0F0000F8
0F0000F0
1F0000F0
1F0000F0
1E0000F0
1E0001F0
1E0001E0
3E0001E0
3C0001E0
3C0003E0
3C0003E0
3C0003C0
7C0003C0
780003C0
780007C0
780007C0
78000780
F8000780
F8000F80
F8000F00
F8001F00
78001F00
7C003E00
7E007C00
3F01F800
1FFFF000
0FFFE000
03FF8000
00100000
ENDCHAR
STARTCHAR 01D4
ENCODING 468
SWIDTH 562 0
DWIDTH 25 0
BBX 22 32 3 -1
BITMAP
007078
0070F0
0079E0
003BC0
003F80
001F00
000000
000000
000000
1E003C
1E0038
1E0078
1C0078
3C0078
3C0078
3C00F0
3C00F0
7800F0
7800F0
7800F0
7801E0
7801E0
F001E0
F001E0
F003E0
F007C0
F007C0
F00FC0
F03FC0
FFFB80
7FE380
3FC780
ENDCHAR
STARTCHAR 01D5
ENCODING 469
SWIDTH 720 0
DWIDTH 32 0
BBX 29 41 4 -1
BITMAP
0007FF00
0007FF00
0007FF00
00000000
000E0700
000E0600
000E0E00
000E0E00
07800078
07800078
0F800078
0F000078
0F0000F8
0F0000F0
1F0000F0
1F0000F0
1E0000F0
1E0001F0
1E0001E0
3E0001E0
3C0001E0
3C0003E0
3C0003E0
3C0003C0
7C0003C0
780003C0
780007C0
780007C0
78000780
F8000780
F8000F80
F8000F00
F8001F00
78001F00
7C003E00
7E007C00
3F01F800
1FFFF000
0FFFE000
03FF8000
00100000
ENDCHAR
STARTCHAR 01D6
ENCODING 470
SWIDTH 562 0
DWIDTH 25 0
BBX 22 38 3 -1
BITMAP
00FFFC
00FFF8
00FFF8
000000
000000
000000
000000
00F0F0
01F1F0
01E1E0
01E1E0
000000
000000
000000
000000
1E003C
1E0038
1E0078
1C0078
3C0078
3C0078
3C00F0
3C00F0
7800F0
7800F0
7800F0
7801E0
7801E0
F001E0
F001E0
F003E0
F007C0
F007C0
F00FC0
F03FC0
FFFB80
7FE380
3FC780
ENDCHAR
STARTCHAR 01D7
ENCODING 471
SWIDTH 720 0
DWIDTH 32 0
BBX 29 41 4 -1
BITMAP
00001F00
00003C00
00007800
0000E000
000E0700
000E0600
000E0E00
000E0E00
07800078
07800078
0F800078
0F000078
0F0000F8
0F0000F0
1F0000F0
1F0000F0
1E0000F0
1E0001F0
1E0001E0
3E0001E0
3C0001E0
3C0003E0
3C0003E0
3C0003C0
7C0003C0
780003C0
780007C0
780007C0
78000780
F8000780
F8000F80
F8000F00
F8001F00
78001F00
7C003E00
7E007C00
3F01F800
1FFFF000
0FFFE000
03FF8000
00100000
ENDCHAR
STARTCHAR 01D8
ENCODING 472
SWIDTH 562 0
DWIDTH 25 0
BBX 22 40 3 -1
BITMAP
0000F8
0001F0
0003E0
0003C0
000780
000F00
000000
000000
000000
00F0F0
01F1F0
01E1E0
01E1E0
000000
000000
000000
000000
1E003C
1E0038
1E0078
1C0078
3C0078
3C0078
3C00F0
3C00F0
7800F0
7800F0
7800F0
7801E0
7801E0
F001E0
F001E0
F003E0
F007C0
F007C0
F00FC0
F03FC0
FFFB80
7FE380
3FC780
ENDCHAR
STARTCHAR 01D9
ENCODING 473
SWIDTH 720 0
DWIDTH 32 0
BBX 29 41 4 -1
BITMAP
0003CE00
0001DC00
0000F800
0000F000
000E0700
000E0600
000E0E00
000E0E00
07800078
07800078
0F800078
0F000078
0F0000F8
0F0000F0
1F0000F0
1F0000F0
1E0000F0
1E0001F0
1E0001E0
3E0001E0
3C0001E0
3C0003E0
3C0003E0
3C0003C0
7C0003C0
780003C0
780007C0
780007C0
78000780
F8000780
F8000F80
F8000F00
F8001F00
78001F00
7C003E00
7E007C00
3F01F800
1FFFF000
0FFFE000
03FF8000
00100000
ENDCHAR
STARTCHAR 01DA
ENCODING 474
SWIDTH 562 0
DWIDTH 25 0
BBX 22 40 3 -1
BITMAP
00383C
003C78
001CF0
001FE0
000FC0
000F80
000000
000000
000000
00F0F0
01F1F0
01E1E0
01E1E0
000000
000000
000000
000000
1E003C
1E0038
1E0078
1C0078
3C0078
3C0078
3C00F0
3C00F0
7800F0
7800F0
7800F0
7801E0
7801E0
F001E0
F001E0
F003E0
F007C0
F007C0
F00FC0
F03FC0
FFFB80
7FE380
3FC780
ENDCHAR
STARTCHAR 01DB
ENCODING 475
SWIDTH 720 0
DWIDTH 32 0
BBX 29 41 4 -1
BITMAP
0003E000
0001E000
0000F000
00007000
000E0700
000E0600
000E0E00
000E0E00
07800078
07800078
0F800078
0F000078
0F0000F8
0F0000F0
1F0000F0
1F0000F0
1E0000F0
1E0001F0
1E0001E0
3E0001E0
3C0001E0
3C0003E0
3C0003E0
3C0003C0
7C0003C0
780003C0
780007C0
780007C0
78000780
F8000780
F8000F80
F8000F00
F8001F00
78001F00
7C003E00
7E007C00
3F01F800
1FFFF000
0FFFE000
03FF8000
00100000
ENDCHAR
STARTCHAR 01DC
ENCODING 476
SWIDTH 562 0
DWIDTH 25 0
BBX 22 40 3 -1
BITMAP
003C00
003E00
001E00
000F00
000700
000780
000000
000000
000000
00F0F0
01F1F0
01E1E0
01E1E0
000000
000000
000000
000000
1E003C
1E0038
1E0078
1C0078
3C0078
3C0078
3C00F0
3C00F0
7800F0
7800F0
7800F0
7801E0
7801E0
F001E0
F001E0
F003E0
F007C0
F007C0
F00FC0
F03FC0
FFFB80
7FE380
3FC780
ENDCHAR
STARTCHAR 01FA
ENCODING 506
SWIDTH 675 0
DWIDTH 30 0
BBX 28 44 -1 0
BITMAP
000001F0
000003E0
000003C0
00000780
00000F00
00000E00
00001F00
00003380
00006180
00006080
00006180
00003180
00003F00
00007E00
00007F00
0000FF00
0000FF00
0001EF00
0001EF00
0003CF00
0007C780
00078780
000F8780
000F0780
001F0780
001E0780
003E07C0
007C03C0
007803C0
00F803C0
00F003C0
01F003C0
01FFFFE0
03FFFFE0
07FFFFE0
078001E0
0F8001E0
0F0001E0
1F0001F0
1E0000F0
3E0000F0
3C0000F0
7C0000F0
F80000F0
ENDCHAR
STARTCHAR 01FB
ENCODING 507
SWIDTH 562 0
DWIDTH 25 0
BBX 21 41 2 -1
BITMAP
0000F8
0001F0
0001E0
0003C0
000780
000700
000000
000000
000400
001F80
003180
0030C0
0020C0
0030C0
003980
001F00
000000
000C00
01FFC0
03FFF0
07FFF8
0F80F8
1F0078
1E0078
3C0078
000078
000078
003FF8
0FFFF8
1FFFF0
3F80F0
7C00F0
F800F0
F001F0
F001E0
F003E0
F007E0
F80FE0
7FFFE0
3FF9E0
1FF1E0
ENDCHAR
STARTCHAR 01FC
ENCODING 508
SWIDTH 990 0
DWIDTH 44 0
BBX 48 40 -2 0
BITMAP
00000003E000
00000003C000
000000078000
0000000F0000
0000000E0000
0000001C0000
000000000000
000000000000
00000FFFFFFF
00001FFFFFFF
00003FFFFFFF
00003FFFFFFF
00007C1E0000
0000F83E0000
0000F83E0000
0001F03C0000
0001E03C0000
0003E03C0000
0007C07C0000
0007807C0000
000F80780000
000F00780000
001F00FFFFFC
003E00FFFFF8
003C00FFFFF8
007C00F00000
00F800F00000
00FFFFF00000
01FFFFF00000
01FFFFF00000
03FFFFE00000
07C001E00000
07C003E00000
0F8003E00000
0F0003C00000
1F0003C00000
3E0003FFFFF0
3E0007FFFFF0
7C0007FFFFF0
F80007FFFFF0
ENDCHAR
STARTCHAR 01FD
ENCODING 509
SWIDTH 900 0
DWIDTH 40 0
BBX 36 33 2 -1
BITMAP
000003E000
000007C000
00000F8000
00000F0000
00001E0000
00003C0000
0000000000
0000000000
000C001000
01FF81FF00
03FFE7FF80
07F7FFEFC0
0F80FF01E0
1E00FE00F0
1E007C00F0
3C00780070
0000780070
0000F00070
003FFFFFF0
0FFFFFFFF0
3FFFFFFFF0
7FC1E00000
7801E00000
F001E00000
F001E001C0
F003F001E0
F007F003C0
F007F80780
F81E7C1F80
7FFC7FFF00
3FF83FFE00
1FF00FF800
0100008000
ENDCHAR
STARTCHAR 01FE
ENCODING 510
SWIDTH 787 0
DWIDTH 35 0
BBX 30 42 4 -2
BITMAP
00001F00
00001E00
00003C00
00007800
00007000
0000E000
00000008
0000001C
000FFC1C
007FFF38
00FFFFF0
03FE1FE0
07F007E0
07C003F0
0F8007F8
1F000778
1E000E7C
3E001C7C
3C003C3C
7C00783C
7800F03C
7800E03C
F801C03C
F003803C
F007803C
F00F003C
F01E007C
F01C007C
F0380078
F87000F8
78F000F0
79E001F0
7FC003E0
3F8003E0
3F000FC0
1F801F80
1FE07F00
3FFFFE00
7BFFF800
70FFE000
E0040000
40000000
ENDCHAR
STARTCHAR 01FF
ENCODING 511
SWIDTH 607 0
DWIDTH 27 0
BBX 23 34 3 -2
BITMAP
0001F0
0003E0
0003C0
000780
000F00
000E00
000000
00000C
00040E
00FFDC
03FFF8
07FFF8
0F80F8
1F00FC
1E01FC
3E03BC
3C073C
3C0F1C
780E1C
781C1C
78383C
78703C
78F03C
78E07C
79C078
7B80F8
7F00F0
7F01F0
3E07E0
1FFFC0
3FFF80
77FE00
F00000
600000
ENDCHAR
STARTCHAR 0218
ENCODING 536
SWIDTH 675 0
DWIDTH 30 0
BBX 27 43 3 -11
BITMAP
003FF800
00FFFE00
01FFFF00
03F83F80
07C00FC0
078007C0
0F0003E0
0F0003E0
0F0001E0
0F800000
0F800000
07C00000
07F00000
03FE0000
00FF8000
007FE000
001FF800
0007FC00
0000FE00
00007F00
00001F00
30000F00
F0000F80
F0000F80
F8000F80
78000F00
7C001F00
7E003E00
3F80FE00
1FFFFC00
0FFFF000
03FFC000
00080000
00000000
00000000
007C0000
00780000
00780000
00180000
00380000
00700000
00E00000
01C00000
ENDCHAR
STARTCHAR 0219
ENCODING 537
SWIDTH 495 0
DWIDTH 22 0
BBX 20 35 2 -11
BITMAP
003000
01FF80
07FFC0
0FFFE0
0F01F0
1E00F0
1E00F0
1E00F0
1F0000
0FC000
0FF000
07FC00
01FF00
007F80
001FC0
0007C0
F003E0
F001E0
F001E0
F803C0
7C07C0
7FFF80
3FFF00
0FFC00
004000
000000
000000
03E000
03C000
03C000
00C000
018000
038000
070000
0E0000
ENDCHAR
STARTCHAR 021A
ENCODING 538
SWIDTH 607 0
DWIDTH 27 0
BBX 25 44 6 -12
BITMAP
FFFFFF80
FFFFFF80
FFFFFF80
FFFFFF80
003C0000
003C0000
007C0000
00780000
00780000
00780000
00780000
00F80000
00F00000
00F00000
00F00000
00F00000
01F00000
01E00000
01E00000
01E00000
03E00000
03E00000
03C00000
03C00000
03C00000
07C00000
07800000
07800000
07800000
07800000
0F800000
0F000000
00000000
00000000
00000000
1F000000
1F000000
1E000000
1E000000
06000000
06000000
0C000000
38000000
30000000
ENDCHAR
STARTCHAR 021B
ENCODING 539
SWIDTH 270 0
DWIDTH 12 0
BBX 12 42 2 -11
BITMAP
0040
01C0
03C0
0780
0780
0780
0780
0780
7FF0
7FF0
7FF0
0F00
0E00
1E00
1E00
1E00
1E00
3C00
3C00
3C00
3C00
3C00
7800
7800
7800
7800
7800
7800
7F00
7F00
3F00
0000
0000
0000
3C00
7800
7800
7800
1800
3000
6000
C000
ENDCHAR
STARTCHAR 0259
ENCODING 601
SWIDTH 562 0
DWIDTH 25 0
BBX 21 25 3 -1
BITMAP
001000
01FF80
07FFC0
0FFFE0
1F81F0
3E00F0
3C00F0
780078
380078
000078
000078
000078
FFFFF8
FFFFF8
E000F0
E000F0
E000F0
F001E0
F003E0
F003C0
780F80
3FFF00
1FFE00
0FF800
008000
ENDCHAR
STARTCHAR 02C6
ENCODING 710
SWIDTH 337 0
DWIDTH 15 0
BBX 12 6 5 26
BITMAP
07C0
0FC0
1FE0
3CE0
78E0
F0F0
ENDCHAR
STARTCHAR 02C7
ENCODING 711
SWIDTH 337 0
DWIDTH 15 0
BBX 12 6 6 26
BITMAP
E0F0
F1E0
73C0
7F80
3F00
3E00
ENDCHAR
STARTCHAR 02C9
ENCODING 713
SWIDTH 337 0
DWIDTH 15 0
BBX 13 3 5 27
BITMAP
FFF8
FFF8
FFF8
ENDCHAR
STARTCHAR 02D8
ENCODING 728
SWIDTH 337 0
DWIDTH 15 0
BBX 13 6 5 25
BITMAP
C038
E070
E0F0
7FE0
3FC0
0E00
ENDCHAR
STARTCHAR 02D9
ENCODING 729
SWIDTH 337 0
DWIDTH 15 0
BBX 5 5 9 26
BITMAP
78
F8
F8
F8
F8
ENDCHAR
STARTCHAR 02DA
ENCODING 730
SWIDTH 337 0
DWIDTH 15 0
BBX 8 8 7 25
BITMAP
08
7E
67
C3
C3
C3
66
3C
ENDCHAR
STARTCHAR 02DB
ENCODING 731
SWIDTH 337 0
DWIDTH 15 0
BBX 9 10 3 -9
BITMAP
7000
6000
E000
E000
C000
E000
E000
FF80
FF00
7E00
ENDCHAR
STARTCHAR 02DC
ENCODING 732
SWIDTH 337 0
DWIDTH 15 0
BBX 15 5 4 26
BITMAP
3F0E
7FFC
7FFC
E1F8
E020
ENDCHAR
STARTCHAR 02DD
ENCODING 733
SWIDTH 337 0
DWIDTH 15 0
BBX 16 6 4 26
BITMAP
0F9F
1F3E
3E3C
3C78
78F0
F0E0
ENDCHAR
STARTCHAR 0300
ENCODING 768
SWIDTH 0 0
DWIDTH 0 0
BBX 7 6 -6 34
BITMAP
F8
78
3C
3C
1E
0E
ENDCHAR
STARTCHAR 0301
ENCODING 769
SWIDTH 0 0
DWIDTH 0 0
BBX 8 6 -3 34
BITMAP
1F
1E
3C
78
70
E0
ENDCHAR
STARTCHAR 0303
ENCODING 771
SWIDTH 0 0
DWIDTH 0 0
BBX 14 4 -14 34
BITMAP
7F1C
7FFC
FFF8
E1F0
ENDCHAR
STARTCHAR 0309
ENCODING 777
SWIDTH 0 0
DWIDTH 0 0
BBX 8 6 -4 34
BITMAP
F8
FF
0F
07
1E
78
ENDCHAR
STARTCHAR 0323
ENCODING 803
SWIDTH 0 0
DWIDTH 0 0
BBX 5 4 -20 -7
BITMAP
78
78
F8
F8
ENDCHAR
STARTCHAR 037E
ENCODING 894
SWIDTH 270 0
DWIDTH 12 0
BBX 11 29 1 -6
BITMAP
03E0
03C0
03C0
07C0
0000
0000
0000
0000
0000
0000
0000
0000
0000
0000
0000
0000
0000
0000
0000
3E00
3C00
3C00
3C00
0C00
1800
1800
3800
7000
E000
ENDCHAR
STARTCHAR 0384
ENCODING 900
SWIDTH 337 0
DWIDTH 15 0
BBX 8 6 9 26
BITMAP
1F
3E
3C
78
F0
E0
ENDCHAR
STARTCHAR 0385
ENCODING 901
SWIDTH 337 0
DWIDTH 15 0
BBX 18 6 2 26
BITMAP
007800
007000
78E3C0
71E3C0
F1C380
F38780
ENDCHAR
STARTCHAR 0386
ENCODING 902
SWIDTH 675 0
DWIDTH 30 0
BBX 28 32 -1 0
BITMAP
003F3E00
007C7E00
00F87E00
01F0FF00
03C0FF00
0001EF00
0003EF00
0003CF00
0007C700
00078780
000F8780
000F0780
001F0780
001E0780
003C0780
007C07C0
007803C0
00F803C0
00F003C0
01F003C0
01FFFFC0
03FFFFE0
07FFFFE0
078001E0
0F8001E0
0F0001E0
1F0001E0
1E0001F0
3E0000F0
7C0000F0
7C0000F0
F80000F0
ENDCHAR
STARTCHAR 0387
ENCODING 903
SWIDTH 270 0
DWIDTH 12 0
BBX 5 4 7 19
BITMAP
F8
F0
F0
F0
ENDCHAR
STARTCHAR 0388
ENCODING 904
SWIDTH 787 0
DWIDTH 35 0
BBX 35 32 2 0
BITMAP
0FCFFFFFE0
1F8FFFFFE0
3E1FFFFFC0
7C1FFFFFC0
F01E000000
001E000000
001E000000
003E000000
003C000000
003C000000
003C000000
003C000000
007C000000
0078000000
007FFFFE00
007FFFFE00
007FFFFE00
00F8000000
00F0000000
00F0000000
00F0000000
01F0000000
01F0000000
01E0000000
01E0000000
01E0000000
03E0000000
03E0000000
03FFFFFC00
03FFFFFC00
03FFFFFC00
07FFFFFC00
ENDCHAR
STARTCHAR 0389
ENCODING 905
SWIDTH 855 0
DWIDTH 38 0
BBX 36 32 3 0
BITMAP
1F9E0000F0
3F1E0000F0
7C1E0001F0
F83E0001E0
F03C0001E0
003C0001E0
003C0003E0
003C0003E0
007C0003C0
00780003C0
00780003C0
00780007C0
00F8000780
00FFFFFF80
00FFFFFF80
00FFFFFF80
00FFFFFF80
01F0000F00
01E0000F00
01E0000F00
01E0000F00
01E0001F00
03E0001E00
03C0001E00
03C0001E00
03C0001E00
03C0003E00
07C0003C00
0780003C00
0780003C00
0780007C00
0F80007C00
ENDCHAR
STARTCHAR 038A
ENCODING 906
SWIDTH 382 0
DWIDTH 17 0
BBX 16 32 2 0
BITMAP
0FCF
1F8F
3E1F
7C1F
F01E
001E
001E
003E
003C
003C
003C
003C
007C
0078
0078
0078
0078
00F8
00F0
00F0
00F0
01F0
01F0
01E0
01E0
01E0
03E0
03E0
03C0
03C0
03C0
07C0
ENDCHAR
STARTCHAR 038C
ENCODING 908
SWIDTH 787 0
DWIDTH 35 0
BBX 33 32 2 -1
BITMAP
0FC3FF0000
1F0FFFE000
3E3FFFF000
7C7F83F800
F0FC00FC00
01F8007E00
03E0003E00
03E0001F00
07C0000F00
0F80000F00
0F80000F80
0F00000F80
1F00000780
1E00000780
1E00000780
1E00000780
1E00000F80
1E00000F80
1E00000F00
1E00000F00
1E00001F00
1E00001E00
1E00003E00
1F00003E00
0F00007C00
0F8000F800
07C001F000
07E003F000
03F80FC000
01FFFF8000
007FFF0000
003FFC0000
ENDCHAR
STARTCHAR 038E
ENCODING 910
SWIDTH 855 0
DWIDTH 38 0
BBX 41 32 2 0
BITMAP
0FCF80000F80
1F0780001F00
3E07C0003E00
7C03C0007E00
F003E0007C00
0001E000F800
0001F001F000
0000F003F000
0000F807E000
00007807C000
00007C0F8000
00003C1F0000
00003E3F0000
00001E3E0000
00001F7C0000
00000FF80000
00000FF80000
000007F00000
000007E00000
000003C00000
000003C00000
000007C00000
000007800000
000007800000
000007800000
000007800000
00000F800000
00000F000000
00000F000000
00000F000000
00001F000000
00001F000000
ENDCHAR
STARTCHAR 038F
ENCODING 911
SWIDTH 765 0
DWIDTH 34 0
BBX 33 32 1 0
BITMAP
07E1FF8000
0F87FFE000
1F1FFFF000
3C3F83F800
787E00FC00
00FC003E00
01F0001E00
01F0001F00
03E0000F00
03C0000F80
07C0000780
0780000780
0F80000780
0F00000780
0F00000780
0F00000780
0F00000780
0F00000780
0F00000F80
0F00000F00
0F00000F00
0F00001F00
0F00001E00
0780003C00
0780007C00
03C0007800
01E001F000
01F003E000
FFF80FFF00
FFFC1FFF00
FFF81FFF00
FFF81FFF00
ENDCHAR
STARTCHAR 0390
ENCODING 912
SWIDTH 225 0
DWIDTH 10 0
BBX 17 32 0 0
BITMAP
007800
00F000
F1E380
F1C780
F38780
F30780
000000
000000
000000
03C000
03C000
03C000
078000
078000
078000
078000
070000
0F0000
0F0000
0F0000
0F0000
0E0000
1E0000
1E0000
1E0000
1E0000
3C0000
3C0000
3C0000
3C0000
3C0000
780000
ENDCHAR
STARTCHAR 0391
ENCODING 913
SWIDTH 675 0
DWIDTH 30 0
BBX 28 32 -1 0
BITMAP
00003E00
00007E00
00007F00
0000FF00
0000FF00
0001EF00
0001EF00
0003CF00
0007C780
00078780
000F8780
000F0780
001F0780
001E0780
003E07C0
007C03C0
007803C0
00F803C0
00F003C0
01F003C0
01FFFFE0
03FFFFE0
07FFFFE0
078001E0
0F8001E0
0F0001E0
1F0001F0
1E0000F0
3E0000F0
3C0000F0
7C0000F0
F80000F0
ENDCHAR
STARTCHAR 0392
ENCODING 914
SWIDTH 675 0
DWIDTH 30 0
BBX 27 32 2 0
BITMAP
01FFF800
03FFFF00
03FFFF80
03FFFFC0
03C007C0
07C003E0
07C001E0
078001E0
078001E0
078001E0
0F8001E0
0F0003C0
0F0007C0
0F003F80
0FFFFE00
1FFFF800
1FFFFF00
1E00FF80
1E0007C0
1E0007C0
3E0003C0
3C0003C0
3C0003C0
3C0003C0
7C0007C0
7C0007C0
78000F80
78001F80
7FFFFF00
FFFFFE00
FFFFF800
FFFFE000
ENDCHAR
STARTCHAR 0393
ENCODING 915
SWIDTH 562 0
DWIDTH 25 0
BBX 27 32 2 0
BITMAP
03FFFFE0
03FFFFE0
03FFFFE0
03FFFFE0
03C00000
07C00000
07800000
07800000
07800000
07800000
0F800000
0F000000
0F000000
0F000000
0F000000
1F000000
1E000000
1E000000
1E000000
3E000000
3E000000
3C000000
3C000000
3C000000
7C000000
78000000
78000000
78000000
78000000
F8000000
F0000000
F0000000
ENDCHAR
STARTCHAR 0394
ENCODING 916
SWIDTH 675 0
DWIDTH 30 0
BBX 28 32 0 0
BITMAP
00007E00
00007E00
0000FE00
0000FE00
0001EE00
0001EE00
0003CF00
0007CF00
00078F00
000F8F00
000F0F00
001F0F00
001E0780
003E0780
007C0780
00780780
00F80780
00F00780
01F003C0
01E003C0
03E003C0
03C003C0
07C003C0
0F8003C0
0F0003E0
1F0001E0
1E0001E0
3E0001E0
3FFFFFE0
7FFFFFE0
FFFFFFF0
FFFFFFF0
ENDCHAR
STARTCHAR 0395
ENCODING 917
SWIDTH 675 0
DWIDTH 30 0
BBX 30 32 2 0
BITMAP
01FFFFFC
03FFFFF8
03FFFFF8
03FFFFF8
03C00000
03C00000
07C00000
07800000
07800000
07800000
0F800000
0F800000
0F000000
0F000000
0FFFFFC0
1FFFFFC0
1FFFFFC0
1E000000
1E000000
1E000000
3E000000
3C000000
3C000000
3C000000
3C000000
7C000000
78000000
78000000
7FFFFF80
7FFFFF80
FFFFFF80
FFFFFF00
ENDCHAR
STARTCHAR 0396
ENCODING 918
SWIDTH 607 0
DWIDTH 27 0
BBX 27 32 1 0
BITMAP
07FFFFE0
07FFFFE0
07FFFFE0
07FFFFE0
000007C0
00000F80
00001F00
00003F00
00007E00
00007C00
0000F800
0001F000
0003E000
0007E000
000FC000
000F8000
001F0000
003E0000
007C0000
00F80000
01F80000
01F00000
03E00000
07C00000
0F800000
1F000000
3F000000
3E000000
7FFFFF00
FFFFFF00
FFFFFF00
FFFFFF00
ENDCHAR
STARTCHAR 0397
ENCODING 919
SWIDTH 720 0
DWIDTH 32 0
BBX 31 32 2 0
BITMAP
03E0001E
03C0001E
03C0001E
03C0001E
03C0003E
07C0003C
0780003C
0780003C
0780003C
0780007C
0F800078
0F000078
0F000078
0FFFFFF8
0FFFFFF8
1FFFFFF0
1FFFFFF0
1E0000F0
1E0001F0
3E0001E0
3E0001E0
3C0001E0
3C0001E0
3C0003E0
7C0003C0
780003C0
780003C0
780003C0
780007C0
F8000780
F0000780
F0000780
ENDCHAR
STARTCHAR 0398
ENCODING 920
SWIDTH 787 0
DWIDTH 35 0
BBX 30 33 4 -1
BITMAP
000FFC00
007FFF00
00FFFFC0
03FC1FE0
07F003E0
07C001F0
0F8000F8
1F000078
1E00007C
3E00003C
3C00003C
7C00003C
7800003C
7800003C
F83FF83C
F07FF83C
F07FF83C
F07FF83C
F000007C
F000007C
F0000078
F80000F8
780000F8
780001F0
7C0003E0
3C0003E0
3E0007C0
1F801F80
0FE07F00
07FFFE00
03FFF800
00FFE000
00040000
ENDCHAR
STARTCHAR 0399
ENCODING 921
SWIDTH 270 0
DWIDTH 12 0
BBX 10 32 3 0
BITMAP
03C0
03C0
03C0
07C0
07C0
0780
0780
0780
0F80
0F00
0F00
0F00
0F00
1F00
1E00
1E00
1E00
1E00
3E00
3C00
3C00
3C00
3C00
7C00
7800
7800
7800
F800
F800
F000
F000
F000
ENDCHAR
STARTCHAR 039A
ENCODING 922
SWIDTH 675 0
DWIDTH 30 0
BBX 31 32 2 0
BITMAP
01E0007E
03E001F8
03C003F0
03C007E0
03C00FC0
03C01F80
07C03F00
07807E00
0780F800
0783F000
0F87E000
0F8FC000
0F1F8000
0F3F0000
0F7F8000
1FFFC000
1FF7C000
1FE3E000
1FC1E000
1F81F000
3F00F000
3E00F800
3C007C00
3C007C00
3C003E00
7C001E00
78001F00
78000F00
78000F80
F80007C0
F80007C0
F00003E0
ENDCHAR
STARTCHAR 039B
ENCODING 923
SWIDTH 675 0
DWIDTH 30 0
BBX 28 32 0 0
BITMAP
00007C00
0000FC00
0000FC00
0001FC00
0001FC00
0003DE00
0003DE00
00079E00
000F9E00
000F1E00
001F1F00
001E0F00
003E0F00
003C0F00
00780F00
00780F80
00F00780
00F00780
01E00780
03E00780
03C00780
07C003C0
078003C0
0F8003C0
0F0003C0
1E0003C0
1E0003E0
3C0001E0
7C0001E0
780001E0
F80001E0
F00001F0
ENDCHAR
STARTCHAR 039C
ENCODING 924
SWIDTH 832 0
DWIDTH 37 0
BBX 37 32 2 0
BITMAP
01F00001F8
03F00001F0
03F00003F0
03F00003F0
03F80007F0
07F8000FF0
07B8000FE0
07B8001EE0
07B8001FE0
07B8003DE0
0FB8003DE0
0F3C007BC0
0F3C00F3C0
0F3C00F3C0
0F3C01E3C0
1F1C01E3C0
1E1C03C780
1E1E03C780
1E1E078780
1E1E070780
3C1E0F0F80
3C0E1E0F00
3C0E1E0F00
3C0E3C0F00
3C0F3C0F00
780F781E00
780F701E00
780FF01E00
7807E01E00
F807E03E00
F007C03C00
F007C03C00
ENDCHAR
STARTCHAR 039D
ENCODING 925
SWIDTH 720 0
DWIDTH 32 0
BBX 32 32 2 0
BITMAP
01E0001F
01F0001E
03F0001E
03F0001E
03F8001E
03F8003E
03BC003C
07BC003C
079E003C
079E003C
078F0078
0F8F0078
0F0F8078
0F078078
0F0780F8
0F03C0F0
1F03C0F0
1E01E0F0
1E01E0F0
1E01F1F0
1E00F1E0
3E00F1E0
3C0079E0
3C0079E0
3C0039E0
3C003FC0
78003FC0
78001FC0
78001FC0
78000FC0
F8000F80
F0000780
ENDCHAR
STARTCHAR 039E
ENCODING 926
SWIDTH 652 0
DWIDTH 29 0
BBX 31 32 0 0
BITMAP
00FFFFFE
00FFFFFC
00FFFFFC
00FFFFFC
00000000
00000000
00000000
00000000
00000000
00000000
00000000
00000000
00000000
00000000
03FFFFE0
03FFFFE0
07FFFFE0
00000000
00000000
00000000
00000000
00000000
00000000
00000000
00000000
00000000
00000000
00000000
7FFFFFC0
7FFFFFC0
FFFFFFC0
FFFFFF80
ENDCHAR
STARTCHAR 039F
ENCODING 927
SWIDTH 787 0
DWIDTH 35 0
BBX 30 33 4 -1
BITMAP
000FFC00
007FFF00
00FFFFC0
01FC1FE0
07F003E0
0FC001F0
0F8000F8
1F000078
3E00007C
3E00007C
3C00003C
7C00003C
7800003C
7800003C
F800003C
F000003C
F000003C
F000003C
F000007C
F000007C
F0000078
F80000F8
780000F0
780001F0
7C0003E0
3C0003E0
3E000FC0
1F801F80
0FE07F00
07FFFE00
03FFF800
00FFE000
00040000
ENDCHAR
STARTCHAR 03A0
ENCODING 928
SWIDTH 720 0
DWIDTH 32 0
BBX 31 32 2 0
BITMAP
03FFFFFE
03FFFFFE
03FFFFFE
03FFFFFE
03C0003E
07C0003C
07C0003C
0780003C
0780003C
0780007C
0F800078
0F800078
0F000078
0F000078
0F0000F8
1F0000F0
1E0000F0
1E0000F0
1E0000F0
3E0001E0
3E0001E0
3C0001E0
3C0001E0
3C0003E0
7C0003C0
7C0003C0
780003C0
780003C0
780007C0
F8000780
F0000780
F0000780
ENDCHAR
STARTCHAR 03A1
ENCODING 929
SWIDTH 675 0
DWIDTH 30 0
BBX 29 32 2 0
BITMAP
03FFFE00
03FFFFC0
03FFFFE0
03FFFFF0
03C001F0
07C000F8
07800078
07800078
07800078
07800078
0F8000F8
0F0000F0
0F0001F0
0F0003F0
0F0007E0
1F01FFC0
1FFFFF80
1FFFFE00
1FFFF000
1E000000
3E000000
3C000000
3C000000
3C000000
7C000000
7C000000
78000000
78000000
78000000
F8000000
F0000000
F0000000
ENDCHAR
STARTCHAR 03A3
ENCODING 931
SWIDTH 607 0
DWIDTH 27 0
BBX 29 32 1 0
BITMAP
01FFFFF8
03FFFFF0
03FFFFF0
03FFFFF0
03E00000
01F00000
01F80000
00F80000
007C0000
003E0000
003F0000
001F0000
000F8000
0007C000
0003E000
0003F000
0003F000
0007E000
001F8000
003F0000
007E0000
00FC0000
01F80000
03F00000
07E00000
0FC00000
3F800000
7E000000
7FFFFE00
FFFFFC00
FFFFFC00
FFFFFC00
ENDCHAR
STARTCHAR 03A4
ENCODING 932
SWIDTH 607 0
DWIDTH 27 0
BBX 25 32 6 0
BITMAP
FFFFFF80
FFFFFF80
FFFFFF80
FFFFFF80
003C0000
003C0000
007C0000
00780000
00780000
00780000
00780000
00F80000
00F00000
00F00000
00F00000
00F00000
01F00000
01E00000
01E00000
01E00000
03E00000
03E00000
03C00000
03C00000
03C00000
07C00000
07800000
07800000
07800000
07800000
0F800000
0F000000
ENDCHAR
STARTCHAR 03A5
ENCODING 933
SWIDTH 675 0
DWIDTH 30 0
BBX 29 32 5 0
BITMAP
F80000F8
780001F0
7C0003F0
3C0003E0
3E0007C0
1E000F80
1F001F80
0F003F00
0F803E00
07807C00
07C0F800
03C1F800
03E1F000
01E3E000
01F7C000
00F7C000
00FF8000
007F0000
007E0000
003E0000
003C0000
003C0000
007C0000
00780000
00780000
00780000
00780000
00F80000
00F00000
00F00000
00F00000
00F00000
ENDCHAR
STARTCHAR 03A6
ENCODING 934
SWIDTH 832 0
DWIDTH 37 0
BBX 33 34 4 -1
BITMAP
00003C0000
00007C0000
0000780000
0000780000
0001FC0000
003FFFC000
01FFFFF000
03FFFFF800
0FF8F1FC00
1FC0F03E00
1F00F01F00
3E01F00F00
7C01E00F00
7801E00F80
7801E00780
F003E00780
F003C00F80
F003C00F00
F003C00F00
F003C01F00
F007C01E00
F807803E00
7807807C00
7C0781FC00
3F0F87F800
1FFFFFE000
0FFFFFC000
03FFFF0000
007FF00000
001F000000
001E000000
001E000000
001E000000
001E000000
ENDCHAR
STARTCHAR 03A7
ENCODING 935
SWIDTH 675 0
DWIDTH 30 0
BBX 35 32 -1 0
BITMAP
03E00007E0
03E0000FC0
01F0001F80
00F0003F00
00F8003E00
0078007C00
007C00F800
003E01F000
001E03E000
001F07C000
000F0FC000
000F9F8000
0007BF0000
0007FE0000
0003FC0000
0001F80000
0003F00000
0007F00000
000FF80000
001FF80000
003F3C0000
007E3E0000
007C1E0000
00F81F0000
01F00F0000
03E00F8000
07C0078000
0F8007C000
1F8003E000
3F0003E000
7E0001F000
FC0000F000
ENDCHAR
STARTCHAR 03A8
ENCODING 936
SWIDTH 832 0
DWIDTH 37 0
BBX 34 32 5 0
BITMAP
1E00F803C0
3E00F003C0
3C00F003C0
3C00F007C0
3C01F00780
3C01E00780
7C01E00780
7801E00780
7801E00F80
7803E00F00
7803C00F00
7803C01F00
F803C01F00
7803C01E00
7807C03E00
7807807C00
7C0780FC00
3F0781F800
3FEFBFF000
0FFFFFC000
07FFFF8000
00FFFC0000
000F000000
001F000000
001E000000
001E000000
001E000000
001E000000
003E000000
003C000000
003C000000
003C000000
ENDCHAR
STARTCHAR 03A9
ENCODING 937
SWIDTH 765 0
DWIDTH 34 0
BBX 34 32 0 0
BITMAP
0000FFC000
0003FFF000
000FFFF800
001FC1FC00
003F007E00
007C003E00
00F8001F00
01F0000F00
01E0000F80
03E0000780
03C0000780
07C0000780
07800007C0
07800007C0
0F800007C0
0F800007C0
0F00000780
0F00000780
0F00000780
0F00000780
0F80000F00
0780000F00
0780001F00
0780001E00
03C0003C00
03E0007800
01E000F000
00F801E000
7FFC0FFF80
7FFC0FFF80
FFFC1FFF80
FFFC1FFF00
ENDCHAR
STARTCHAR 03AA
ENCODING 938
SWIDTH 270 0
DWIDTH 12 0
BBX 16 38 3 0
BITMAP
0F0F
0F0F
1F1F
1E1E
0000
0000
03C0
03C0
03C0
07C0
07C0
0780
0780
0780
0F80
0F00
0F00
0F00
0F00
1F00
1E00
1E00
1E00
1E00
3E00
3C00
3C00
3C00
3C00
7C00
7800
7800
7800
F800
F800
F000
F000
F000
ENDCHAR
STARTCHAR 03AB
ENCODING 939
SWIDTH 675 0
DWIDTH 30 0
BBX 29 38 5 0
BITMAP
003C3C00
00787800
00787800
00787800
00000000
00000000
F80000F8
780001F0
7C0003F0
3C0003E0
3E0007C0
1E000F80
1F001F80
0F003F00
0F803E00
07807C00
07C0F800
03C1F800
03E1F000
01E3E000
01F7C000
00F7C000
00FF8000
007F0000
007E0000
003E0000
003C0000
003C0000
007C0000
00780000
00780000
00780000
00780000
00F80000
00F00000
00F00000
00F00000
00F00000
ENDCHAR
STARTCHAR 03AC
ENCODING 940
SWIDTH 562 0
DWIDTH 25 0
BBX 24 32 2 -1
BITMAP
0003E0
0007C0
000780
000F00
001E00
001C00
000000
000000
001000
01FF0F
03FF8F
07FFDE
0F81DE
1F00FE
3E00FC
3C00FC
7C0078
780078
780070
780070
F000E0
F000E0
F000E0
F000E0
F001E0
F003E0
7803F0
7807F0
7C0FF0
3FFEF0
1FF8F0
0FF0F0
ENDCHAR
STARTCHAR 03AD
ENCODING 941
SWIDTH 450 0
DWIDTH 20 0
BBX 19 33 1 -1
BITMAP
0007C0
000F80
001F00
001E00
003C00
007800
000000
000000
001000
01FF00
03FFC0
07FFE0
0F81C0
0F0080
0F0000
0F0000
0F0000
0F0000
07E000
03F800
0FF000
1FF000
3E0000
7C0000
780000
780000
F80000
780200
780F00
7FFF80
3FFE00
0FF800
008000
ENDCHAR
STARTCHAR 03AE
ENCODING 942
SWIDTH 562 0
DWIDTH 25 0
BBX 21 41 2 -9
BITMAP
0003E0
0003C0
000780
000F00
000E00
001C00
000000
000000
000100
0F0FE0
0F3FF0
0E7FF8
0EE078
1FC078
1F0038
1F0078
1E0078
1E0078
3C0078
3C0078
3C00F0
3C00F0
7800F0
7800F0
7800F0
7801E0
7801E0
F001E0
F001E0
F001E0
F003C0
F003C0
0003C0
0003C0
0003C0
000780
000780
000780
000780
000780
000F00
ENDCHAR
STARTCHAR 03AF
ENCODING 943
SWIDTH 225 0
DWIDTH 10 0
BBX 13 32 1 0
BITMAP
00F8
01F0
03E0
03C0
0780
0F00
0000
0000
0000
0780
0780
0780
0F00
0F00
0F00
0F00
0E00
1E00
1E00
1E00
1E00
1C00
3C00
3C00
3C00
3C00
7800
7800
7800
7800
7800
F000
ENDCHAR
STARTCHAR 03B0
ENCODING 944
SWIDTH 540 0
DWIDTH 24 0
BBX 22 33 3 -1
BITMAP
000780
000700
078E3C
071C3C
0F1C78
0F3878
000000
000000
000000
1E003C
1E0078
1E0078
3C0078
3C0078
3C0078
3C00F0
3C00F0
7800F0
7800F0
7800E0
7801E0
7801E0
7001E0
F001E0
F003C0
F003C0
F007C0
780780
7C1F00
3FFF00
3FFE00
0FF800
008000
ENDCHAR
STARTCHAR 03B1
ENCODING 945
SWIDTH 562 0
DWIDTH 25 0
BBX 24 24 2 -1
BITMAP
001000
01FF0F
03FF8F
07FFDE
0F81DE
1F00FE
3E00FC
3C00FC
7C0078
780078
780070
780070
F000E0
F000E0
F000E0
F000E0
F001E0
F003E0
7803F0
7807F0
7C0FF0
3FFEF0
1FF8F0
0FF0F0
ENDCHAR
STARTCHAR 03B2
ENCODING 946
SWIDTH 562 0
DWIDTH 25 0
BBX 25 41 0 -9
BITMAP
0007F800
001FFC00
003FFE00
007C1F00
00F80F00
00F00780
01E00780
01E00780
03E00780
03C00700
03C00F00
03C01E00
07807C00
0787F800
078FE000
078FF000
0780F800
0F003C00
0F001E00
0F000E00
0F000F00
0F000F00
1F000F00
1E000F00
1F000F00
1F001E00
1F001E00
3F803C00
3FC07C00
3DF1F800
3CFFF000
787FC000
78040000
78000000
78000000
78000000
F0000000
F0000000
F0000000
F0000000
E0000000
ENDCHAR
STARTCHAR 03B3
ENCODING 947
SWIDTH 495 0
DWIDTH 22 0
BBX 20 32 4 -9
BITMAP
E000F0
E000F0
F001E0
F001E0
F003C0
F003C0
700780
700F00
780F00
781E00
781E00
783C00
383800
387800
3C7000
3CF000
3CE000
3DE000
1FC000
1F8000
1F8000
1F0000
1F0000
1E0000
1E0000
1E0000
1E0000
3C0000
3C0000
3C0000
3C0000
3C0000
ENDCHAR
STARTCHAR 03B4
ENCODING 948
SWIDTH 562 0
DWIDTH 25 0
BBX 24 33 2 -1
BITMAP
01FFFF
03FFFF
03FFFF
01E000
01F000
00F800
007C00
003E00
001F00
007F80
01FFC0
07FFE0
0FC3F0
1F00F8
1E0078
3C007C
3C003C
78003C
78003C
78003C
F0003C
F0003C
F00078
F00078
F000F8
F000F0
7801F0
7803E0
3C07C0
3FFF80
1FFF00
07FE00
004000
ENDCHAR
STARTCHAR 03B5
ENCODING 949
SWIDTH 450 0
DWIDTH 20 0
BBX 19 25 1 -1
BITMAP
001000
01FF00
03FFC0
07FFE0
0F81C0
0F0080
0F0000
0F0000
0F0000
0F0000
07E000
03F800
0FF000
1FF000
3E0000
7C0000
780000
780000
F80000
780200
780F00
7FFF80
3FFE00
0FF800
008000
ENDCHAR
STARTCHAR 03B6
ENCODING 950
SWIDTH 472 0
DWIDTH 21 0
BBX 23 41 2 -9
BITMAP
00FFFE
00FFFE
00FFFC
0000F8
0003E0
0007C0
000F00
001E00
007C00
00F800
01F000
03E000
07C000
078000
0F0000
1E0000
1E0000
3C0000
3C0000
780000
780000
700000
F00000
F00000
F00000
F00000
F00000
780000
7F0000
3FF800
1FFC00
07FE00
003E00
001E00
000E00
000E00
001E00
003C00
01FC00
03F800
03E000
ENDCHAR
STARTCHAR 03B7
ENCODING 951
SWIDTH 562 0
DWIDTH 25 0
BBX 21 33 2 -9
BITMAP
000100
0F0FE0
0F3FF0
0E7FF8
0EE078
1FC078
1F0038
1F0078
1E0078
1E0078
3C0078
3C0078
3C00F0
3C00F0
7800F0
7800F0
7800F0
7801E0
7801E0
F001E0
F001E0
F001E0
F003C0
F003C0
0003C0
0003C0
0003C0
000780
000780
000780
000780
000780
000F00
ENDCHAR
STARTCHAR 03B8
ENCODING 952
SWIDTH 540 0
DWIDTH 24 0
BBX 22 33 3 -1
BITMAP
007F80
00FFE0
01FFF0
03E1F0
078078
0F0078
0F0038
1E003C
1E003C
3C003C
3C003C
3C003C
78003C
78003C
78003C
FFFFF8
FFFFF8
FFFFF8
F00078
F00078
F000F0
F000F0
F000F0
F001E0
F001E0
F003C0
7807C0
780F80
7C1F00
3FFE00
1FFC00
0FF800
008000
ENDCHAR
STARTCHAR 03B9
ENCODING 953
SWIDTH 225 0
DWIDTH 10 0
BBX 9 23 1 0
BITMAP
0780
0780
0780
0F00
0F00
0F00
0F00
0E00
1E00
1E00
1E00
1E00
1C00
3C00
3C00
3C00
3C00
7800
7800
7800
7800
7800
F000
ENDCHAR
STARTCHAR 03BA
ENCODING 954
SWIDTH 495 0
DWIDTH 22 0
BBX 23 23 1 0
BITMAP
07803E
07807C
0781F0
0703E0
0F07C0
0F0F80
0F1F00
0F3C00
1E7800
1EF000
1FF800
1FF800
1F7C00
3E3C00
3C1E00
3C1F00
3C0F00
780F80
780780
7807C0
7803C0
7801E0
F001F0
ENDCHAR
STARTCHAR 03BB
ENCODING 955
SWIDTH 495 0
DWIDTH 22 0
BBX 21 32 -1 0
BITMAP
000F00
000F00
000F00
000700
000780
000780
000780
000780
000780
000780
0007C0
000FC0
001FC0
001FC0
003FC0
003BC0
0079C0
00F1E0
00F1E0
01E1E0
01C1E0
03C1E0
0781E0
0780F0
0F00F0
0F00F0
1E00F0
1C00F0
3C00F0
780078
780078
F00078
ENDCHAR
STARTCHAR 03BC
ENCODING 956
SWIDTH 540 0
DWIDTH 24 0
BBX 25 32 0 -9
BITMAP
03C00780
03C00F00
03C00F00
07800F00
07800F00
07800E00
07801E00
07801E00
0F001E00
0F001E00
0F001C00
0F003C00
0E003C00
1E003C00
1E003C00
1E007800
1E007800
1E00F800
3F00F800
3F83F000
3FFFF000
3FFF7000
79FEF000
78200000
78000000
78000000
70000000
F0000000
F0000000
F0000000
F0000000
E0000000
ENDCHAR
STARTCHAR 03BD
ENCODING 957
SWIDTH 495 0
DWIDTH 22 0
BBX 21 23 4 0
BITMAP
E000F8
F000F0
F001E0
F001E0
F003C0
F003C0
700780
780F80
780F00
781E00
781E00
783C00
383C00
387800
3C7800
3CF000
3CE000
3DE000
1DC000
1FC000
1F8000
1F0000
1F0000
ENDCHAR
STARTCHAR 03BE
ENCODING 958
SWIDTH 450 0
DWIDTH 20 0
BBX 19 41 3 -9
BITMAP
003FE0
00FFE0
03FFE0
07E000
07C000
078000
0F0000
0F0000
0F0000
078000
07F000
03FF80
00FF00
01FF00
07F000
0F8000
3F0000
3E0000
7C0000
F80000
F00000
F00000
F00000
F00000
F00000
F00000
F00000
F80000
7F0000
7FF000
3FF800
0FFC00
007C00
003E00
001E00
001C00
003C00
007C00
03F800
07F000
07C000
ENDCHAR
STARTCHAR 03BF
ENCODING 959
SWIDTH 562 0
DWIDTH 25 0
BBX 22 25 2 -1
BITMAP
000C00
00FF80
03FFE0
07F7F0
0F80F8
1F0078
3E007C
3C003C
7C003C
78003C
78003C
78003C
F0003C
F0003C
F00078
F00078
F00078
F000F0
7801F0
7803E0
3C07C0
3FFF80
1FFF00
07FC00
004000
ENDCHAR
STARTCHAR 03C0
ENCODING 960
SWIDTH 675 0
DWIDTH 30 0
BBX 28 23 4 0
BITMAP
FFFFFFF0
FFFFFFE0
FFFFFFE0
07803C00
0F003C00
0F003800
0F007800
0F007800
0F007800
1E007800
1E00F000
1E00F000
1E00F000
1E00F000
3C00F000
3C01E000
3C01E000
3C01E000
3C01E000
7801E000
7803C000
7803C000
7803C000
ENDCHAR
STARTCHAR 03C1
ENCODING 961
SWIDTH 562 0
DWIDTH 25 0
BBX 26 33 -1 -9
BITMAP
0000C000
000FF800
003FFE00
007FFF00
00FC1F00
00F00780
01E00780
03E003C0
03C003C0
03C003C0
078003C0
078003C0
078003C0
07800780
0F000780
0F000780
0F000F80
0F800F00
1F801E00
1FC03E00
1FE07C00
1FFFF800
1EFFF000
3C7FC000
3C000000
3C000000
3C000000
38000000
78000000
78000000
78000000
78000000
F0000000
ENDCHAR
STARTCHAR 03C2
ENCODING 962
SWIDTH 495 0
DWIDTH 22 0
BBX 21 33 2 -9
BITMAP
000100
003FF8
00FFF8
03FFF8
07E000
0F8000
1F0000
3E0000
3C0000
7C0000
780000
780000
700000
F00000
F00000
780000
780000
780000
3C0000
3F0000
1F8000
0FE000
03F000
00FC00
007C00
001E00
001E00
000E00
001E00
003E00
0FFC00
1FF800
1FE000
ENDCHAR
STARTCHAR 03C3
ENCODING 963
SWIDTH 607 0
DWIDTH 27 0
BBX 27 25 2 -1
BITMAP
00080000
00FFFFE0
03FFFFC0
07F7FFC0
0F80F000
1F007800
3E007800
3C003C00
7C003C00
78003C00
78003C00
78003C00
F0003C00
F0003C00
F0007800
F0007800
F000F800
F000F000
7801F000
7803E000
3C07C000
3FFF8000
1FFF0000
07FE0000
00400000
ENDCHAR
STARTCHAR 03C4
ENCODING 964
SWIDTH 382 0
DWIDTH 17 0
BBX 14 23 4 0
BITMAP
FFFC
FFFC
FFFC
0780
0700
0F00
0F00
0F00
0F00
0E00
1E00
1E00
1E00
1E00
3C00
3C00
3C00
3C00
3C00
7800
7800
7800
7800
ENDCHAR
STARTCHAR 03C5
ENCODING 965
SWIDTH 540 0
DWIDTH 24 0
BBX 22 24 3 -1
BITMAP
1E003C
1E0078
1E0078
3C0078
3C0078
3C0078
3C00F0
3C00F0
7800F0
7800F0
7800E0
7801E0
7801E0
7001E0
F001E0
F003C0
F003C0
F007C0
780780
7C1F00
3FFF00
3FFE00
0FF800
008000
ENDCHAR
STARTCHAR 03C6
ENCODING 966
SWIDTH 652 0
DWIDTH 29 0
BBX 26 33 2 -9
BITMAP
00001000
00F0FE00
03E1FF00
07E3FF80
0FC3C780
1F0783C0
1E0783C0
3C0781C0
3C0701C0
780F01C0
780F01C0
780F01C0
700F03C0
F01E03C0
F01E03C0
F01E0780
781E0780
781C0F00
7C3C1F00
3E3C3E00
3F3CFC00
1FFFF800
0FFFF000
03FFC000
00780000
00780000
00780000
00F00000
00F00000
00F00000
00F00000
00F00000
01E00000
ENDCHAR
STARTCHAR 03C7
ENCODING 967
SWIDTH 540 0
DWIDTH 24 0
BBX 29 32 -3 -9
BITMAP
00F000F8
00F001F0
00F001E0
007803E0
007807C0
00780F80
00780F00
003C1F00
003C3E00
003C7C00
001C7800
001EF800
001FF000
000FE000
000FC000
000FC000
001F8000
003FC000
003FC000
007DC000
00F9E000
01F1E000
01E0E000
03E0F000
07C0F000
07807800
0F007800
1F007800
3E007C00
3C003C00
7C003C00
F8003E00
ENDCHAR
STARTCHAR 03C8
ENCODING 968
SWIDTH 720 0
DWIDTH 32 0
BBX 29 32 3 -9
BITMAP
1E03C038
1E03C078
1E03C078
3C03C078
3C078078
3C0780F0
3C0780F0
3C0780F0
780780F0
780F00F0
780F01E0
780F01E0
780F01E0
700E01E0
F01E03C0
F01E03C0
F01E03C0
701E0780
783C0F80
7C3C1F00
3FFFFE00
1FFFFC00
07FFF000
007C0000
00780000
00780000
00780000
00780000
00F00000
00F00000
00F00000
00F00000
ENDCHAR
STARTCHAR 03C9
ENCODING 969
SWIDTH 787 0
DWIDTH 35 0
BBX 32 23 2 -1
BITMAP
03C0001E
0780001E
0780001E
0F00000F
1F00000F
1E00000F
3C01E00F
3C01E00F
3C01E00F
7801E00F
7803C00F
7803C00F
F003C01E
F003C01E
F007C01E
F007C01E
F007C03C
F00FC07C
781FC078
783DE0F0
7FF8FFE0
3FF0FFC0
1FE03F80
ENDCHAR
STARTCHAR 03CA
ENCODING 970
SWIDTH 225 0
DWIDTH 10 0
BBX 15 31 1 0
BITMAP
3E3E
3C3C
3C3C
3C3C
0000
0000
0000
0000
0780
0780
0780
0F00
0F00
0F00
0F00
0E00
1E00
1E00
1E00
1E00
1C00
3C00
3C00
3C00
3C00
7800
7800
7800
7800
7800
F000
ENDCHAR
STARTCHAR 03CB
ENCODING 971
SWIDTH 540 0
DWIDTH 24 0
BBX 22 32 3 -1
BITMAP
00F0F0
00F0F0
01E1F0
01E1E0
000000
000000
000000
000000
1E003C
1E0078
1E0078
3C0078
3C0078
3C0078
3C00F0
3C00F0
7800F0
7800F0
7800E0
7801E0
7801E0
7001E0
F001E0
F003C0
F003C0
F007C0
780780
7C1F00
3FFF00
3FFE00
0FF800
008000
ENDCHAR
STARTCHAR 03CC
ENCODING 972
SWIDTH 562 0
DWIDTH 25 0
BBX 22 33 2 -1
BITMAP
0003E0
0003C0
000780
000F00
000E00
001C00
000000
000000
000C00
00FF80
03FFE0
07F7F0
0F80F8
1F0078
3E007C
3C003C
7C003C
78003C
78003C
78003C
F0003C
F0003C
F00078
F00078
F00078
F000F0
7801F0
7803E0
3C07C0
3FFF80
1FFF00
07FC00
004000
ENDCHAR
STARTCHAR 03CD
ENCODING 973
SWIDTH 540 0
DWIDTH 24 0
BBX 22 33 3 -1
BITMAP
0007C0
000780
000F00
001E00
003C00
003800
000000
000000
000000
1E003C
1E0078
1E0078
3C0078
3C0078
3C0078
3C00F0
3C00F0
7800F0
7800F0
7800E0
7801E0
7801E0
7001E0
F001E0
F003C0
F003C0
F007C0
780780
7C1F00
3FFF00
3FFE00
0FF800
008000
ENDCHAR
STARTCHAR 03CE
ENCODING 974
SWIDTH 787 0
DWIDTH 35 0
BBX 32 32 2 -1
BITMAP
00001F00
00003E00
00003C00
00007800
0000F000
0000E000
00000000
00000000
00000000
03C0001E
0780001E
0780001E
0F00000F
1F00000F
1E00000F
3C01E00F
3C01E00F
3C01E00F
7801E00F
7803C00F
7803C00F
F003C01E
F003C01E
F007C01E
F007C01E
F007C03C
F00FC07C
781FC078
783DE0F0
7FF8FFE0
3FF0FFC0
1FE03F80
ENDCHAR
STARTCHAR 0401
ENCODING 1025
SWIDTH 675 0
DWIDTH 30 0
BBX 30 38 2 0
BITMAP
00078780
00078780
00078780
000F0F00
00000000
00000000
01FFFFFC
03FFFFF8
03FFFFF8
03FFFFF8
03C00000
03C00000
07C00000
07800000
07800000
07800000
0F800000
0F800000
0F000000
0F000000
0FFFFFC0
1FFFFFC0
1FFFFFC0
1E000000
1E000000
1E000000
3E000000
3C000000
3C000000
3C000000
3C000000
7C000000
78000000
78000000
7FFFFF80
7FFFFF80
FFFFFF80
FFFFFF00
ENDCHAR
STARTCHAR 0402
ENCODING 1026
SWIDTH 832 0
DWIDTH 37 0
BBX 32 33 5 -1
BITMAP
7FFFFFC0
7FFFFFC0
FFFFFF80
FFFFFF80
003E0000
003C0000
003C0000
003C0000
007C0000
00780000
00780000
00780000
0078FFE0
00FFFFF0
00FFFFF8
00FF80FC
00F8003E
01F0003E
01F0001E
01E0001E
01E0001F
01E0001F
03E0001E
03C0001E
03C0001E
03C0003E
03C0007C
07C000F8
078181F8
0781FFF0
0781FFE0
0F83FF80
00001000
ENDCHAR
STARTCHAR 0403
ENCODING 1027
SWIDTH 540 0
DWIDTH 24 0
BBX 27 40 2 0
BITMAP
0000F800
0000F000
0001E000
0003C000
00038000
00070000
00000000
00000000
01FFFFE0
03FFFFE0
03FFFFE0
03FFFFC0
03C00000
07C00000
07800000
07800000
07800000
07800000
0F800000
0F000000
0F000000
0F000000
0F000000
1F000000
1E000000
1E000000
1E000000
1E000000
3C000000
3C000000
3C000000
3C000000
7C000000
78000000
78000000
78000000
78000000
F8000000
F0000000
F0000000
ENDCHAR
STARTCHAR 0404
ENCODING 1028
SWIDTH 697 0
DWIDTH 31 0
BBX 29 33 4 -1
BITMAP
000FFC00
007FFF00
00FFFF80
01FE3FC0
07F007E0
07C003E0
0F8001F0
1F0000F0
1E0000F0
3E0000F8
3C000000
7C000000
78000000
78000000
7FFF0000
FFFF0000
FFFF0000
FFFF0000
F0000000
F0000000
F0000000
F00001C0
F80003E0
780003C0
780007C0
7C000F80
3E000F00
3F003F00
1F807E00
0FFFFC00
07FFF000
01FFC000
00080000
ENDCHAR
STARTCHAR 0405
ENCODING 1029
SWIDTH 675 0
DWIDTH 30 0
BBX 27 33 3 -1
BITMAP
003FF800
00FFFE00
01FFFF00
03F83F80
07C00FC0
078007C0
0F0003E0
0F0003E0
0F0001E0
0F800000
0F800000
07C00000
07F00000
03FE0000
00FF8000
007FE000
001FF800
0007FC00
0000FE00
00007F00
00001F00
30000F00
F0000F80
F0000F80
F8000F80
78000F00
7C001F00
7E003E00
3F80FE00
1FFFFC00
0FFFF000
03FFC000
00080000
ENDCHAR
STARTCHAR 0406
ENCODING 1030
SWIDTH 270 0
DWIDTH 12 0
BBX 10 32 3 0
BITMAP
03C0
03C0
03C0
07C0
07C0
0780
0780
0780
0F80
0F00
0F00
0F00
0F00
1F00
1E00
1E00
1E00
1E00
3E00
3C00
3C00
3C00
3C00
7C00
7800
7800
7800
F800
F800
F000
F000
F000
ENDCHAR
STARTCHAR 0407
ENCODING 1031
SWIDTH 270 0
DWIDTH 12 0
BBX 16 38 3 0
BITMAP
0F0F
1E1E
1E1E
1E1E
0000
0000
03C0
03C0
03C0
07C0
07C0
0780
0780
0780
0F80
0F00
0F00
0F00
0F00
1F00
1E00
1E00
1E00
1E00
3E00
3C00
3C00
3C00
3C00
7C00
7800
7800
7800
F800
F800
F000
F000
F000
ENDCHAR
STARTCHAR 0408
ENCODING 1032
SWIDTH 495 0
DWIDTH 22 0
BBX 23 33 1 -1
BITMAP
00003E
00003E
00003C
00003C
00003C
00007C
000078
000078
000078
000078
0000F8
0000F0
0000F0
0000F0
0000F0
0001F0
0001E0
0001E0
0001E0
0001E0
0003E0
0003C0
0803C0
7803C0
7007C0
F00780
780780
780F80
7C1F00
7FFE00
3FFC00
0FF800
008000
ENDCHAR
STARTCHAR 0409
ENCODING 1033
SWIDTH 1057 0
DWIDTH 47 0
BBX 46 33 0 -1
BITMAP
001FFFFE0000
001FFFFE0000
001FFFFE0000
001FFFFE0000
003C003C0000
003C003C0000
003C003C0000
003C003C0000
007C007C0000
007800780000
007800780000
007800780000
007800F80000
00F800F00000
00F000FFFFC0
00F000FFFFF0
00F000FFFFF8
00F001F007F8
01E001E0007C
01E001E0003C
01E001E0003C
01E003E0003C
03E003E0003C
03C003C0003C
03C003C0007C
03C003C00078
07C007C000F8
078007C003F0
0F8007FFFFE0
FF0007FFFFC0
FF0007FFFF80
FC000FFFFC00
200000000000
ENDCHAR
STARTCHAR 040A
ENCODING 1034
SWIDTH 990 0
DWIDTH 44 0
BBX 41 32 2 0
BITMAP
03E007800000
03E007800000
03C007800000
03C007800000
03C00F800000
07C00F000000
07800F000000
07800F000000
07800F000000
07801F000000
0F801E000000
0F001E000000
0F001E000000
0F001E000000
0FFFFFFFF000
1FFFFFFFFC00
1FFFFFFFFE00
1E003C01FF00
1E003C001F00
3E0078000F00
3E0078000F80
3C0078000F80
3C0078000F80
3C00F8000F00
7C00F0000F00
7C00F0001F00
7800F0003E00
7800F000FC00
7801FFFFFC00
F801FFFFF800
F001FFFFE000
F001FFFF0000
ENDCHAR
STARTCHAR 040B
ENCODING 1035
SWIDTH 855 0
DWIDTH 38 0
BBX 31 32 5 0
BITMAP
7FFFFFC0
FFFFFF80
FFFFFF80
FFFFFF80
003C0000
003C0000
003C0000
003C0000
007C0000
00780000
00780000
00780000
00F9FFE0
00FFFFF8
00FFFFFC
00FF00FC
00F8003E
01F0003E
01E0001E
01E0001E
01E0001E
01E0001E
03E0003E
03C0003C
03C0003C
03C0003C
07C0007C
07800078
07800078
07800078
07800078
0F8000F8
ENDCHAR
STARTCHAR 040C
ENCODING 1036
SWIDTH 585 0
DWIDTH 26 0
BBX 28 40 2 0
BITMAP
0000F800
0000F000
0001E000
0003C000
00038000
00070000
00000000
00000000
01E003F0
03E007F0
03C00FE0
03C01FE0
03C03E00
03C03C00
07C07C00
07807800
0780F000
0781F000
0F81E000
0F83C000
0F07C000
0F0F8000
0FFF0000
1FFC0000
1FFC0000
1E3F0000
1E1F0000
1E0F8000
3E07C000
3C07C000
3C03E000
3C03E000
7C01E000
7C01F000
7801F000
7800F800
7800F800
F8007800
F0007C00
F0007C00
ENDCHAR
STARTCHAR 040D
ENCODING 1037
SWIDTH 720 0
DWIDTH 32 0
BBX 31 40 2 0
BITMAP
0007C000
0003E000
0001E000
0001E000
0000F000
00007000
00000000
00000000
01E0001E
03C0003E
03C0007E
03C000FE
03C000FC
03C001FC
078003FC
078007FC
07800FBC
07801F78
07803E78
0F007C78
0F00F878
0F00F878
0F01F0F0
1F03E0F0
1E07C0F0
1E0F80F0
1E1F01E0
1E3E01E0
3C7C01E0
3CF801E0
3DF801E0
3DF003C0
7FE003C0
7FC003C0
7F8003C0
7F0003C0
7E000780
FC000780
F8000780
F0000780
ENDCHAR
STARTCHAR 040E
ENCODING 1038
SWIDTH 630 0
DWIDTH 28 0
BBX 28 39 5 0
BITMAP
00E03800
00E07000
0070E000
007FE000
003F8000
00000000
00000000
F00000F0
F80001F0
780003E0
7C0003C0
3C0007C0
3C000780
3E000F00
1E001F00
1E001E00
1F003E00
0F003C00
0F007800
0780F800
0780F000
07C1E000
03C1E000
03C3C000
03E7C000
01E78000
01EF0000
01FF0000
00FE0000
00FC0000
007C0000
00780000
00F80000
00F00000
01E00000
43E00000
7FC00000
FF800000
FF000000
ENDCHAR
STARTCHAR 040F
ENCODING 1039
SWIDTH 720 0
DWIDTH 32 0
BBX 32 41 2 -9
BITMAP
01E0001F
03E0001F
03C0001E
03C0001E
03C0001E
03C0003E
07C0003C
0780003C
0780003C
0780003C
0780007C
0F800078
0F000078
0F000078
0F0000F8
1F0000F0
1E0000F0
1E0000F0
1E0000F0
1E0001F0
3E0001E0
3C0001E0
3C0001E0
3C0001E0
7C0003E0
7C0003C0
780003C0
780003C0
7FFFFFC0
FFFFFF80
FFFFFF80
FFFFFF80
001C0000
003C0000
003C0000
003C0000
00380000
00780000
00780000
00780000
00700000
ENDCHAR
STARTCHAR 0410
ENCODING 1040
SWIDTH 675 0
DWIDTH 30 0
BBX 28 32 -1 0
BITMAP
00003E00
00007E00
00007F00
0000FF00
0000FF00
0001EF00
0001EF00
0003CF00
0007C780
00078780
000F8780
000F0780
001F0780
001E0780
003E07C0
007C03C0
007803C0
00F803C0
00F003C0
01F003C0
01FFFFE0
03FFFFE0
07FFFFE0
078001E0
0F8001E0
0F0001E0
1F0001F0
1E0000F0
3E0000F0
3C0000F0
7C0000F0
F80000F0
ENDCHAR
STARTCHAR 0411
ENCODING 1041
SWIDTH 652 0
DWIDTH 29 0
BBX 27 32 2 0
BITMAP
01FFFFE0
03FFFFE0
03FFFFE0
03FFFFE0
03C00000
03C00000
07C00000
07800000
07800000
07800000
0F800000
0F000000
0F000000
0F000000
0FFFF800
1FFFFE00
1FFFFF00
1E00FF80
1E000F80
1E0007C0
3E0007C0
3C0003C0
3C0003C0
3C0007C0
7C000780
78000F80
78001F00
78007F00
7FFFFE00
FFFFFC00
FFFFF000
FFFF8000
ENDCHAR
STARTCHAR 0412
ENCODING 1042
SWIDTH 675 0
DWIDTH 30 0
BBX 27 32 2 0
BITMAP
01FFF800
03FFFF00
03FFFF80
03FFFFC0
03C007C0
07C003E0
07C001E0
078001E0
078001E0
078001E0
0F8001E0
0F0003C0
0F0007C0
0F003F80
0FFFFE00
1FFFF800
1FFFFF00
1E00FF80
1E0007C0
1E0007C0
3E0003C0
3C0003C0
3C0003C0
3C0003C0
7C0007C0
7C0007C0
78000F80
78001F80
7FFFFF00
FFFFFE00
FFFFF800
FFFFE000
ENDCHAR
STARTCHAR 0413
ENCODING 1043
SWIDTH 540 0
DWIDTH 24 0
BBX 27 32 2 0
BITMAP
01FFFFE0
03FFFFE0
03FFFFE0
03FFFFC0
03C00000
07C00000
07800000
07800000
07800000
07800000
0F800000
0F000000
0F000000
0F000000
0F000000
1F000000
1E000000
1E000000
1E000000
1E000000
3C000000
3C000000
3C000000
3C000000
7C000000
78000000
78000000
78000000
78000000
F8000000
F0000000
F0000000
ENDCHAR
STARTCHAR 0414
ENCODING 1044
SWIDTH 697 0
DWIDTH 31 0
BBX 36 38 -3 -6
BITMAP
0001FFFFF0
0003FFFFE0
0003FFFFE0
0003FFFFE0
0003C003E0
0003C003C0
0007C003C0
00078003C0
00078003C0
00078007C0
000F800780
000F000780
000F000780
000F000F80
001E000F80
001E000F00
001E000F00
001E000F00
003C001F00
003C001E00
007C001E00
0078001E00
0078001E00
00F0003E00
00F0003C00
01E0003C00
03E0003C00
03C0003C00
3FFFFFFF00
3FFFFFFF00
3FFFFFFF00
3FFFFFFF00
7800000F00
7800000E00
7800001E00
7800001E00
7000001E00
F000001C00
ENDCHAR
STARTCHAR 0415
ENCODING 1045
SWIDTH 675 0
DWIDTH 30 0
BBX 30 32 2 0
BITMAP
01FFFFFC
03FFFFF8
03FFFFF8
03FFFFF8
03C00000
03C00000
07C00000
07800000
07800000
07800000
0F800000
0F800000
0F000000
0F000000
0FFFFFC0
1FFFFFC0
1FFFFFC0
1E000000
1E000000
1E000000
3E000000
3C000000
3C000000
3C000000
3C000000
7C000000
78000000
78000000
7FFFFF80
7FFFFF80
FFFFFF80
FFFFFF00
ENDCHAR
STARTCHAR 0416
ENCODING 1046
SWIDTH 922 0
DWIDTH 41 0
BBX 45 32 -1 0
BITMAP
01F800F000F8
01FC00F003F8
01FC00F007F8
01FE00F007F8
001E01F00F80
001E01E01F00
001E01E01E00
001E01E03E00
000E01E03C00
000F03E07800
000F03C0F800
000F03C1F000
000783C3E000
0007C3C7C000
0003FFFF8000
0001FFFE0000
0003FFFF0000
000FC79F8000
001F0F87C000
003E0F03E000
007C0F03E000
00F80F01F000
01F00F01F000
03E01F00F000
03E01E00F800
07C01E007800
0F801E007C00
1F001E007C00
3E003C003C00
7C003C003E00
7C003C001E00
F8003C001F00
ENDCHAR
STARTCHAR 0417
ENCODING 1047
SWIDTH 607 0
DWIDTH 27 0
BBX 25 33 2 -1
BITMAP
001FF000
007FFC00
00FFFE00
01FC3F00
03E01F80
07C00F80
07800780
0F800780
0F000780
03000780
00000F80
00000F00
00003F00
0007FE00
003FF800
003FE000
003FF000
0007FC00
00007C00
00003E00
00001E00
00001E00
30001E00
F0001E00
70001E00
78003E00
7C003E00
3E007C00
3F01F800
1FFFF000
0FFFE000
03FF8000
00100000
ENDCHAR
STARTCHAR 0418
ENCODING 1048
SWIDTH 720 0
DWIDTH 32 0
BBX 31 32 2 0
BITMAP
01E0001E
03C0003E
03C0007E
03C000FE
03C000FC
03C001FC
078003FC
078007FC
07800FBC
07801F78
07803E78
0F007C78
0F00F878
0F00F878
0F01F0F0
1F03E0F0
1E07C0F0
1E0F80F0
1E1F01E0
1E3E01E0
3C7C01E0
3CF801E0
3DF801E0
3DF003C0
7FE003C0
7FC003C0
7F8003C0
7F0003C0
7E000780
FC000780
F8000780
F0000780
ENDCHAR
STARTCHAR 0419
ENCODING 1049
SWIDTH 720 0
DWIDTH 32 0
BBX 31 39 2 0
BITMAP
000701C0
000381C0
0003C780
0001FF00
0000FE00
00000000
00000000
01E0001E
03C0003E
03C0007E
03C000FE
03C000FC
03C001FC
078003FC
078007FC
07800FBC
07801F78
07803E78
0F007C78
0F00F878
0F00F878
0F01F0F0
1F03E0F0
1E07C0F0
1E0F80F0
1E1F01E0
1E3E01E0
3C7C01E0
3CF801E0
3DF801E0
3DF003C0
7FE003C0
7FC003C0
7F8003C0
7F0003C0
7E000780
FC000780
F8000780
F0000780
ENDCHAR
STARTCHAR 041A
ENCODING 1050
SWIDTH 585 0
DWIDTH 26 0
BBX 28 32 2 0
BITMAP
01E003F0
03E007F0
03C00FE0
03C01FE0
03C03E00
03C03C00
07C07C00
07807800
0780F000
0781F000
0F81E000
0F83C000
0F07C000
0F0F8000
0FFF0000
1FFC0000
1FFC0000
1E3F0000
1E1F0000
1E0F8000
3E07C000
3C07C000
3C03E000
3C03E000
7C01E000
7C01F000
7801F000
7800F800
7800F800
F8007800
F0007C00
F0007C00
ENDCHAR
STARTCHAR 041B
ENCODING 1051
SWIDTH 675 0
DWIDTH 30 0
BBX 32 32 0 0
BITMAP
001FFFFF
001FFFFF
001FFFFF
001FFFFE
003E001E
003C001E
003C001E
003C003E
007C003C
0078003C
0078003C
0078007C
00780078
00F80078
00F00078
00F00078
00F000F8
00F000F0
01E000F0
01E000F0
01E001F0
01E001F0
03E001E0
03C001E0
03C001E0
03C003E0
07C003C0
078003C0
9F8003C0
FF0003C0
FE0007C0
FC000780
ENDCHAR
STARTCHAR 041C
ENCODING 1052
SWIDTH 832 0
DWIDTH 37 0
BBX 37 32 2 0
BITMAP
01F00001F8
03F00001F0
03F00003F0
03F00003F0
03F80007F0
07F8000FF0
07B8000FE0
07B8001EE0
07B8001FE0
07B8003DE0
0FB8003DE0
0F3C007BC0
0F3C00F3C0
0F3C00F3C0
0F3C01E3C0
1F1C01E3C0
1E1C03C780
1E1E03C780
1E1E078780
1E1E070780
3C1E0F0F80
3C0E1E0F00
3C0E1E0F00
3C0E3C0F00
3C0F3C0F00
780F781E00
780F701E00
780FF01E00
7807E01E00
F807E03E00
F007C03C00
F007C03C00
ENDCHAR
STARTCHAR 041D
ENCODING 1053
SWIDTH 720 0
DWIDTH 32 0
BBX 31 32 2 0
BITMAP
03E0001E
03C0001E
03C0001E
03C0001E
03C0003E
07C0003C
0780003C
0780003C
0780003C
0780007C
0F800078
0F000078
0F000078
0FFFFFF8
0FFFFFF8
1FFFFFF0
1FFFFFF0
1E0000F0
1E0001F0
3E0001E0
3E0001E0
3C0001E0
3C0001E0
3C0003E0
7C0003C0
780003C0
780003C0
780003C0
780007C0
F8000780
F0000780
F0000780
ENDCHAR
STARTCHAR 041E
ENCODING 1054
SWIDTH 787 0
DWIDTH 35 0
BBX 30 33 4 -1
BITMAP
000FFC00
007FFF00
00FFFFC0
01FC1FE0
07F003E0
0FC001F0
0F8000F8
1F000078
3E00007C
3E00007C
3C00003C
7C00003C
7800003C
7800003C
F800003C
F000003C
F000003C
F000003C
F000007C
F000007C
F0000078
F80000F8
780000F0
780001F0
7C0003E0
3C0003E0
3E000FC0
1F801F80
0FE07F00
07FFFE00
03FFF800
00FFE000
00040000
ENDCHAR
STARTCHAR 041F
ENCODING 1055
SWIDTH 720 0
DWIDTH 32 0
BBX 31 32 2 0
BITMAP
03FFFFFE
03FFFFFE
03FFFFFE
03FFFFFE
03C0003E
07C0003C
07C0003C
0780003C
0780003C
0780007C
0F800078
0F800078
0F000078
0F000078
0F0000F8
1F0000F0
1E0000F0
1E0000F0
1E0000F0
3E0001E0
3E0001E0
3C0001E0
3C0001E0
3C0003E0
7C0003C0
7C0003C0
780003C0
780003C0
780007C0
F8000780
F0000780
F0000780
ENDCHAR
STARTCHAR 0420
ENCODING 1056
SWIDTH 675 0
DWIDTH 30 0
BBX 29 32 2 0
BITMAP
03FFFE00
03FFFFC0
03FFFFE0
03FFFFF0
03C001F0
07C000F8
07800078
07800078
07800078
07800078
0F8000F8
0F0000F0
0F0001F0
0F0003F0
0F0007E0
1F01FFC0
1FFFFF80
1FFFFE00
1FFFF000
1E000000
3E000000
3C000000
3C000000
3C000000
7C000000
7C000000
78000000
78000000
78000000
F8000000
F0000000
F0000000
ENDCHAR
STARTCHAR 0421
ENCODING 1057
SWIDTH 720 0
DWIDTH 32 0
BBX 28 33 4 -1
BITMAP
001FFC00
007FFF00
00FFFF80
03FC1FC0
07E007E0
07C003E0
0F8001F0
1F0000F0
3E0000F0
3E0000F0
3C000000
7C000000
78000000
78000000
F8000000
F8000000
F0000000
F0000000
F0000000
F0000000
F0000000
F00001E0
F80003E0
780003C0
780007C0
7C000F80
3E001F00
3F003F00
1FC0FE00
0FFFF800
07FFF000
01FFC000
00080000
ENDCHAR
STARTCHAR 0422
ENCODING 1058
SWIDTH 607 0
DWIDTH 27 0
BBX 25 32 6 0
BITMAP
FFFFFF80
FFFFFF80
FFFFFF80
FFFFFF80
003C0000
003C0000
007C0000
00780000
00780000
00780000
00780000
00F80000
00F00000
00F00000
00F00000
00F00000
01F00000
01E00000
01E00000
01E00000
03E00000
03E00000
03C00000
03C00000
03C00000
07C00000
07800000
07800000
07800000
07800000
0F800000
0F000000
ENDCHAR
STARTCHAR 0423
ENCODING 1059
SWIDTH 630 0
DWIDTH 28 0
BBX 28 32 5 0
BITMAP
F00000F0
F80001F0
780003E0
7C0003C0
3C0007C0
3C000780
3E000F00
1E001F00
1E001E00
1F003E00
0F003C00
0F007800
0780F800
0780F000
07C1E000
03C1E000
03C3C000
03E7C000
01E78000
01EF0000
01FF0000
00FE0000
00FC0000
007C0000
00780000
00F80000
00F00000
01E00000
43E00000
7FC00000
FF800000
FF000000
ENDCHAR
STARTCHAR 0424
ENCODING 1060
SWIDTH 787 0
DWIDTH 35 0
BBX 31 32 4 0
BITMAP
0000F000
0000F000
0000F000
000FFE00
00FFFFC0
03FFFFF0
07FFFFF8
0FE1E1FC
1F81E07C
3F01E03E
3E03C01E
7C03C01E
7803C01E
F803C01E
F007C01E
F007801E
F007801E
F007803E
F007803C
F00F007C
F00F0078
F80F00F8
F80F01F0
7C1F07E0
3F9E1FC0
1FFFFF80
0FFFFF00
03FFF800
003E0000
003C0000
003C0000
003C0000
ENDCHAR
STARTCHAR 0425
ENCODING 1061
SWIDTH 675 0
DWIDTH 30 0
BBX 35 32 -1 0
BITMAP
03E00007E0
03E0000FC0
01F0001F80
00F0003F00
00F8003E00
0078007C00
007C00F800
003E01F000
001E03E000
001F07C000
000F0FC000
000F9F8000
0007BF0000
0007FE0000
0003FC0000
0001F80000
0003F00000
0007F00000
000FF80000
001FF80000
003F3C0000
007E3E0000
007C1E0000
00F81F0000
01F00F0000
03E00F8000
07C0078000
0F8007C000
1F8003E000
3F0003E000
7E0001F000
FC0000F000
ENDCHAR
STARTCHAR 0426
ENCODING 1062
SWIDTH 720 0
DWIDTH 32 0
BBX 32 38 2 -6
BITMAP
01E0001F
03E0001E
03C0001E
03C0001E
03C0001E
03C0003E
07C0003C
0780003C
0780003C
0780003C
0F80007C
0F000078
0F000078
0F000078
0F0000F8
1F0000F0
1E0000F0
1E0000F0
1E0000F0
1E0001F0
3E0001E0
3C0001E0
3C0001E0
3C0001E0
7C0003E0
7C0003C0
780003C0
780003C0
7FFFFFF8
FFFFFFF0
FFFFFFF0
FFFFFFF0
000000F0
000000F0
000000E0
000000E0
000001E0
000001E0
ENDCHAR
STARTCHAR 0427
ENCODING 1063
SWIDTH 675 0
DWIDTH 30 0
BBX 26 32 5 0
BITMAP
3E0003C0
3C0003C0
3C0003C0
3C0003C0
7C0007C0
78000780
78000780
78000780
78000780
F8000F80
F0000F00
F0000F00
F0000F00
F0001F00
F0001E00
F0001E00
F8007E00
7E03FE00
7FFFFE00
3FFFFC00
0FFE3C00
00003C00
00003C00
00007C00
00007800
00007800
00007800
0000F800
0000F000
0000F000
0000F000
0000F000
ENDCHAR
STARTCHAR 0428
ENCODING 1064
SWIDTH 922 0
DWIDTH 41 0
BBX 40 32 2 0
BITMAP
01E007C00F
03E007800F
03E007800F
03C007800F
03C007801F
03C00F801E
07C00F001E
07800F001E
07800F001E
07800F003C
07801F003C
0F801E003C
0F001E003C
0F001E007C
0F003E0078
1F003C0078
1E003C0078
1E003C0078
1E003C00F8
1E007C00F0
3E007800F0
3C007800F0
3C007801F0
3C007801F0
3C00F801E0
7C00F001E0
7800F001E0
7800F003E0
7FFFFFFFC0
FFFFFFFFC0
FFFFFFFFC0
FFFFFFFFC0
ENDCHAR
STARTCHAR 0429
ENCODING 1065
SWIDTH 922 0
DWIDTH 41 0
BBX 40 38 2 -6
BITMAP
01E007C00F
03E007800F
03E007800F
03C007800F
03C007801F
03C00F801E
07C00F001E
07800F001E
07800F001E
07800F003C
07801F003C
0F801E003C
0F001E003C
0F001E007C
0F003E0078
1F003C0078
1E003C0078
1E003C0078
1E003C00F8
1E007C00F0
3E007800F0
3C007800F0
3C007801F0
3C007801E0
3C00F801E0
7C00F001E0
7800F001E0
7800F003E0
7FFFFFFFF8
FFFFFFFFF8
FFFFFFFFF8
FFFFFFFFF8
0000000078
0000000070
00000000F0
00000000F0
00000000F0
00000000E0
ENDCHAR
STARTCHAR 042A
ENCODING 1066
SWIDTH 810 0
DWIDTH 36 0
BBX 30 32 5 0
BITMAP
7FFE0000
FFFC0000
FFFC0000
FFFC0000
003C0000
007C0000
00780000
00780000
00780000
00780000
00F80000
00F00000
00F00000
00F00000
01FFFF80
01FFFFE0
01FFFFF0
01E00FF8
01E000F8
03E0007C
03C0007C
03C0007C
03C0007C
03C0007C
07C00078
078000F8
078001F0
078007F0
07FFFFE0
0FFFFFC0
0FFFFF00
0FFFF800
ENDCHAR
STARTCHAR 042B
ENCODING 1067
SWIDTH 877 0
DWIDTH 39 0
BBX 39 32 2 0
BITMAP
01E000001E
03E000003E
03C000003C
03C000003C
03C000003C
03C000003C
07C000007C
0780000078
0780000078
0780000078
0F80000078
0F000000F8
0F000000F0
0F000000F0
0FFFF800F0
1FFFFE01F0
1FFFFF01E0
1E00FF81E0
1E000F81E0
1E0007C1E0
3E0007C3E0
3C0003C3C0
3C0003C3C0
3C0007C3C0
7C000783C0
78000F87C0
78001F0780
78007F0780
7FFFFE0780
FFFFFC0F80
FFFFF00F00
FFFF800F00
ENDCHAR
STARTCHAR 042C
ENCODING 1068
SWIDTH 652 0
DWIDTH 29 0
BBX 26 32 2 0
BITMAP
01E00000
03E00000
03C00000
03C00000
03C00000
03C00000
07C00000
07800000
07800000
07800000
0F800000
0F000000
0F000000
0F000000
0FFFF800
1FFFFE00
1FFFFF00
1E00FF80
1E000F80
1E0007C0
3E0007C0
3C0003C0
3C0003C0
3C0007C0
7C000780
78000F80
78001F00
78007F00
7FFFFE00
FFFFFC00
FFFFF000
FFFF8000
ENDCHAR
STARTCHAR 042D
ENCODING 1069
SWIDTH 697 0
DWIDTH 31 0
BBX 29 33 2 -1
BITMAP
001FF800
007FFE00
00FFFF00
03FC3F80
07E00FC0
078003E0
0F0001E0
1F0001F0
1E0000F0
060000F0
000000F0
000000F0
000000F8
000000F8
0007FFF8
0007FFF0
000FFFF0
000000F0
000000F0
000001F0
000001E0
300001E0
F00003E0
F00003C0
F80007C0
78000F80
7C001F00
3E003E00
1F80FC00
1FFFF800
07FFF000
03FFC000
00100000
ENDCHAR
STARTCHAR 042E
ENCODING 1070
SWIDTH 1012 0
DWIDTH 45 0
BBX 43 33 2 -1
BITMAP
01E0007FE000
03E001FFF800
03C007FFFE00
03C00FF0FF00
03C01F801F00
03C03F000F80
07C07E0007C0
07807C0007C0
0780F80003C0
0780F00003E0
0F81F00001E0
0F01E00001E0
0F01E00001E0
0F03E00001E0
0FFFC00001E0
1FFFC00001E0
1FFFC00001E0
1FFFC00003E0
1E03C00003E0
1E03C00003C0
3E03C00003C0
3C03C00007C0
3C03C0000780
3C03E0000F80
7C01E0001F00
7801F0001F00
7800F8003E00
7800FC00FC00
78007F03F800
F8003FFFF000
F0001FFFC000
F00007FF0000
000000200000
ENDCHAR
STARTCHAR 042F
ENCODING 1071
SWIDTH 675 0
DWIDTH 30 0
BBX 33 32 -1 0
BITMAP
0001FFFF80
001FFFFF80
003FFFFF80
007FFFFF00
00FC000F00
01F0000F00
01F0001F00
01E0001E00
03E0001E00
03C0001E00
03E0001E00
03E0003E00
01E0003C00
01F0003C00
00FFFFFC00
007FFFFC00
003FFFF800
0007FFF800
000FC07800
001F007800
003E00F800
007E00F000
00FC00F000
01F800F000
03F000F000
07E001F000
0FC001E000
0F8001E000
1F0001E000
3F0001E000
7E0003C000
FC0003C000
ENDCHAR
STARTCHAR 0430
ENCODING 1072
SWIDTH 562 0
DWIDTH 25 0
BBX 21 24 2 -1
BITMAP
000C00
01FFC0
03FFF0
07FFF8
0F80F8
1F0078
1E0078
3C0078
000078
000078
003FF8
0FFFF8
1FFFF0
3F80F0
7C00F0
F800F0
F001F0
F001E0
F003E0
F007E0
F80FE0
7FFFE0
3FF9E0
1FF1E0
ENDCHAR
STARTCHAR 0431
ENCODING 1073
SWIDTH 562 0
DWIDTH 25 0
BBX 23 33 3 -1
BITMAP
00003E
007FFE
01FFFC
03FFF8
07F000
078000
0F0000
1E0000
1E0000
1C7E00
3DFF80
3BFFE0
3F83F0
7F00F0
7E00F8
7C0078
F80078
F80078
F00078
F00078
F00078
F00078
E00078
E000F0
F000F0
F001F0
F003E0
F803C0
7C0FC0
3FFF80
1FFE00
0FFC00
008000
ENDCHAR
STARTCHAR 0432
ENCODING 1074
SWIDTH 517 0
DWIDTH 23 0
BBX 21 24 2 -1
BITMAP
000400
00FFC0
03FFE0
07FFF0
0F80F0
1F00F8
1E0078
3C00F0
3C00F0
7803E0
7FFFC0
7FFF00
FFFF00
F07FC0
F003C0
F001E0
F001E0
F801E0
7801E0
7C01E0
3E03C0
3FFFC0
1FFF80
07FE00
ENDCHAR
STARTCHAR 0433
ENCODING 1075
SWIDTH 495 0
DWIDTH 22 0
BBX 19 25 2 -1
BITMAP
002000
03FF00
07FF80
0FFFC0
1E03E0
1C01E0
1C01E0
0001E0
0001E0
0007E0
003FC0
03FF80
1FFC00
3FE000
7E0000
F80000
F00000
F001E0
F001C0
F003C0
F80780
7FFF00
3FFE00
1FFC00
008000
ENDCHAR
STARTCHAR 0434
ENCODING 1076
SWIDTH 562 0
DWIDTH 25 0
BBX 22 33 2 -1
BITMAP
00FF80
00FFE0
00FFF0
0003F0
0000F8
000078
00003C
00003C
00081C
00FF1C
03FFDC
07FFDC
0F80FC
1F007C
3E007C
3C003C
7C003C
78003C
78003C
78003C
F00038
F00038
F00078
F00078
F000F0
F000F0
7801E0
7803E0
3E07C0
3FFF80
1FFF00
07FC00
004000
ENDCHAR
STARTCHAR 0435
ENCODING 1077
SWIDTH 562 0
DWIDTH 25 0
BBX 22 25 2 -1
BITMAP
000800
00FF80
03FFE0
07FFF0
0F80F0
1F0078
1E0078
3C0038
3C003C
78003C
7FFFFC
7FFFFC
7FFFF8
F00000
F00000
F00000
F000F0
7800F0
7801E0
7C03E0
3E07C0
3FFF80
1FFF00
07FC00
004000
ENDCHAR
STARTCHAR 0436
ENCODING 1078
SWIDTH 697 0
DWIDTH 31 0
BBX 34 23 -1 0
BITMAP
07C03807C0
07E0781FC0
05E0781E80
00E0783C00
00F0787800
00F0F07000
0070F0F000
0070F1E000
0078F3C000
003CE78000
001FFF0000
001FFF0000
007DEF8000
00F1E7C000
01E3C3C000
03C3C1E000
0783C1E000
0F83C1E000
1F03C0F000
3E0780F000
3C07807800
7C07807800
F807807800
ENDCHAR
STARTCHAR 0437
ENCODING 1079
SWIDTH 472 0
DWIDTH 21 0
BBX 19 25 1 -1
BITMAP
001000
01FF00
03FFC0
07CFE0
0F01E0
1E01E0
1E01E0
0001E0
0001E0
0003C0
001FC0
00FF00
00FF00
00FF80
000780
0007C0
0003C0
E003C0
F003C0
F00780
780F80
7FFF00
3FFE00
0FFC00
008000
ENDCHAR
STARTCHAR 0438
ENCODING 1080
SWIDTH 562 0
DWIDTH 25 0
BBX 22 23 3 -1
BITMAP
1E003C
1E0038
1E0078
1C0078
3C0078
3C0078
3C00F0
3C00F0
7800F0
7800F0
7800F0
7801E0
7801E0
F001E0
F001E0
F003E0
F007C0
F007C0
F00FC0
F03FC0
FFFB80
7FE380
3FC780
ENDCHAR
STARTCHAR 0439
ENCODING 1081
SWIDTH 562 0
DWIDTH 25 0
BBX 22 32 3 -1
BITMAP
01C070
01C070
00E1E0
00FFC0
007F80
000800
000000
000000
000000
1E003C
1E0038
1E0078
1C0078
3C0078
3C0078
3C00F0
3C00F0
7800F0
7800F0
7800F0
7801E0
7801E0
F001E0
F001E0
F003E0
F007C0
F007C0
F00FC0
F03FC0
FFFB80
7FE380
3FC780
ENDCHAR
STARTCHAR 043A
ENCODING 1082
SWIDTH 472 0
DWIDTH 21 0
BBX 22 23 1 0
BITMAP
07807C
0780FC
0781FC
0703C0
0F03C0
0F0780
0F0F00
0F0F00
0E1E00
1E3C00
1FF800
1FF000
1EFC00
3C3C00
3C1E00
3C1E00
3C0F00
380F00
780F00
780780
780780
7807C0
F003C0
ENDCHAR
STARTCHAR 043B
ENCODING 1083
SWIDTH 562 0
DWIDTH 25 0
BBX 26 23 -1 0
BITMAP
007FFFC0
007FFFC0
00FFFFC0
00F003C0
00F00380
00F00780
00E00780
01E00780
01E00700
01E00F00
01E00F00
03C00F00
03C00F00
03C00E00
03C01E00
03801E00
07801E00
07801E00
07803C00
0F003C00
7F003C00
FE003C00
FC003C00
ENDCHAR
STARTCHAR 043C
ENCODING 1084
SWIDTH 675 0
DWIDTH 30 0
BBX 30 23 1 0
BITMAP
07E000FC
07E001F8
07E001F8
07F003F8
0FF007F8
0F700778
0F700FF0
0F700EF0
1E701EF0
1E703CF0
1E7038E0
1E7879E0
1C7871E0
3C38F1E0
3C38E1E0
3C39E1C0
3C3BC3C0
383B83C0
783F83C0
783F03C0
783F0780
783E0780
F01C0780
ENDCHAR
STARTCHAR 043D
ENCODING 1085
SWIDTH 540 0
DWIDTH 24 0
BBX 24 23 1 0
BITMAP
07800F
07800E
07801E
07001E
0F001E
0F001C
0F003C
0F003C
1E003C
1E003C
1FFFF8
1FFFF8
1FFFF8
3C0078
3C0078
3C0070
3C00F0
3800F0
7800F0
7800F0
7801E0
7801E0
F001E0
ENDCHAR
STARTCHAR 043E
ENCODING 1086
SWIDTH 562 0
DWIDTH 25 0
BBX 22 25 2 -1
BITMAP
000C00
00FF80
03FFE0
07F7F0
0F80F8
1F0078
3E007C
3C003C
7C003C
78003C
78003C
78003C
F0003C
F0003C
F00078
F00078
F00078
F000F0
7801F0
7803E0
3C07C0
3FFF80
1FFF00
07FC00
004000
ENDCHAR
STARTCHAR 043F
ENCODING 1087
SWIDTH 540 0
DWIDTH 24 0
BBX 24 23 1 0
BITMAP
07FFFF
07FFFE
07FFFE
07001E
0F001E
0F001C
0F003C
0F003C
1E003C
1E003C
1E0038
1E0078
1C0078
3C0078
3C0078
3C00F0
3C00F0
3800F0
7800F0
7800F0
7801E0
7801E0
F001E0
ENDCHAR
STARTCHAR 0440
ENCODING 1088
SWIDTH 562 0
DWIDTH 25 0
BBX 24 33 0 -9
BITMAP
000080
03CFF0
03DFF8
03BFFC
07F03E
07E01E
07C01E
07800F
07800F
0F000F
0F000F
0F000F
0F000F
0E001E
1E001E
1E001E
1E003C
1F003C
1F007C
3F00F8
3FC1F0
3DFFE0
3CFFC0
787F00
780800
780000
780000
780000
F00000
F00000
F00000
F00000
F00000
ENDCHAR
STARTCHAR 0441
ENCODING 1089
SWIDTH 495 0
DWIDTH 22 0
BBX 21 25 2 -1
BITMAP
000C00
00FF80
03FFE0
07FFE0
0F81F0
1F00F0
1E0078
3C0078
3C0000
7C0000
780000
780000
780000
780000
780000
F00000
7801E0
7801E0
7803C0
7807C0
3C0F80
3FFF00
1FFE00
07F800
008000
ENDCHAR
STARTCHAR 0442
ENCODING 1090
SWIDTH 832 0
DWIDTH 37 0
BBX 34 24 2 0
BITMAP
0001000800
0F1FE0FF00
0F3FF1FF80
0F7FF3FFC0
0EE0FF03C0
1F80FE03C0
1F007C03C0
1F00F803C0
1E00F803C0
3E00F003C0
3C00F00780
3C00F00780
3C01E00780
3C01E00780
7801E00700
7801E00F00
7801C00F00
7803C00F00
7803C00F00
F003C01E00
F003C01E00
F007801E00
F007801E00
E007801E00
ENDCHAR
STARTCHAR 0443
ENCODING 1091
SWIDTH 495 0
DWIDTH 22 0
BBX 25 32 0 -9
BITMAP
0F000780
0F000F00
0F001E00
07001E00
07803C00
07803C00
07807800
07807800
0780F000
0380F000
0381E000
03C3C000
03C3C000
03C78000
03C78000
01CF0000
01CF0000
01DE0000
01FC0000
01FC0000
01F80000
00F80000
00F00000
00F00000
01E00000
01E00000
03C00000
07800000
DF800000
FF000000
FE000000
FC000000
ENDCHAR
STARTCHAR 0444
ENCODING 1092
SWIDTH 832 0
DWIDTH 37 0
BBX 35 41 2 -9
BITMAP
00000E0000
00001E0000
00001E0000
00001E0000
00001E0000
00003C0000
00003C0000
00003C0000
00103C1000
01FE3DFE00
03FF7BFF00
07FFFFFF80
0F83FF07C0
1F01FC03C0
3E01FC03C0
3C00F803C0
7C00F801E0
7800F001E0
7800F001E0
7800E003C0
F001E003C0
F001E003C0
F001E003C0
F001E007C0
F003E00780
F003E00780
F007E00F00
780FF01F00
7C1FF83E00
3FFFBFFC00
1FF79FF800
0FE78FF000
0107810000
0007000000
000F000000
000F000000
000F000000
000F000000
000E000000
001E000000
001E000000
ENDCHAR
STARTCHAR 0445
ENCODING 1093
SWIDTH 495 0
DWIDTH 22 0
BBX 23 23 0 0
BITMAP
0F801E
07803E
07C07C
03C0F8
03E0F0
01E1E0
01F3C0
00F7C0
007F80
007F00
003E00
003C00
007E00
00FE00
01FF00
03EF00
03C780
078780
0F87C0
1F03C0
3E03E0
7C01E0
F801F0
ENDCHAR
STARTCHAR 0446
ENCODING 1094
SWIDTH 562 0
DWIDTH 25 0
BBX 22 30 3 -7
BITMAP
1E003C
1E0078
1E0078
1C0078
3C0078
3C0070
3C00F0
3C00F0
7800F0
7800F0
7801E0
7801E0
7001E0
F001E0
F003E0
F003C0
F007C0
F007C0
F00FC0
F03FC0
FFF3FC
7FE3F8
3FC1F8
040038
000078
000078
000070
000070
000070
0000F0
ENDCHAR
STARTCHAR 0447
ENCODING 1095
SWIDTH 517 0
DWIDTH 23 0
BBX 20 23 3 0
BITMAP
3C00F0
3800F0
7800F0
7800E0
7801E0
7801E0
7001E0
F001E0
F001C0
F003C0
F803C0
7C07C0
7FFFC0
3FFF80
0FF780
000780
000780
000780
000F00
000F00
000F00
000F00
000E00
ENDCHAR
STARTCHAR 0448
ENCODING 1096
SWIDTH 832 0
DWIDTH 37 0
BBX 34 24 3 -1
BITMAP
1E007803C0
1E00F003C0
1E00F003C0
1C00F00780
3C00F00780
3C00E00780
3C01E00780
3C01E00700
7801E00F00
7801E00F00
7803C00F00
7803C00F00
7003C00E00
F003C01E00
F007C01E00
F007803E00
F00F803E00
F00F807C00
F01F80FC00
F07FC3FC00
FFF7FFBC00
7FE3FF3800
3F81FC7800
0000200000
ENDCHAR
STARTCHAR 0449
ENCODING 1097
SWIDTH 855 0
DWIDTH 38 0
BBX 34 30 3 -7
BITMAP
1E007803C0
1E00F003C0
1E00F003C0
1C00F00780
3C00F00780
3C00E00780
3C01E00780
3C01E00700
7801E00F00
7801E00F00
7803C00F00
7803C00F00
7003C00E00
F003C01E00
F007C01E00
F007803E00
F00F803C00
F00F807C00
F01F80FC00
F07FC3FC00
FFF7FFBFC0
7FE3FF3FC0
3F81FE1FC0
0000200380
0000000380
0000000380
0000000380
0000000780
0000000700
0000000700
ENDCHAR
STARTCHAR 044A
ENCODING 1098
SWIDTH 630 0
DWIDTH 28 0
BBX 23 23 3 0
BITMAP
FFE000
FFE000
FFE000
01E000
01C000
03C000
03C000
03C000
03C000
03FFE0
07FFF8
07FFFC
07807E
07801E
0F001E
0F001E
0F001E
0F001E
0E003C
1E00FC
1FFFF8
1FFFF0
1FFFC0
ENDCHAR
STARTCHAR 044B
ENCODING 1099
SWIDTH 742 0
DWIDTH 33 0
BBX 32 23 1 0
BITMAP
0780000F
0780000F
0780000E
0700001E
0F00001E
0F00001E
0F00001E
0F00003C
1E00003C
1FFF803C
1FFFE03C
1FFFF03C
1C01F078
3C00F878
3C007878
3C007878
3C0078F0
3800F0F0
7800F0F0
7803F0F0
7FFFE0F0
7FFFC1E0
FFFE01E0
ENDCHAR
STARTCHAR 044C
ENCODING 1100
SWIDTH 517 0
DWIDTH 23 0
BBX 21 23 1 0
BITMAP
078000
078000
078000
070000
0F0000
0F0000
0F0000
0F0000
1E0000
1FFF80
1FFFE0
1FFFF0
1C01F0
3C00F8
3C0078
3C0078
3C0078
3800F0
7800F0
7803F0
7FFFE0
7FFFC0
FFFE00
ENDCHAR
STARTCHAR 044D
ENCODING 1101
SWIDTH 495 0
DWIDTH 22 0
BBX 20 25 1 -1
BITMAP
001800
01FF00
03FFC0
07FFE0
0F81E0
1E01F0
1E00F0
3C00F0
0000F0
0000F0
0000F0
007FF0
007FF0
007FF0
0000F0
0001E0
0001E0
F003E0
F003C0
F807C0
7C0F80
7FFF00
3FFE00
0FF800
008000
ENDCHAR
STARTCHAR 044E
ENCODING 1102
SWIDTH 742 0
DWIDTH 33 0
BBX 32 25 1 -1
BITMAP
00000180
07801FF0
07807FF8
0780FFFC
0701F03E
0F03E01E
0F07C01E
0F07800F
0F0F800F
0E0F000F
1E0F000F
1FFE000F
1FFE000F
1FFE001E
3C1E001E
3C1E001E
3C1E003C
3C1E003C
380F0078
780F00F8
780F81F0
7807FFE0
7803FFC0
F001FF00
00001000
ENDCHAR
STARTCHAR 044F
ENCODING 1103
SWIDTH 540 0
DWIDTH 24 0
BBX 24 23 0 0
BITMAP
007FFF
01FFFF
03FFFF
07C01E
0F001E
0F001E
0F001E
0F001C
0F003C
0F803C
07FFFC
07FFFC
01FFF8
00FC78
03E078
07C078
0F8070
0F00F0
1E00F0
3E00F0
7C00F0
7800E0
F801E0
ENDCHAR
STARTCHAR 0451
ENCODING 1105
SWIDTH 562 0
DWIDTH 25 0
BBX 22 32 2 -1
BITMAP
00F878
00F0F0
00F0F0
00F0F0
000000
000000
000000
000800
00FF80
03FFE0
07FFF0
0F80F0
1F0078
1E0078
3C0038
3C003C
78003C
7FFFFC
7FFFFC
7FFFF8
F00000
F00000
F00000
F000F0
7800F0
7801E0
7C03E0
3E07C0
3FFF80
1FFF00
07FC00
004000
ENDCHAR
STARTCHAR 0452
ENCODING 1106
SWIDTH 562 0
DWIDTH 25 0
BBX 22 41 2 -9
BITMAP
03C000
03C000
03C000
3FFFC0
3FFF80
3FFF80
078000
078000
0F0100
0F1FE0
0F3FF0
0F7FF8
0FE078
1F803C
1F0038
1F0078
1E0078
1E0078
3C0078
3C0078
3C00F0
3C00F0
7800F0
7800F0
7800F0
7801E0
7801E0
F001E0
F001E0
F001E0
F003C0
F003C0
0003C0
0003C0
000380
000780
000780
008F80
00FF00
00FE00
01FC00
ENDCHAR
STARTCHAR 0453
ENCODING 1107
SWIDTH 382 0
DWIDTH 17 0
BBX 19 32 1 0
BITMAP
000F80
000F00
001E00
003C00
007800
007000
000000
000000
000000
07FFE0
07FFC0
07FFC0
070000
0F0000
0F0000
0F0000
0F0000
1E0000
1E0000
1E0000
1E0000
1C0000
3C0000
3C0000
3C0000
3C0000
380000
780000
780000
780000
780000
F00000
ENDCHAR
STARTCHAR 0454
ENCODING 1108
SWIDTH 495 0
DWIDTH 22 0
BBX 20 25 2 -1
BITMAP
000800
01FF80
03FFC0
0FFFE0
0F81F0
1E00F0
3E00F0
3C00F0
780000
780000
780000
7FF000
FFE000
FFE000
F00000
F00000
F001E0
F003C0
F803C0
780780
7C0F80
3FFF00
1FFC00
0FF800
008000
ENDCHAR
STARTCHAR 0455
ENCODING 1109
SWIDTH 495 0
DWIDTH 22 0
BBX 20 25 2 -1
BITMAP
003000
01FF80
07FFC0
0FFFE0
0F01F0
1E00F0
1E00F0
1E00F0
1F0000
0FC000
0FF000
07FC00
01FF00
007F80
001FC0
0007C0
F003E0
F001E0
F001E0
F803C0
7C07C0
7FFF80
3FFF00
0FFC00
004000
ENDCHAR
STARTCHAR 0456
ENCODING 1110
SWIDTH 225 0
DWIDTH 10 0
BBX 11 32 1 0
BITMAP
01E0
01E0
03C0
03C0
03C0
0000
0000
0000
0000
0780
0780
0780
0F00
0F00
0F00
0F00
0E00
1E00
1E00
1E00
1E00
1C00
3C00
3C00
3C00
3C00
7800
7800
7800
7800
7800
F000
ENDCHAR
STARTCHAR 0457
ENCODING 1111
SWIDTH 225 0
DWIDTH 10 0
BBX 14 31 1 0
BITMAP
3C3C
3C3C
3C3C
3C3C
0000
0000
0000
0000
0780
0780
0780
0F00
0F00
0F00
0F00
0E00
1E00
1E00
1E00
1E00
1C00
3C00
3C00
3C00
3C00
7800
7800
7800
7800
7800
F000
ENDCHAR
STARTCHAR 0458
ENCODING 1112
SWIDTH 225 0
DWIDTH 10 0
BBX 17 41 -5 -9
BITMAP
000780
000780
000F00
000F00
000F00
000000
000000
000000
000000
001E00
001E00
001C00
003C00
003C00
003C00
003C00
003800
007800
007800
007800
007800
00F000
00F000
00F000
00F000
00F000
01E000
01E000
01E000
01E000
01E000
03C000
03C000
03C000
03C000
078000
078000
8F8000
FF0000
FF0000
FC0000
ENDCHAR
STARTCHAR 0459
ENCODING 1113
SWIDTH 900 0
DWIDTH 40 0
BBX 40 23 -1 -1
BITMAP
003FFFF000
003FFFF000
007FFFF000
007800E000
007801E000
007001E000
00F001E000
00F001E000
00F001C000
00F003FFF0
00E003FFFC
01E003FFFE
01E003C03E
01E007801F
01E007800F
03C007800F
03C007800F
03C007000F
03C00F001E
07800F007E
7F800FFFFC
FF000FFFF8
FE000FFFE0
ENDCHAR
STARTCHAR 045A
ENCODING 1114
SWIDTH 832 0
DWIDTH 37 0
BBX 34 23 1 0
BITMAP
07801C0000
07803C0000
07803C0000
07003C0000
0F003C0000
0F00380000
0F00780000
0F00780000
1E00780000
1FFFFFFE00
1FFFFFFF00
1FFFFFFF80
1C00F007C0
3C00F003C0
3C00E003C0
3C01E003C0
3C01E003C0
3801E003C0
7801E007C0
7801C01F80
7803FFFF00
7803FFFE00
F003FFF800
ENDCHAR
STARTCHAR 045B
ENCODING 1115
SWIDTH 562 0
DWIDTH 25 0
BBX 22 32 2 0
BITMAP
03C000
03C000
03C000
3FFFC0
3FFF80
3FFF80
078000
078000
0F0100
0F1FE0
0F3FF0
0F7FF8
0FE078
1F803C
1F003C
1F0078
1E0078
1E0078
3C0078
3C0078
3C00F0
3C00F0
7800F0
7800F0
7800F0
7801E0
7801E0
F001E0
F001E0
F001C0
F003C0
F003C0
ENDCHAR
STARTCHAR 045C
ENCODING 1116
SWIDTH 472 0
DWIDTH 21 0
BBX 22 32 1 0
BITMAP
0000F8
0001F0
0003E0
0003C0
000780
000F00
000000
000000
000000
07807C
0780FC
0781FC
0703C0
0F03C0
0F0780
0F0F00
0F0F00
0E1E00
1E3C00
1FF800
1FF000
1EFC00
3C3C00
3C1E00
3C1E00
3C0F00
380F00
780F00
780780
780780
7807C0
F003C0
ENDCHAR
STARTCHAR 045D
ENCODING 1117
SWIDTH 562 0
DWIDTH 25 0
BBX 22 32 3 -1
BITMAP
00F800
00F800
007800
003C00
001C00
001E00
000000
000000
000000
1E003C
1E0038
1E0078
1C0078
3C0078
3C0078
3C00F0
3C00F0
7800F0
7800F0
7800F0
7801E0
7801E0
F001E0
F001E0
F003E0
F007C0
F007C0
F00FC0
F03FC0
FFFB80
7FE380
3FC780
ENDCHAR
STARTCHAR 045E
ENCODING 1118
SWIDTH 495 0
DWIDTH 22 0
BBX 25 41 0 -9
BITMAP
00601800
00703800
00707000
003FF000
001FC000
00060000
00000000
00000000
00000000
0F000780
0F000F00
0F001E00
07001E00
07803C00
07803C00
07807800
07807800
0780F000
0380F000
0381E000
03C3C000
03C3C000
03C78000
03C78000
01CF0000
01CF0000
01DE0000
01FC0000
01FC0000
01F80000
00F80000
00F00000
00F00000
01E00000
01E00000
03C00000
07800000
DF800000
FF000000
FE000000
FC000000
ENDCHAR
STARTCHAR 045F
ENCODING 1119
SWIDTH 562 0
DWIDTH 25 0
BBX 22 32 3 -9
BITMAP
1E003C
1E0078
1E0078
3C0078
3C0078
3C0078
3C00F0
3C00F0
7800F0
7800F0
7800E0
7801E0
7801E0
F001E0
F003E0
F003C0
F007C0
F007C0
F00FC0
F03FC0
FFF380
7FE380
3FC780
0E0000
0E0000
0E0000
1C0000
1C0000
1C0000
1C0000
3C0000
380000
ENDCHAR
STARTCHAR 0490
ENCODING 1168
SWIDTH 495 0
DWIDTH 22 0
BBX 26 38 2 0
BITMAP
000003C0
000003C0
000003C0
00000380
00000380
00000780
03FFFF80
03FFFF80
03FFFF00
03FFFF00
03C00000
07C00000
07800000
07800000
07800000
07800000
0F800000
0F000000
0F000000
0F000000
0F000000
1F000000
1E000000
1E000000
1E000000
1E000000
3E000000
3C000000
3C000000
3C000000
7C000000
78000000
78000000
78000000
78000000
F8000000
F0000000
F0000000
ENDCHAR
STARTCHAR 0491
ENCODING 1169
SWIDTH 337 0
DWIDTH 15 0
BBX 18 29 1 0
BITMAP
0001C0
0001C0
0001C0
0003C0
000380
000380
07FF80
07FF80
07FF80
070000
0F0000
0F0000
0F0000
0F0000
1E0000
1E0000
1E0000
1E0000
1C0000
3C0000
3C0000
3C0000
3C0000
380000
780000
780000
780000
780000
F00000
ENDCHAR
STARTCHAR 0492
ENCODING 1170
SWIDTH 540 0
DWIDTH 24 0
BBX 28 32 1 0
BITMAP
00FFFFF0
01FFFFF0
01FFFFF0
01FFFFE0
01E00000
03E00000
03C00000
03C00000
03C00000
03C00000
07C00000
07800000
07800000
07800000
07800000
7FFF8000
7FFF8000
FFFF8000
0F000000
1F000000
1E000000
1E000000
1E000000
1E000000
3E000000
3C000000
3C000000
3C000000
3C000000
7C000000
78000000
78000000
ENDCHAR
STARTCHAR 0493
ENCODING 1171
SWIDTH 382 0
DWIDTH 17 0
BBX 19 23 1 0
BITMAP
07FFE0
07FFC0
07FFC0
078000
070000
0F0000
0F0000
0F0000
0F0000
7FE000
7FE000
FFE000
1E0000
1E0000
3C0000
3C0000
3C0000
3C0000
380000
780000
780000
780000
780000
ENDCHAR
STARTCHAR 0496
ENCODING 1174
SWIDTH 922 0
DWIDTH 41 0
BBX 45 41 -1 -9
BITMAP
01F000F000F8
01FC00F003F8
01FC00F007F8
01FE00F00FF8
001E01F00F80
001E01E01F00
001E01E01E00
001E01E03E00
000E01E03C00
000F03E07800
000F03C0F800
000F03C1F000
000783C3E000
0007C3C7C000
0003FFFF8000
0001FFFE0000
0003FFFF0000
000FC79F8000
001F0F87C000
003E0F03E000
007C0F03E000
00F80F01F000
01F00F01F000
03E01F00F000
03E01E00F800
07C01E007800
0F801E007C00
1F001E007C00
3E003C003F80
7C003C003F00
7C003C001F00
F8003C001F00
000000000F00
000000000F00
000000000E00
000000001E00
000000001E00
000000001E00
000000001C00
000000001C00
000000003C00
ENDCHAR
STARTCHAR 0497
ENCODING 1175
SWIDTH 697 0
DWIDTH 31 0
BBX 34 30 -1 -7
BITMAP
07803807C0
07E0781FC0
05E0781E80
00E0783C00
00F0787800
00F0F07000
0070F0F000
0070F1E000
0078F3C000
003CE78000
001FFF0000
001FFF0000
007DEF8000
00F1E7C000
01E3C3C000
03C3C1E000
0783C1E000
0F83C1E000
1F03C0F000
3E0780F000
3C07807C00
7C07807C00
F807807C00
0000003800
0000003800
0000003800
0000003800
0000007000
0000007000
0000007000
ENDCHAR
STARTCHAR 049A
ENCODING 1178
SWIDTH 585 0
DWIDTH 26 0
BBX 28 41 2 -9
BITMAP
01E003F0
03E007F0
03C00FE0
03C01FE0
03C03E00
03C03C00
07C07C00
07807800
0780F000
0781F000
0F81E000
0F83C000
0F07C000
0F1F8000
0FFF0000
1FFC0000
1FFC0000
1E7F0000
1E1F0000
1E0F8000
3E07C000
3C07C000
3C03E000
3C03E000
7C01E000
7C01F000
7801F000
7800F000
7800FE00
F8007E00
F0007E00
F0007C00
00003C00
00003C00
00003C00
00003800
00003800
00007800
00007800
00007800
00007000
ENDCHAR
STARTCHAR 049B
ENCODING 1179
SWIDTH 472 0
DWIDTH 21 0
BBX 22 30 1 -7
BITMAP
07807C
0780FC
0781FC
0703E0
0F03C0
0F0780
0F0F00
0F0F00
0E1E00
1E3C00
1FF800
1FF000
1EF800
3C3C00
3C1E00
3C1E00
3C0F00
380F00
780F00
780780
7807E0
7807C0
F003C0
0001C0
0003C0
000380
000380
000380
000380
000780
ENDCHAR
STARTCHAR 049C
ENCODING 1180
SWIDTH 585 0
DWIDTH 26 0
BBX 28 32 2 0
BITMAP
01E003F0
03E007F0
03C00FE0
03C01FE0
03C03E00
03CE3C00
07CE7C00
078E7800
078CF000
078DF000
0F9DE000
0F9FC000
0F1FC000
0F1F8000
0FFF0000
1FFC0000
1FFC0000
1E3F0000
1E3F0000
1E7F8000
3E77C000
3C77C000
3C63E000
3C63E000
7CE1E000
7CE1F000
78C1F000
7800F800
7800F800
F8007800
F0007C00
F0007C00
ENDCHAR
STARTCHAR 049D
ENCODING 1181
SWIDTH 472 0
DWIDTH 21 0
BBX 22 23 1 0
BITMAP
07803C
0780FC
0781FC
071BE0
0F3BC0
0F3780
0F3F00
0F3F00
0E3E00
1E7C00
1FF800
1FF000
1EFC00
3C7C00
3CFE00
3CDE00
3CCF00
38CF00
78CF00
780780
780780
7807C0
F003C0
ENDCHAR
STARTCHAR 04A2
ENCODING 1186
SWIDTH 720 0
DWIDTH 32 0
BBX 32 41 2 -9
BITMAP
01E0001F
03E0001E
03C0001E
03C0001E
03C0003E
07C0003C
0780003C
0780003C
0780003C
0780007C
0F800078
0F000078
0F000078
0FFFFFF8
0FFFFFF8
1FFFFFF0
1FFFFFF0
1E0000F0
1E0001F0
1E0001E0
3E0001E0
3C0001E0
3C0001E0
3C0003E0
7C0003C0
780003C0
780003C0
780003C0
780007F0
F80007F0
F00007F0
F00007F0
000000F0
000000E0
000001E0
000001E0
000001E0
000001E0
000001C0
000003C0
000003C0
ENDCHAR
STARTCHAR 04A3
ENCODING 1187
SWIDTH 540 0
DWIDTH 24 0
BBX 24 30 1 -7
BITMAP
07800F
07800F
07801E
07001E
0F001E
0F001E
0F001E
0F003C
1E003C
1E003C
1FFFFC
1FFFF8
1FFFF8
3C0078
3C0078
3C0078
3C00F0
3800F0
7800F0
7800F0
7800FC
7801FC
F001FC
000038
000038
000038
000038
000078
000070
000070
ENDCHAR
STARTCHAR 04AE
ENCODING 1198
SWIDTH 562 0
DWIDTH 25 0
BBX 24 32 5 0
BITMAP
F0000F
78001F
78003E
78007C
3C0078
3C00F8
3C01F0
1E03E0
1E03C0
1E07C0
0F0F80
0F0F00
079E00
07BE00
07BC00
03F800
03F000
03F000
01E000
01E000
03C000
03C000
03C000
03C000
03C000
078000
078000
078000
078000
070000
0F0000
0F0000
ENDCHAR
STARTCHAR 04AF
ENCODING 1199
SWIDTH 495 0
DWIDTH 22 0
BBX 21 32 4 -9
BITMAP
F000F8
F000F0
F001E0
F001E0
F003C0
F803C0
780780
780F00
780F00
781E00
781E00
783C00
3C3800
3C7800
3CF000
3CF000
3DE000
3DE000
1FC000
1F8000
1F8000
1F0000
1F0000
1E0000
1E0000
1E0000
1E0000
3C0000
3C0000
3C0000
3C0000
380000
ENDCHAR
STARTCHAR 04B0
ENCODING 1200
SWIDTH 562 0
DWIDTH 25 0
BBX 26 32 3 0
BITMAP
3C0003C0
1E0007C0
1E000F80
1E001F00
0F001E00
0F003E00
0F007C00
0780F800
0780F000
0381F000
03C3E000
03C3C000
01E78000
01EF8000
00EF0000
00FE0000
FFFFFC00
FFFFFC00
FFFFFC00
00780000
00F00000
00F00000
00F00000
00F00000
00F00000
01E00000
01E00000
01E00000
01E00000
01C00000
03C00000
03C00000
ENDCHAR
STARTCHAR 04B1
ENCODING 1201
SWIDTH 495 0
DWIDTH 22 0
BBX 25 32 0 -9
BITMAP
0F000F80
0F000F00
0F001E00
0F001E00
0F003C00
0F803C00
07807800
0780F000
0780F000
0781E000
0781E000
0783C000
03C38000
03C78000
03CF0000
03CF0000
03DE0000
03DE0000
01FC0000
01F80000
01F80000
01F00000
01F00000
FFFFC000
FFFFC000
FFFFC000
01E00000
03C00000
03C00000
03C00000
03C00000
03800000
ENDCHAR
STARTCHAR 04B2
ENCODING 1202
SWIDTH 675 0
DWIDTH 30 0
BBX 35 41 -1 -9
BITMAP
03E00007E0
03E0000FC0
01F0001F80
00F0003F00
00F8003E00
0078007C00
007C00F800
003E01F000
001E03E000
001F07C000
000F0FC000
000F9F8000
0007BF0000
0007FE0000
0003FC0000
0001F80000
0003F00000
0007F00000
000FF80000
001FF80000
003F3C0000
007E3E0000
007C1E0000
00F81F0000
01F00F0000
03E00F8000
07C0078000
0F8007C000
1F8003F800
3F0003F800
7E0001F800
FC0000F800
0000007000
000000F000
000000F000
000000F000
000000F000
000000E000
000001E000
000001E000
000001E000
ENDCHAR
STARTCHAR 04B3
ENCODING 1203
SWIDTH 495 0
DWIDTH 22 0
BBX 23 30 0 -7
BITMAP
0F801E
07803E
07C07C
03C0F8
03E0F0
01E1E0
01F3C0
00F7C0
007F80
007F00
003E00
003C00
007E00
00FE00
01FF00
03EF00
03C780
078780
0F87C0
1F03C0
3E03F8
7C01F0
F801F0
000070
0000F0
0000E0
0000E0
0000E0
0000E0
0001E0
ENDCHAR
STARTCHAR 04B8
ENCODING 1208
SWIDTH 675 0
DWIDTH 30 0
BBX 26 32 5 0
BITMAP
3C0003C0
3C0003C0
3C0003C0
7C0007C0
78000780
78000780
78000780
78000780
F81C0F80
F01C0F00
F0180F00
F0180F00
F0380F00
F0381F00
F0381E00
F8301E00
F830FE00
FF7FFE00
7FFFFC00
3FFFBC00
0FF83C00
00E03C00
00E07C00
00E07800
00C07800
00C07800
01C07800
0000F800
0000F000
0000F000
0000F000
0001F000
ENDCHAR
STARTCHAR 04B9
ENCODING 1209
SWIDTH 517 0
DWIDTH 23 0
BBX 20 23 3 0
BITMAP
7800F0
7800F0
7800F0
7800F0
7801E0
F0E1E0
F0C1E0
F0C1E0
F0C1C0
F0C3C0
F9C3C0
FFFFC0
7FFFC0
3FFF80
0FC780
038780
030780
030780
030F00
000F00
000F00
000F00
000E00
ENDCHAR
STARTCHAR 04BA
ENCODING 1210
SWIDTH 675 0
DWIDTH 30 0
BBX 26 32 3 0
BITMAP
03C00000
03C00000
03C00000
03C00000
07C00000
07800000
07800000
07800000
07800000
0F800000
0F000000
0F07FC00
0F7FFF00
1FFFFF80
1FFFFFC0
1FC00FC0
1E0007C0
1E0003C0
3E0003C0
3C0003C0
3C0003C0
3C0003C0
3C0003C0
7C0007C0
78000780
78000780
78000780
F8000780
F0000F80
F0000F00
F0000F00
F0000F00
ENDCHAR
STARTCHAR 04BB
ENCODING 1211
SWIDTH 562 0
DWIDTH 25 0
BBX 21 32 2 0
BITMAP
03C000
03C000
03C000
078000
078000
078000
078000
078000
0F0100
0F1FE0
0F3FF0
0F7FF8
0FE078
1F8078
1F0038
1F0078
1E0078
3E0078
3C0078
3C0078
3C00F0
3C00F0
7800F0
7800F0
7800F0
7801E0
7801E0
F001E0
F001E0
F001C0
F003C0
F003C0
ENDCHAR
STARTCHAR 04D8
ENCODING 1240
SWIDTH 787 0
DWIDTH 35 0
BBX 29 33 4 -1
BITMAP
000FFC00
003FFF00
00FFFF80
01FC1FC0
03E007E0
07C003E0
0F8001F0
0F0000F0
1F0000F8
060000F8
00000078
00000078
00000078
00000078
7FFFFFF8
FFFFFFF8
FFFFFFF8
F00000F8
F00000F0
F00000F0
F00000F0
F80001F0
F80001E0
780003E0
780007C0
7C000F80
3C000F80
3E003F00
1F80FE00
0FFFFC00
07FFF000
01FFC000
00180000
ENDCHAR
STARTCHAR 04D9
ENCODING 1241
SWIDTH 562 0
DWIDTH 25 0
BBX 21 25 3 -1
BITMAP
001000
01FF80
07FFC0
0FFFE0
1F81F0
3E00F0
3C00F0
780078
380078
000078
000078
000078
FFFFF8
FFFFF8
E000F0
E000F0
E000F0
F001E0
F003E0
F003C0
780F80
3FFF00
1FFE00
0FF800
008000
ENDCHAR
STARTCHAR 04E8
ENCODING 1256
SWIDTH 787 0
DWIDTH 35 0
BBX 30 33 4 -1
BITMAP
000FFC00
007FFF00
00FFFFC0
03FC1FE0
07F003F0
0FC001F0
0F8000F8
1F000078
3E00007C
3E00003C
3C00003C
7C00003C
7800003C
7800003C
FFFFFFFC
FFFFFFFC
FFFFFFFC
FFFFFFFC
F000007C
F000007C
F0000078
F00000F8
780000F8
780001F0
7C0003E0
3C0003E0
3E0007C0
1F801F80
0FE07F00
07FFFE00
03FFF800
00FFE000
00040000
ENDCHAR
STARTCHAR 04E9
ENCODING 1257
SWIDTH 562 0
DWIDTH 25 0
BBX 22 25 2 -1
BITMAP
000C00
00FF80
03FFE0
07F7F0
0F80F8
1F0078
3E007C
3C003C
7C003C
78003C
7FFFFC
7FFFFC
FFFFFC
F0003C
F00078
F00078
F00078
F000F0
7801F0
7803E0
3C07C0
3FFF80
1FFF00
07FC00
004000
ENDCHAR
STARTCHAR 05B0
ENCODING 1456
SWIDTH 337 0
DWIDTH 15 0
BBX 5 10 3 -14
BITMAP
10
38
78
70
00
00
70
F0
E0
40
ENDCHAR
STARTCHAR 05B1
ENCODING 1457
SWIDTH 337 0
DWIDTH 15 0
BBX 14 10 -1 -14
BITMAP
2108
73BC
F7BC
6738
0000
0000
3830
3878
3870
1020
ENDCHAR
STARTCHAR 05B2
ENCODING 1458
SWIDTH 337 0
DWIDTH 15 0
BBX 12 10 0 -14
BITMAP
0020
FE70
FE70
0070
0000
0000
00E0
00E0
00E0
0040
ENDCHAR
STARTCHAR 05B3
ENCODING 1459
SWIDTH 337 0
DWIDTH 15 0
BBX 12 10 0 -14
BITMAP
0020
FE70
FE70
3070
3000
7000
00E0
00E0
00E0
0040
ENDCHAR
STARTCHAR 05B4
ENCODING 1460
SWIDTH 337 0
DWIDTH 15 0
BBX 4 4 4 -8
BITMAP
20
70
F0
E0
ENDCHAR
STARTCHAR 05B5
ENCODING 1461
SWIDTH 337 0
DWIDTH 15 0
BBX 10 4 1 -8
BITMAP
2080
73C0
F3C0
6380
ENDCHAR
STARTCHAR 05B6
ENCODING 1462
SWIDTH 337 0
DWIDTH 15 0
BBX 10 10 1 -14
BITMAP
2080
73C0
F3C0
6380
0000
0000
1C00
3C00
3800
1000
ENDCHAR
STARTCHAR 05B7
ENCODING 1463
SWIDTH 337 0
DWIDTH 15 0
BBX 9 2 2 -7
BITMAP
FF80
FF00
ENDCHAR
STARTCHAR 05B8
ENCODING 1464
SWIDTH 337 0
DWIDTH 15 0
BBX 9 5 2 -10
BITMAP
FF80
FF00
1800
3800
3800
ENDCHAR
STARTCHAR 05B9
ENCODING 1465
SWIDTH 337 0
DWIDTH 15 0
BBX 4 3 11 26
BITMAP
70
F0
F0
ENDCHAR
STARTCHAR 05BA
ENCODING 1466
SWIDTH 337 0
DWIDTH 15 0
BBX 4 3 11 26
BITMAP
70
F0
F0
ENDCHAR
STARTCHAR 05BB
ENCODING 1467
SWIDTH 337 0
DWIDTH 15 0
BBX 13 10 -1 -14
BITMAP
2000
F000
F000
E300
0700
0700
0638
0078
0078
0020
ENDCHAR
STARTCHAR 05BC
ENCODING 1468
SWIDTH 337 0
DWIDTH 15 0
BBX 4 3 8 11
BITMAP
70
F0
E0
ENDCHAR
STARTCHAR 05BD
ENCODING 1469
SWIDTH 337 0
DWIDTH 15 0
BBX 3 8 4 -13
BITMAP
60
60
60
E0
E0
C0
C0
C0
ENDCHAR
STARTCHAR 05BE
ENCODING 1470
SWIDTH 382 0
DWIDTH 17 0
BBX 12 3 7 20
BITMAP
FFF0
FFF0
FFF0
ENDCHAR
STARTCHAR 05BF
ENCODING 1471
SWIDTH 337 0
DWIDTH 15 0
BBX 9 2 9 27
BITMAP
FF80
FF80
ENDCHAR
STARTCHAR 05C0
ENCODING 1472
SWIDTH 270 0
DWIDTH 12 0
BBX 8 28 5 0
BITMAP
07
07
07
07
07
0E
0E
0E
0E
1E
1C
1C
1C
1C
3C
38
38
38
38
70
70
70
70
70
E0
E0
E0
E0
ENDCHAR
STARTCHAR 05C1
ENCODING 1473
SWIDTH 337 0
DWIDTH 15 0
BBX 3 3 23 26
BITMAP
E0
E0
E0
ENDCHAR
STARTCHAR 05C2
ENCODING 1474
SWIDTH 337 0
DWIDTH 15 0
BBX 4 3 0 26
BITMAP
70
F0
F0
ENDCHAR
STARTCHAR 05C3
ENCODING 1475
SWIDTH 270 0
DWIDTH 12 0
BBX 9 23 4 0
BITMAP
0780
0780
0F80
0F80
0000
0000
0000
0000
0000
0000
0000
0000
0000
0000
0000
0000
0000
0000
0000
7800
7800
F800
F800
ENDCHAR
STARTCHAR 05D0
ENCODING 1488
SWIDTH 562 0
DWIDTH 25 0
BBX 25 23 2 0
BITMAP
03E00780
03E00F80
03F00F00
01F00F00
01F81F00
00F81F00
00FC1E00
007C3E00
01FE3C00
03FE7C00
07FFF800
079FF000
0F1FC000
0F0F8000
1E0FC000
1E07C000
3E07E000
3C03E000
3C03F000
7C01F000
7801F800
7800F800
F800FC00
ENDCHAR
STARTCHAR 05D1
ENCODING 1489
SWIDTH 540 0
DWIDTH 24 0
BBX 23 23 1 0
BITMAP
07FF80
07FFE0
07FFF0
060FF8
0001F8
0000F8
000078
000078
000078
000078
000078
000078
000078
0000F0
0000F0
0000F0
0000F0
0001F0
0001E0
0001E0
7FFFFE
FFFFFC
FFFFFC
ENDCHAR
STARTCHAR 05D2
ENCODING 1490
SWIDTH 405 0
DWIDTH 18 0
BBX 17 23 1 0
BITMAP
01FE00
01FF00
01FF00
001F80
000F80
000F80
000F00
000F00
000F00
000F00
000F00
001E00
001E00
001E00
007E00
03FE00
07FE00
0FDE00
1F1E00
3E1E00
7C1E00
781E00
F01E00
ENDCHAR
STARTCHAR 05D3
ENCODING 1491
SWIDTH 517 0
DWIDTH 23 0
BBX 21 23 5 0
BITMAP
7FFFF8
7FFFF8
FFFFF8
000780
000F80
000F00
000F00
000F00
000F00
001F00
001E00
001E00
001E00
001E00
003C00
003C00
003C00
003C00
003C00
007800
007800
007800
007800
ENDCHAR
STARTCHAR 05D4
ENCODING 1492
SWIDTH 607 0
DWIDTH 27 0
BBX 23 23 4 0
BITMAP
0FFFC0
0FFFF0
0FFFF8
0E07FC
0000FC
00003E
00003E
00003E
00003E
00003C
3C003C
3C003C
3C003C
3C007C
780078
780078
780078
780078
F800F8
F000F0
F000F0
F000F0
F000F0
ENDCHAR
STARTCHAR 05D5
ENCODING 1493
SWIDTH 247 0
DWIDTH 11 0
BBX 9 23 3 0
BITMAP
0780
0780
0780
0780
0F80
0F00
0F00
0F00
1F00
1E00
1E00
1E00
1E00
3E00
3C00
3C00
3C00
3C00
7C00
7800
7800
7800
F800
ENDCHAR
STARTCHAR 05D6
ENCODING 1494
SWIDTH 382 0
DWIDTH 17 0
BBX 15 23 6 0
BITMAP
7FFE
7FFE
FFFC
03E0
0780
0F00
1E00
1E00
3C00
3C00
3C00
3800
7800
7800
7800
7800
7800
7800
7800
F000
F000
F000
F000
ENDCHAR
STARTCHAR 05D7
ENCODING 1495
SWIDTH 607 0
DWIDTH 27 0
BBX 24 23 3 0
BITMAP
07FFF0
07FFF8
07FFFC
07C1FE
0F003E
0F001F
0F001F
0F001F
1F001E
1E001E
1E001E
1E001E
1E001E
3E003C
3C003C
3C003C
3C003C
3C007C
780078
780078
780078
780078
F800F8
ENDCHAR
STARTCHAR 05D8
ENCODING 1496
SWIDTH 585 0
DWIDTH 26 0
BBX 22 24 5 -1
BITMAP
1E03F8
1E07F8
3E1FFC
3C1C7C
3C183C
3C103C
3C003C
78003C
78003C
780078
780078
780078
F00078
F000F8
F000F0
F000F0
F001E0
F001E0
F803C0
7C0F80
7FFF00
3FFE00
1FFC00
018000
ENDCHAR
STARTCHAR 05D9
ENCODING 1497
SWIDTH 247 0
DWIDTH 11 0
BBX 6 12 6 11
BITMAP
3C
3C
3C
3C
7C
78
78
78
F8
F0
F0
F0
ENDCHAR
STARTCHAR 05DA
ENCODING 1498
SWIDTH 517 0
DWIDTH 23 0
BBX 18 32 5 -9
BITMAP
7FF800
7FFE00
FFFF00
F0FF80
001F80
000F80
0007C0
0007C0
000780
000780
000780
000780
000780
000F80
000F00
000F00
000F00
001F00
001E00
001E00
001E00
001E00
003E00
003C00
003C00
003C00
003C00
007C00
007800
007800
007800
007800
ENDCHAR
STARTCHAR 05DB
ENCODING 1499
SWIDTH 450 0
DWIDTH 20 0
BBX 19 23 2 0
BITMAP
07FC00
0FFF00
0FFF80
0C3FC0
0007E0
0003E0
0003E0
0001E0
0001E0
0001E0
0001E0
0001E0
0003E0
0003C0
0003C0
0007C0
000F80
001F00
003F00
73FE00
7FF800
FFF000
FFC000
ENDCHAR
STARTCHAR 05DC
ENCODING 1500
SWIDTH 472 0
DWIDTH 21 0
BBX 17 32 6 0
BITMAP
3C0000
3C0000
3C0000
780000
780000
780000
780000
780000
F00000
FFFF80
FFFF80
FFFF80
000F00
000F00
000F00
000F00
001E00
001E00
003E00
003C00
007800
00F800
01F000
03E000
07C000
078000
0F8000
0F0000
0F0000
0F0000
1F0000
1E0000
ENDCHAR
STARTCHAR 05DD
ENCODING 1501
SWIDTH 607 0
DWIDTH 27 0
BBX 24 23 3 0
BITMAP
07FFF0
07FFF8
07FFFC
07C1FE
0F003E
0F001F
0F001F
0F001F
1F001E
1E001E
1E001E
1E001E
1E001E
3E003C
3C003C
3C003C
3C003C
3C007C
780078
780078
7FFFF8
7FFFF8
FFFFF8
ENDCHAR
STARTCHAR 05DE
ENCODING 1502
SWIDTH 607 0
DWIDTH 27 0
BBX 24 23 3 0
BITMAP
0F03F8
0F0FFC
0F1FFE
0F3E7E
0F781E
0FF01F
07E01F
07E01F
07C01E
07801E
07801E
0F001E
0F001E
1E003E
1E003C
1E003C
3C003C
3C003C
78007C
780078
F87FF8
F07FF8
F07FF8
ENDCHAR
STARTCHAR 05DF
ENCODING 1503
SWIDTH 247 0
DWIDTH 11 0
BBX 10 32 2 -9
BITMAP
03C0
03C0
03C0
03C0
07C0
0780
0780
0780
0F80
0F00
0F00
0F00
0F00
1F00
1E00
1E00
1E00
1E00
3E00
3C00
3C00
3C00
7C00
7800
7800
7800
7800
F800
F000
F000
F000
F000
ENDCHAR
STARTCHAR 05E0
ENCODING 1504
SWIDTH 360 0
DWIDTH 16 0
BBX 15 23 1 0
BITMAP
07F8
07FC
07FE
007E
003E
001E
001E
001E
003E
003C
003C
003C
003C
0078
0078
0078
0078
00F8
00F0
00F0
7FF0
7FF0
FFF0
ENDCHAR
STARTCHAR 05E1
ENCODING 1505
SWIDTH 585 0
DWIDTH 26 0
BBX 22 25 4 -1
BITMAP
000E00
007FE0
01FFF0
03FFF8
0FC0F8
0F807C
1F007C
3E003C
3C003C
7C003C
78003C
78003C
F8003C
F8007C
F80078
F80078
F800F8
F800F0
F801F0
7C03E0
7E0FC0
3FFF80
3FFF00
0FFC00
03C000
ENDCHAR
STARTCHAR 05E2
ENCODING 1506
SWIDTH 540 0
DWIDTH 24 0
BBX 24 25 1 -2
BITMAP
01E00F
01E00F
01E00F
01E01F
01E01E
01E01E
01E01E
01E03E
01E03C
01E03C
01E03C
01E07C
01E078
01E078
01E0F0
01E0F0
03E1E0
03E7C0
03EF80
03FF00
07FE00
FFF800
FFE000
FF0000
E00000
ENDCHAR
STARTCHAR 05E3
ENCODING 1507
SWIDTH 562 0
DWIDTH 25 0
BBX 20 32 5 -9
BITMAP
0FFF00
3FFFC0
3FFFE0
3C0FF0
7801F0
7801F0
7800F0
7800F0
F000F0
F000F0
F000F0
F001E0
FF01E0
FF01E0
7F01E0
0C03E0
0003C0
0003C0
0003C0
0003C0
0007C0
000780
000780
000780
000780
000F00
000F00
000F00
000F00
000F00
001E00
001E00
ENDCHAR
STARTCHAR 05E4
ENCODING 1508
SWIDTH 540 0
DWIDTH 24 0
BBX 22 23 3 0
BITMAP
07FF80
0FFFE0
0FFFF0
0F03F8
0F00FC
1E007C
1E007C
1E003C
1E003C
1E003C
1FE03C
1FE07C
0FE07C
018078
0000F8
0000F0
0001F0
0003E0
400FC0
787F80
FFFF00
FFFC00
7FF000
ENDCHAR
STARTCHAR 05E5
ENCODING 1509
SWIDTH 472 0
DWIDTH 21 0
BBX 18 32 6 -9
BITMAP
F007C0
F00780
F80780
F80F80
780F00
780F00
7C1F00
7C1E00
3C3E00
3C3C00
3E7C00
1FF800
1FE000
1FC000
1F0000
1E0000
1E0000
1E0000
3E0000
3C0000
3C0000
3C0000
3C0000
780000
780000
780000
780000
780000
F00000
F00000
F00000
F00000
ENDCHAR
STARTCHAR 05E6
ENCODING 1510
SWIDTH 472 0
DWIDTH 21 0
BBX 23 23 1 0
BITMAP
0F803E
07803C
07C03C
03C07C
03E07C
03E078
01F078
01F0F0
00F1F0
00FBE0
007FC0
007F80
003E00
003C00
003E00
001E00
001F00
000F00
000F80
000780
7FFF80
7FFF80
FFFF80
ENDCHAR
STARTCHAR 05E7
ENCODING 1511
SWIDTH 540 0
DWIDTH 24 0
BBX 25 32 2 -9
BITMAP
03FFFF80
03FFFF80
03FFFF00
00000F00
00000F00
00000F00
00001F00
00001E00
00001E00
00003C00
0F003C00
0F007800
0F00F000
0F01E000
1E03E000
1E07C000
1E078000
1E0F0000
1E0F0000
3C0F0000
3C1F0000
3C1E0000
3C1E0000
78000000
78000000
78000000
78000000
78000000
F0000000
F0000000
F0000000
F0000000
ENDCHAR
STARTCHAR 05E8
ENCODING 1512
SWIDTH 517 0
DWIDTH 23 0
BBX 18 23 5 0
BITMAP
7FF800
7FFE00
FFFF00
F0FF80
001F80
000F80
0007C0
0007C0
000780
000780
000780
000780
000780
000F80
000F00
000F00
000F00
000F00
001E00
001E00
001E00
001E00
003E00
ENDCHAR
STARTCHAR 05E9
ENCODING 1513
SWIDTH 697 0
DWIDTH 31 0
BBX 28 24 5 -1
BITMAP
3C0780F0
3C0780F0
3C0780F0
7C0F01F0
780F01E0
780F01E0
781F03E0
781E03C0
781E03C0
783E07C0
F07C0780
F3F80780
FFF00F80
FFE00F00
FE000F00
F0001E00
F8003E00
78007C00
7C00F800
7E03F000
3FFFE000
1FFFC000
0FFF0000
00700000
ENDCHAR
STARTCHAR 05EA
ENCODING 1514
SWIDTH 652 0
DWIDTH 29 0
BBX 28 23 1 0
BITMAP
07FFFE00
07FFFF80
07FFFFC0
07BC0FE0
003C03E0
007801F0
007801F0
007801F0
007801E0
007801E0
00F001E0
00F001E0
00F003E0
00F003C0
01F003C0
01E003C0
01E003C0
01E007C0
03E00780
47C00780
7FC00780
FF800780
FF000F80
ENDCHAR
STARTCHAR 05F0
ENCODING 1520
SWIDTH 495 0
DWIDTH 22 0
BBX 20 23 3 0
BITMAP
0780F0
0780F0
0780F0
0781F0
0F81E0
0F01E0
0F01E0
0F01E0
1F03E0
1E03C0
1E03C0
1E03C0
1E03C0
3E07C0
3C0780
3C0780
3C0780
3C0F80
7C0F80
780F00
780F00
780F00
F81F00
ENDCHAR
STARTCHAR 05F1
ENCODING 1521
SWIDTH 495 0
DWIDTH 22 0
BBX 17 23 6 0
BITMAP
3C0780
3C0780
3C0780
3C0F80
7C0F00
780F00
780F00
780F00
F81F00
F01E00
F01E00
F01E00
001E00
003E00
003C00
003C00
003C00
007C00
007C00
007800
007800
007800
00F800
ENDCHAR
STARTCHAR 05F2
ENCODING 1522
SWIDTH 495 0
DWIDTH 22 0
BBX 17 12 6 11
BITMAP
3C0780
3C0780
3C0780
3C0F80
7C0F00
780F00
780F00
780F00
F81F00
F01E00
F01E00
F01E00
ENDCHAR
STARTCHAR 05F3
ENCODING 1523
SWIDTH 225 0
DWIDTH 10 0
BBX 8 8 5 15
BITMAP
0F
1E
1E
3C
38
78
70
E0
ENDCHAR
STARTCHAR 05F4
ENCODING 1524
SWIDTH 427 0
DWIDTH 19 0
BBX 16 8 5 15
BITMAP
0F0F
1E1E
1E1E
3C3C
3838
7878
7070
E060
ENDCHAR
STARTCHAR 1E80
ENCODING 7808
SWIDTH 945 0
DWIDTH 42 0
BBX 41 40 6 0
BITMAP
0000F8000000
000078000000
00003C000000
00003C000000
00001E000000
00000E000000
000000000000
000000000000
F0003E000780
F0003E000F00
F0007E000F00
F0007E001E00
F000FE001E00
F000FE003C00
F001FE003C00
F003FE007800
F003DE007800
F007DE00F000
F0079E00F000
F00F9E01E000
F00F1E01E000
F81F1E03C000
F81E1F03C000
F83E0F078000
783C0F078000
787C0F0F0000
78780F0F0000
78F80F1E0000
78F00F1E0000
79E00F3C0000
79E00F3C0000
7BC00F780000
7BC00F780000
7F800FF00000
7F800FF00000
7F000FE00000
7F000FE00000
7E000FC00000
7E000FC00000
7C000F800000
ENDCHAR
STARTCHAR 1E81
ENCODING 7809
SWIDTH 720 0
DWIDTH 32 0
BBX 31 32 3 0
BITMAP
000F8000
00078000
0003C000
0003C000
0001E000
0000E000
00000000
00000000
00000000
F003C01E
7007C01E
7007C03C
780FC03C
780FC078
781FE078
781DE070
783DE0F0
783DE0E0
7879E1E0
3879E1C0
3871E3C0
38F1E380
3CE0E780
3DE0E700
3DC0EF00
3DC0EE00
3F80EE00
3F80FC00
3F80FC00
1F00F800
1F00F800
1E00F800
ENDCHAR
STARTCHAR 1E82
ENCODING 7810
SWIDTH 945 0
DWIDTH 42 0
BBX 41 40 6 0
BITMAP
000007C00000
00000F800000
00000F000000
00001E000000
00003C000000
000038000000
000000000000
000000000000
F0003E000780
F0003E000F00
F0007E000F00
F0007E001E00
F000FE001E00
F000FE003C00
F001FE003C00
F003FE007800
F003DE007800
F007DE00F000
F0079E00F000
F00F9E01E000
F00F1E01E000
F81F1E03C000
F81E1F03C000
F83E0F078000
783C0F078000
787C0F0F0000
78780F0F0000
78F80F1E0000
78F00F1E0000
79E00F3C0000
79E00F3C0000
7BC00F780000
7BC00F780000
7F800FF00000
7F800FF00000
7F000FE00000
7F000FE00000
7E000FC00000
7E000FC00000
7C000F800000
ENDCHAR
STARTCHAR 1E83
ENCODING 7811
SWIDTH 720 0
DWIDTH 32 0
BBX 31 32 3 0
BITMAP
00007C00
0000F800
0000F000
0001E000
0003C000
00038000
00000000
00000000
00000000
F003C01E
7007C01E
7007C03C
780FC03C
780FC078
781FE078
781DE070
783DE0F0
783DE0E0
7879E1E0
3879E1C0
3871E3C0
38F1E380
3CE0E780
3DE0E700
3DC0EF00
3DC0EE00
3F80EE00
3F80FC00
3F80FC00
1F00F800
1F00F800
1E00F800
ENDCHAR
STARTCHAR 1E84
ENCODING 7812
SWIDTH 945 0
DWIDTH 42 0
BBX 41 38 6 0
BITMAP
0001F0F00000
0001E1E00000
0001E1E00000
0001E1E00000
000000000000
000000000000
F0003E000780
F0003E000F00
F0007E000F00
F0007E001E00
F000FE001E00
F000FE003C00
F001FE003C00
F003FE007800
F003DE007800
F007DE00F000
F0079E00F000
F00F9E01E000
F00F1E01E000
F81F1E03C000
F81E1F03C000
F83E0F078000
783C0F078000
787C0F0F0000
78780F0F0000
78F80F1E0000
78F00F1E0000
79E00F3C0000
79E00F3C0000
7BC00F780000
7BC00F780000
7F800FF00000
7F800FF00000
7F000FE00000
7F000FE00000
7E000FC00000
7E000FC00000
7C000F800000
ENDCHAR
STARTCHAR 1E85
ENCODING 7813
SWIDTH 720 0
DWIDTH 32 0
BBX 31 31 3 0
BITMAP
000F0F00
001E1E00
001E1E00
001E1E00
00000000
00000000
00000000
00000000
F003C01E
7007C01E
7007C03C
780FC03C
780FC078
781FE078
781DE070
783DE0F0
783DE0E0
7879E1E0
3879E1C0
3871E3C0
38F1E380
3CE0E780
3DE0E700
3DC0EF00
3DC0EE00
3F80EE00
3F80FC00
3F80FC00
1F00F800
1F00F800
1E00F800
ENDCHAR
ENDFONT
